<svg xmlns="http://www.w3.org/2000/svg" xmlns:xlink="http://www.w3.org/1999/xlink" viewBox="0 0 285 285"><defs><linearGradient id="linear-gradient" x1="120.48" y1="495.68" x2="201.6" y2="355.17" gradientTransform="translate(113.96 -323.31) rotate(15.12)" gradientUnits="userSpaceOnUse"><stop offset="0.12" stop-color="#4d4d4d"/><stop offset="0.47" stop-color="#515151"/><stop offset="0.83" stop-color="#5d5d5d"/><stop offset="1" stop-color="#666"/></linearGradient></defs><title>addJoint</title><g id="Layer_2" data-name="Layer 2"><g id="Layer_1-2" data-name="Layer 1"><rect width="285" height="285" style="fill:none"/><circle cx="63.34" cy="216.11" r="24" style="fill:#4800ff"/><circle cx="59.34" cy="211.11" r="24" style="fill:#66126b"/><circle cx="59.34" cy="211.11" r="10" style="fill:#09000a"/><polyline points="34.1 99.71 74.56 160.09 144.11 224.66 214.21 192.32 265.11 176.76 228.01 97.15 183.21 39.26 102.18 71.4" style="fill:url(#linear-gradient)"/><polyline points="101.87 71.84 33.78 100.15 75.1 160.77" style="fill:none;stroke:#000;stroke-linecap:round;stroke-linejoin:round;stroke-width:4px"/><line x1="101.87" y1="71.84" x2="75.1" y2="160.77" style="fill:none;stroke:#000;stroke-linecap:round;stroke-linejoin:round;stroke-width:4px"/><line x1="101.87" y1="71.84" x2="151.68" y2="114.6" style="fill:none;stroke:#000;stroke-linecap:round;stroke-linejoin:round;stroke-width:4px"/><polyline points="101.87 71.84 182.67 40.56 228.32 98.68" style="fill:none;stroke:#000;stroke-linecap:round;stroke-linejoin:round;stroke-width:4px"/><line x1="101.87" y1="71.84" x2="228.32" y2="98.68" style="fill:none;stroke:#000;stroke-linecap:round;stroke-linejoin:round;stroke-width:4px"/><line x1="151.68" y1="114.6" x2="228.32" y2="98.68" style="fill:none;stroke:#000;stroke-linecap:round;stroke-linejoin:round;stroke-width:4px"/><polyline points="213.9 192.76 264.8 177.21 228.32 98.68" style="fill:none;stroke:#000;stroke-linecap:round;stroke-linejoin:round;stroke-width:4px"/><line x1="228.32" y1="98.68" x2="213.9" y2="192.76" style="fill:none;stroke:#000;stroke-linecap:round;stroke-linejoin:round;stroke-width:4px"/><line x1="151.68" y1="114.6" x2="75.1" y2="160.77" style="fill:none;stroke:#000;stroke-linecap:round;stroke-linejoin:round;stroke-width:4px"/><line x1="151.68" y1="114.6" x2="213.9" y2="192.76" style="fill:none;stroke:#000;stroke-linecap:round;stroke-linejoin:round;stroke-width:4px"/><polyline points="75.1 160.77 143.8 225.11 213.9 192.76" style="fill:none;stroke:#000;stroke-linecap:round;stroke-linejoin:round;stroke-width:4px"/><line x1="75.1" y1="160.77" x2="213.9" y2="192.76" style="fill:none;stroke:#000;stroke-linecap:round;stroke-linejoin:round;stroke-width:4px"/><path d="M109.49,110.38l-3.1-11.7,49,13.27-36,35.77-1.61-6.08a5.9,5.9,0,0,0-9.61-2.89c-19.65,17.32-30.06,42.67-33.84,53.5A5.87,5.87,0,0,1,67.25,196l-3.37-.9L61,194.34A5.87,5.87,0,0,1,57,186.79c4.83-14.21,19.5-50,50.07-70A5.86,5.86,0,0,0,109.49,110.38Z" style="fill:blue"/><circle cx="75.96" cy="147.86" r="27.21" style="fill:#fff;stroke:blue;stroke-miterlimit:10;stroke-width:7px"/><path d="M69.73,152.23H68q-4.2,0-7,.21l-.77,0a1.69,1.69,0,0,1-1.14-.4,1.24,1.24,0,0,1-.47-1,11.86,11.86,0,0,1,.75-2.75c.5-1.43-.41-2.26-.06-2.89.61-1.07,2.71-1.81,3.65-1.81a9,9,0,0,1,1.05.07c2.47.23,4.07.33,4.79.31h1a1.63,1.63,0,0,0,1.85-1.89v-2.27a37,37,0,0,0-.42-4.83,4.42,4.42,0,0,1-.07-.74c0-.84.53-3.16,2-3.81.88-.38,2.1.84,3.27.5a10.85,10.85,0,0,1,2.49-.5c.95,0,1.43.45,1.43,1.36a7.92,7.92,0,0,1-.1.88c0,.35-.07,1.46-.07,3.32v6.09A1.72,1.72,0,0,0,82.08,144h5.43c1.84,0,2.93,0,3.28-.07s.8-.11.91-.11a1.23,1.23,0,0,1,1.37,1.4,11.06,11.06,0,0,1-.6,2.72c-.39,1.29.55,2.33.13,3.1-.56,1.09-2.58,1.64-3.35,1.64l-5.56-.49H82.08q-2.07-.14-1.92,1.92v.56a55.37,55.37,0,0,0,.35,5.74c0,.42.07.77.07,1.05,0,1-.33,2.76-1.75,3.44-.77.35-2.2-.15-3.52.27a12.08,12.08,0,0,1-2.47.63,1.31,1.31,0,0,1-1-.47,1.75,1.75,0,0,1-.4-1.17c0-.21,0-.46,0-.74q.21-2.76.21-7v-2.35Q71.76,152.13,69.73,152.23Z"/></g></g></svg>