<svg xmlns="http://www.w3.org/2000/svg" xmlns:xlink="http://www.w3.org/1999/xlink" viewBox="0 0 285 285"><defs><linearGradient id="linear-gradient" x1="3.59" y1="366.21" x2="99.56" y2="199.98" gradientTransform="translate(176.22 -128.55) rotate(15.12)" gradientUnits="userSpaceOnUse"><stop offset="0.12" stop-color="#4d4d4d"/><stop offset="0.47" stop-color="#515151"/><stop offset="0.83" stop-color="#5d5d5d"/><stop offset="1" stop-color="#666"/></linearGradient></defs><title>AvarageVerts</title><g id="Layer_2" data-name="Layer 2"><g id="Layer_1-2" data-name="Layer 1"><rect width="285" height="285" style="fill:none"/><polyline points="5.04 123.08 52.91 194.51 135.19 270.91 218.11 232.64 278.33 214.24 234.44 120.05 181.44 51.56 85.58 89.59" style="fill:url(#linear-gradient)"/><polyline points="85.22 90.12 4.67 123.61 53.55 195.31" style="fill:none;stroke:#000;stroke-linecap:round;stroke-linejoin:round;stroke-width:4px"/><line x1="85.22" y1="90.12" x2="53.55" y2="195.31" style="fill:none;stroke:#000;stroke-linecap:round;stroke-linejoin:round;stroke-width:4px"/><line x1="85.22" y1="90.12" x2="144.14" y2="140.7" style="fill:none;stroke:#000;stroke-linecap:round;stroke-linejoin:round;stroke-width:4px"/><polyline points="85.22 90.12 180.8 53.1 234.81 121.86" style="fill:none;stroke:#000;stroke-linecap:round;stroke-linejoin:round;stroke-width:4px"/><line x1="85.22" y1="90.12" x2="234.81" y2="121.86" style="fill:none;stroke:#000;stroke-linecap:round;stroke-linejoin:round;stroke-width:4px"/><line x1="144.14" y1="140.7" x2="234.81" y2="121.86" style="fill:none;stroke:#000;stroke-linecap:round;stroke-linejoin:round;stroke-width:4px"/><polyline points="217.74 233.17 277.96 214.77 234.81 121.86" style="fill:none;stroke:#000;stroke-linecap:round;stroke-linejoin:round;stroke-width:4px"/><line x1="234.81" y1="121.86" x2="217.74" y2="233.17" style="fill:none;stroke:#000;stroke-linecap:round;stroke-linejoin:round;stroke-width:4px"/><line x1="144.14" y1="140.7" x2="53.55" y2="195.31" style="fill:none;stroke:#000;stroke-linecap:round;stroke-linejoin:round;stroke-width:4px"/><line x1="144.14" y1="140.7" x2="217.74" y2="233.17" style="fill:none;stroke:#000;stroke-linecap:round;stroke-linejoin:round;stroke-width:4px"/><polyline points="53.55 195.31 134.82 271.44 217.74 233.17" style="fill:none;stroke:#000;stroke-linecap:round;stroke-linejoin:round;stroke-width:4px"/><line x1="53.55" y1="195.31" x2="217.74" y2="233.17" style="fill:none;stroke:#000;stroke-linecap:round;stroke-linejoin:round;stroke-width:4px"/><rect x="213.7" y="229.12" width="8.09" height="8.09" transform="translate(-101.1 222.26) rotate(-45)" style="fill:#ff0"/><rect x="140.09" y="136.65" width="8.09" height="8.09" transform="translate(-57.27 143.13) rotate(-45)" style="fill:#ff0"/><rect x="81.17" y="85.63" width="8.09" height="8.09" transform="translate(-38.45 86.52) rotate(-45)" style="fill:#ff0"/><circle cx="223.55" cy="72" r="45" style="fill:#fff;stroke:red;stroke-miterlimit:10;stroke-width:12px"/><path d="M200.4,64.19h-1.67q-4.11,0-6.81.21l-.76,0a1.67,1.67,0,0,1-1.11-.39,1.19,1.19,0,0,1-.46-.94,11.21,11.21,0,0,1,.74-2.69,20.68,20.68,0,0,1,1.25-3,2.58,2.58,0,0,1,2.25-1.57,8.58,8.58,0,0,1,1,.07c2.42.23,4,.33,4.69.31h.92a1.61,1.61,0,0,0,1.82-1.85V52.11a39.17,39.17,0,0,0-.41-4.72,3.38,3.38,0,0,1-.07-.72c0-.82.7-1.55,2.12-2.19a28.94,28.94,0,0,1,3-1,10.32,10.32,0,0,1,2.43-.5c.94,0,1.4.45,1.4,1.34a7.45,7.45,0,0,1-.1.85c0,.34-.07,1.43-.07,3.25v6a1.69,1.69,0,0,0,1.88,1.85h5.31c1.8,0,2.87,0,3.22-.07a8.26,8.26,0,0,1,.89-.1,1.19,1.19,0,0,1,1.33,1.36,10.74,10.74,0,0,1-.58,2.66,16.86,16.86,0,0,1-1.2,3c-.55,1.08-1.2,1.61-1.95,1.61l-5.44-.48h-1.58c-1.34-.09-2,.54-1.88,1.89v.54c0,1.53.12,3.4.34,5.62a8.56,8.56,0,0,1,.07,1c0,1-.69,1.84-2.08,2.5a30,30,0,0,1-3.07,1.13,12,12,0,0,1-2.41.62,1.29,1.29,0,0,1-1-.46,1.74,1.74,0,0,1-.39-1.15q0-.32,0-.72.21-2.7.21-6.81V66.08C202.36,64.75,201.73,64.13,200.4,64.19Z"/><path d="M217.26,86.53l12.36-28.16c.32-.8.62-1.59.92-2.36.21-.53.42-1.06.65-1.61s.73-1.8,1.58-3.84c.7-1.68,1.24-3,1.6-4A6,6,0,0,1,235.76,44a3.38,3.38,0,0,1,2.24-.63q5.69,0,5.68,2.7a6.09,6.09,0,0,1-.85,2.77q-4,7.71-5.92,12.26L224.59,89.17q-2.57,5.77-3.39,8a34.58,34.58,0,0,1-2.43,5.58,3.36,3.36,0,0,1-2.88,1.33,7.94,7.94,0,0,1-3.83-.85c-1.05-.57-1.57-1.26-1.57-2.06a3.87,3.87,0,0,1,.29-1.48q.28-.7,2.1-4.2C214.84,91.75,216.31,88.75,217.26,86.53Z"/><path d="M239.68,80.75a16.59,16.59,0,0,1,1.81.1,62.66,62.66,0,0,0,6.33.44,20.44,20.44,0,0,0,3.22-.17,14.58,14.58,0,0,1,1.54-.17c.71,0,1.06.53,1.06,1.58a14.55,14.55,0,0,1-.65,3.76,25.1,25.1,0,0,1-1.68,4.38,9.52,9.52,0,0,1-1.38,2.19,1.78,1.78,0,0,1-1.32.58,10.07,10.07,0,0,1-1.68-.17,42.86,42.86,0,0,0-7-.51,29.16,29.16,0,0,0-3.08.14c-.75.06-1.33.1-1.71.1-.94,0-1.41-.55-1.41-1.64a14.6,14.6,0,0,1,.81-3.7,22.25,22.25,0,0,1,1.56-4,8,8,0,0,1,1.66-2.26A3,3,0,0,1,239.68,80.75Z"/><path d="M135.7,51.42c-31.7-.19-47,14.43-52.9,22.11a4.54,4.54,0,0,0,1.57,6.82L87,81.69a4.54,4.54,0,0,0,5.6-1.29c4.25-5.41,15.62-16.1,39.58-16.92a4.53,4.53,0,0,1,4.59,5.27L136,73.87,167.3,62l-26-21.2-1.11,6.81A4.55,4.55,0,0,1,135.7,51.42Z" style="fill:red"/><path d="M247.86,128.85l-14,30.42,4.79-.44a4.55,4.55,0,0,1,4.9,5.23c-3.5,23.17-14,46-20,59.15l0,.07a4.54,4.54,0,0,0,2.27,6l2.66,1.2a4.55,4.55,0,0,0,6-2.26l0,0c6.7-14.63,18.65-40.74,21.57-67.34a4.53,4.53,0,0,1,4.1-4l7.06-.65Z" style="fill:red"/><polygon points="144.14 140.7 144.14 140.7 188.02 99.61 197.04 109.33 144.14 140.7" style="fill:red"/></g></g></svg>