<svg xmlns="http://www.w3.org/2000/svg" viewBox="0 0 285 285"><title>Bone2Boneswitch</title><g id="Layer_2" data-name="Layer 2"><g id="Layer_1-2" data-name="Layer 1"><rect width="285" height="285" style="fill:none"/><circle cx="32.83" cy="146.22" r="24" style="fill:#4800ff"/><path d="M58.52,154.71,39.07,174.17c-1.18,1.17-1.47,2.72-.63,3.31L120.29,235c1.68,1.17,5.09-2.18,4-3.91L73.88,154.8C71.33,150.84,63.9,149.33,58.52,154.71Z" style="fill:#4800ff"/><circle cx="123.94" cy="52.56" r="24" style="fill:#4800ff"/><circle cx="120.65" cy="48.2" r="24" style="fill:#66126b"/><path d="M113.45,73.26,101.88,63.8c-1.18-1.18-15.41-2.84-16-2L33.14,135c-1.18,1.67,2.18,5.08,3.91,4l79.08-50.77C120.09,85.68,118.83,78.64,113.45,73.26Z" style="fill:#4800ff"/><path d="M111.64,73.13,96.55,58.05c-4.47-4.48-10.33-5.55-12.49-2.29L28,140.59c-.85,1.28,1.7,3.81,2.95,2.93l83.11-58C117.17,83.36,116.07,77.56,111.64,73.13Z" style="fill:#66126b"/><circle cx="120.65" cy="48.2" r="10" style="fill:#09000a"/><path d="M55.39,151.53,40.31,166.61c-4.48,4.48-5.55,10.34-2.29,12.5l84.84,56.11c1.28.84,3.8-1.7,2.92-3l-57.94-83.1C65.63,146,59.83,147.1,55.39,151.53Z" style="fill:#66126b"/><circle cx="126.88" cy="235.8" r="24" style="fill:#4800ff"/><circle cx="122.88" cy="230.8" r="24" style="fill:#66126b"/><circle cx="122.88" cy="230.8" r="10" style="fill:#09000a"/><circle cx="30.46" cy="142.52" r="24" style="fill:#66126b"/><circle cx="30.46" cy="142.52" r="10" style="fill:#09000a"/><circle cx="151.98" cy="143.45" r="24" style="fill:#4800ff"/><path d="M177.68,151.94l-19.45,19.45c-1.18,1.18-1.48,2.72-.64,3.31l81.86,57.55c1.67,1.18,5.08-2.18,4-3.91L193,152C190.49,148.06,183.06,146.55,177.68,151.94Z" style="fill:#4800ff"/><circle cx="243.1" cy="49.79" r="24" style="fill:#4800ff"/><circle cx="239.8" cy="45.42" r="24" style="fill:#66126b"/><path d="M232.61,70.48,221,61c-1.18-1.18-15.41-2.84-16-2l-52.75,73.23c-1.17,1.67,2.18,5.09,3.92,4l79.07-50.77C239.25,82.9,238,75.86,232.61,70.48Z" style="fill:#4800ff"/><path d="M230.79,70.35,215.71,55.27c-4.48-4.48-10.34-5.55-12.5-2.29l-56.1,84.84c-.85,1.28,1.69,3.8,2.95,2.92l83.1-57.95C236.33,80.59,235.23,74.79,230.79,70.35Z" style="fill:#66126b"/><circle cx="239.8" cy="45.42" r="10" style="fill:#09000a"/><path d="M174.55,148.75l-15.08,15.08c-4.48,4.48-5.55,10.34-2.29,12.5L242,232.44c1.28.85,3.81-1.7,2.93-3L187,146.38C184.78,143.21,179,144.32,174.55,148.75Z" style="fill:#66126b"/><circle cx="246.04" cy="233.02" r="24" style="fill:#4800ff"/><circle cx="242.04" cy="228.02" r="24" style="fill:#66126b"/><circle cx="242.04" cy="228.02" r="10" style="fill:#09000a"/><circle cx="149.62" cy="139.74" r="24" style="fill:#66126b"/><circle cx="149.62" cy="139.74" r="10" style="fill:#09000a"/><path d="M155.62,121.74l-19.85-27-2.87,6.54a4.21,4.21,0,0,1-5,2.38,114.34,114.34,0,0,0-91.39,13.5,4.21,4.21,0,0,0-1,6.12l2.19,2.84a4.21,4.21,0,0,0,5.58,1,102.42,102.42,0,0,1,23.19-10.66,100.82,100.82,0,0,1,55.29-2,4.21,4.21,0,0,1,2.83,5.79l-2.27,5.18Z" style="fill:red"/><path d="M34.63,155.79l19.85,27,2.86-6.54a4.22,4.22,0,0,1,5-2.38,114.34,114.34,0,0,0,91.39-13.5,4.21,4.21,0,0,0,1-6.11l-2.19-2.85a4.22,4.22,0,0,0-5.59-1,101.47,101.47,0,0,1-23.19,10.67,100.91,100.91,0,0,1-55.29,2,4.22,4.22,0,0,1-2.83-5.79l2.27-5.18Z" style="fill:red"/></g></g></svg>