<svg xmlns="http://www.w3.org/2000/svg" xmlns:xlink="http://www.w3.org/1999/xlink" viewBox="0 0 285 285"><defs><radialGradient id="radial-gradient" cx="161.55" cy="219.45" r="24" gradientUnits="userSpaceOnUse"><stop offset="0.77" stop-color="#662d91"/><stop offset="0.8" stop-color="#702c91"/><stop offset="0.87" stop-color="#832990"/><stop offset="0.93" stop-color="#8f288f"/><stop offset="1" stop-color="#93278f"/></radialGradient><radialGradient id="radial-gradient-2" cx="161.55" cy="219.45" r="10" gradientUnits="userSpaceOnUse"><stop offset="0" stop-color="#93278f"/><stop offset="0.38" stop-color="#91278f"/><stop offset="0.51" stop-color="#8a288f"/><stop offset="0.61" stop-color="#7f2a90"/><stop offset="0.69" stop-color="#6e2c91"/><stop offset="0.71" stop-color="#662d91"/></radialGradient></defs><title>BoneDelete</title><g id="Layer_2" data-name="Layer 2"><g id="Layer_1-2" data-name="Layer 1"><rect width="285" height="285" style="fill:none"/><circle cx="71.5" cy="134.87" r="24" style="fill:#4800ff"/><path d="M97.19,143.36,77.74,162.81c-1.18,1.18-1.47,2.73-.63,3.32L159,223.68c1.68,1.17,5.09-2.18,4-3.91l-50.39-76.32C110,139.48,102.57,138,97.19,143.36Z" style="fill:#4800ff"/><circle cx="162.61" cy="41.21" r="24" style="fill:#4800ff"/><circle cx="159.32" cy="36.85" r="24" style="fill:#66126b"/><path d="M152.12,61.91l-11.57-9.46c-1.18-1.18-15.41-2.84-16-2L71.81,123.68c-1.18,1.67,2.18,5.08,3.91,4L154.8,76.88C158.76,74.33,157.5,67.29,152.12,61.91Z" style="fill:#4800ff"/><path d="M150.31,61.78,135.22,46.7c-4.47-4.48-10.33-5.55-12.49-2.29L66.62,129.24c-.85,1.28,1.7,3.81,3,2.93l83.1-57.95C155.85,72,154.74,66.21,150.31,61.78Z" style="fill:#66126b"/><circle cx="159.32" cy="36.85" r="10" style="fill:#09000a"/><path d="M94.07,140.18,79,155.26c-4.48,4.48-5.55,10.34-2.29,12.5l84.84,56.11c1.28.84,3.8-1.7,2.92-3l-57.94-83.1C104.3,134.64,98.5,135.74,94.07,140.18Z" style="fill:#66126b"/><circle cx="165.55" cy="224.45" r="24" style="fill:#4800ff"/><circle cx="161.55" cy="219.45" r="24" style="fill:url(#radial-gradient)"/><circle cx="161.55" cy="219.45" r="10" style="fill:url(#radial-gradient-2)"/><circle cx="69.13" cy="131.17" r="24" style="fill:#66126b"/><circle cx="69.13" cy="131.17" r="10" style="fill:#09000a"/><path d="M54.33,154h134.2a0,0,0,0,1,0,0V257.2a12.36,12.36,0,0,1-12.36,12.36H66.69A12.36,12.36,0,0,1,54.33,257.2V154A0,0,0,0,1,54.33,154Z" style="fill:#666;stroke:#000;stroke-miterlimit:10;stroke-width:4px"/><path d="M232.66,232.37l8.11-3.17a5,5,0,0,0,2.85-6.52l-31.77-81.27a5,5,0,0,0-6.52-2.85l-8.11,3.17a5,5,0,0,1-6.52-2.86l-7-18a5,5,0,0,0-6.52-2.86l-10.79,4.22a5,5,0,0,0-2.85,6.52l53.16,136a5,5,0,0,0,6.52,2.85L234,263.38a5,5,0,0,0,2.85-6.52l-7-18A5,5,0,0,1,232.66,232.37Z" style="fill:#666;stroke:#000;stroke-miterlimit:10;stroke-width:4px"/><rect x="135.96" y="160.25" width="18.56" height="90.23" rx="7.78" ry="7.78"/><rect x="90.01" y="160.25" width="18.56" height="90.23" rx="7.78" ry="7.78"/></g></g></svg>