<svg xmlns="http://www.w3.org/2000/svg" xmlns:xlink="http://www.w3.org/1999/xlink" viewBox="0 0 285 285"><defs><linearGradient id="linear-gradient" x1="30.92" y1="50.92" x2="92.83" y2="-56.31" gradientTransform="translate(137.09 126.86) rotate(15.12)" gradientUnits="userSpaceOnUse"><stop offset="0.12" stop-color="#4d4d4d"/><stop offset="0.47" stop-color="#515151"/><stop offset="0.83" stop-color="#5d5d5d"/><stop offset="1" stop-color="#666"/></linearGradient></defs><title>bone2verts</title><g id="Layer_2" data-name="Layer 2"><g id="Layer_1-2" data-name="Layer 1"><rect width="285" height="285" style="fill:none"/><circle cx="32.83" cy="146.22" r="24" style="fill:#4800ff"/><path d="M58.52,154.71,39.07,174.17c-1.18,1.17-1.47,2.72-.63,3.31L120.29,235c1.68,1.17,5.09-2.18,4-3.91L73.88,154.8C71.33,150.84,63.9,149.33,58.52,154.71Z" style="fill:#4800ff"/><circle cx="123.94" cy="52.56" r="24" style="fill:#4800ff"/><circle cx="120.65" cy="48.2" r="24" style="fill:#66126b"/><path d="M113.45,73.26,101.88,63.8c-1.18-1.18-15.41-2.84-16-2L33.14,135c-1.18,1.67,2.18,5.08,3.91,4l79.08-50.77C120.09,85.68,118.83,78.64,113.45,73.26Z" style="fill:#4800ff"/><path d="M111.64,73.13,96.55,58.05c-4.47-4.48-10.33-5.55-12.49-2.29L28,140.59c-.85,1.28,1.7,3.81,2.95,2.93l83.11-58C117.17,83.36,116.07,77.56,111.64,73.13Z" style="fill:#66126b"/><circle cx="120.65" cy="48.2" r="10" style="fill:#09000a"/><path d="M55.39,151.53,40.31,166.61c-4.48,4.48-5.55,10.34-2.29,12.5l84.84,56.11c1.28.84,3.8-1.7,2.92-3l-57.94-83.1C65.63,146,59.83,147.1,55.39,151.53Z" style="fill:#66126b"/><circle cx="126.88" cy="235.8" r="24" style="fill:#4800ff"/><circle cx="122.88" cy="230.8" r="24" style="fill:#66126b"/><circle cx="122.88" cy="230.8" r="10" style="fill:#09000a"/><circle cx="30.46" cy="142.52" r="24" style="fill:#66126b"/><circle cx="30.46" cy="142.52" r="10" style="fill:#09000a"/><polyline points="102.6 117.73 133.48 163.81 186.56 213.09 240.05 188.41 278.9 176.54 250.59 115.78 216.4 71.6 154.56 96.13" style="fill:url(#linear-gradient)"/><polyline points="154.32 96.47 102.36 118.07 133.9 164.33" style="fill:none;stroke:#000;stroke-linecap:round;stroke-linejoin:round;stroke-width:4px"/><line x1="154.32" y1="96.47" x2="133.9" y2="164.33" style="fill:none;stroke:#000;stroke-linecap:round;stroke-linejoin:round;stroke-width:4px"/><line x1="154.32" y1="96.47" x2="192.33" y2="129.1" style="fill:none;stroke:#000;stroke-linecap:round;stroke-linejoin:round;stroke-width:4px"/><polyline points="154.32 96.47 215.98 72.59 250.82 116.95" style="fill:none;stroke:#000;stroke-linecap:round;stroke-linejoin:round;stroke-width:4px"/><line x1="154.32" y1="96.47" x2="250.82" y2="116.95" style="fill:none;stroke:#000;stroke-linecap:round;stroke-linejoin:round;stroke-width:4px"/><line x1="192.33" y1="129.1" x2="250.82" y2="116.95" style="fill:none;stroke:#000;stroke-linecap:round;stroke-linejoin:round;stroke-width:4px"/><polyline points="239.81 188.75 278.66 176.88 250.82 116.95" style="fill:none;stroke:#000;stroke-linecap:round;stroke-linejoin:round;stroke-width:4px"/><line x1="250.82" y1="116.95" x2="239.81" y2="188.75" style="fill:none;stroke:#000;stroke-linecap:round;stroke-linejoin:round;stroke-width:4px"/><line x1="192.33" y1="129.1" x2="133.9" y2="164.33" style="fill:none;stroke:#000;stroke-linecap:round;stroke-linejoin:round;stroke-width:4px"/><line x1="192.33" y1="129.1" x2="239.81" y2="188.75" style="fill:none;stroke:#000;stroke-linecap:round;stroke-linejoin:round;stroke-width:4px"/><polyline points="133.9 164.33 186.32 213.43 239.81 188.75" style="fill:none;stroke:#000;stroke-linecap:round;stroke-linejoin:round;stroke-width:4px"/><line x1="133.9" y1="164.33" x2="239.81" y2="188.75" style="fill:none;stroke:#000;stroke-linecap:round;stroke-linejoin:round;stroke-width:4px"/><rect x="129.85" y="160.28" width="8.09" height="8.09" transform="translate(-76.98 142.81) rotate(-45)" style="fill:#ff0"/><rect x="182.81" y="209.39" width="8.09" height="8.09" transform="translate(-96.19 194.64) rotate(-45)" style="fill:#ff0"/><rect x="188.29" y="126.35" width="8.09" height="8.09" transform="translate(-35.87 174.19) rotate(-45)" style="fill:#ff0"/><rect x="212.03" y="68.55" width="8.09" height="8.09" transform="translate(11.96 174.05) rotate(-45)" style="fill:#ff0"/><path d="M166.25,117.18l-19.85-27-2.87,6.55a4.22,4.22,0,0,1-5,2.37,114.34,114.34,0,0,0-91.39,13.5,4.22,4.22,0,0,0-1,6.12l2.19,2.84a4.19,4.19,0,0,0,5.58,1A102.42,102.42,0,0,1,77.1,111.91a100.82,100.82,0,0,1,55.29-2,4.21,4.21,0,0,1,2.83,5.79L133,120.88Z" style="fill:red"/></g></g></svg>