<svg xmlns="http://www.w3.org/2000/svg" xmlns:xlink="http://www.w3.org/1999/xlink" viewBox="0 0 285 285"><defs><linearGradient id="linear-gradient" x1="-89.87" y1="-63.76" x2="-27.96" y2="-170.99" gradientTransform="translate(127.43 208.11) rotate(15.12)" gradientUnits="userSpaceOnUse"><stop offset="0.12" stop-color="#4d4d4d"/><stop offset="0.47" stop-color="#515151"/><stop offset="0.83" stop-color="#5d5d5d"/><stop offset="1" stop-color="#666"/></linearGradient><linearGradient id="linear-gradient-2" x1="32.14" y1="22.83" x2="94.05" y2="-84.4" xlink:href="#linear-gradient"/></defs><title>copy2Mult</title><g id="Layer_2" data-name="Layer 2"><g id="Layer_1-2" data-name="Layer 1"><rect width="285" height="285" style="fill:none"/><polyline points="6.24 56.78 37.12 102.86 90.19 152.14 143.69 127.46 182.53 115.59 154.22 54.83 120.03 10.65 58.2 35.18" style="fill:url(#linear-gradient)"/><polyline points="57.96 35.52 6 57.13 37.53 103.38" style="fill:none;stroke:#000;stroke-linecap:round;stroke-linejoin:round;stroke-width:4px"/><line x1="57.96" y1="35.52" x2="37.53" y2="103.38" style="fill:none;stroke:#000;stroke-linecap:round;stroke-linejoin:round;stroke-width:4px"/><line x1="57.96" y1="35.52" x2="95.97" y2="68.15" style="fill:none;stroke:#000;stroke-linecap:round;stroke-linejoin:round;stroke-width:4px"/><polyline points="57.96 35.52 119.62 11.64 154.46 56" style="fill:none;stroke:#000;stroke-linecap:round;stroke-linejoin:round;stroke-width:4px"/><line x1="57.96" y1="35.52" x2="154.46" y2="56" style="fill:none;stroke:#000;stroke-linecap:round;stroke-linejoin:round;stroke-width:4px"/><line x1="95.97" y1="68.15" x2="154.46" y2="56" style="fill:none;stroke:#000;stroke-linecap:round;stroke-linejoin:round;stroke-width:4px"/><polyline points="143.45 127.8 182.29 115.93 154.46 56" style="fill:none;stroke:#000;stroke-linecap:round;stroke-linejoin:round;stroke-width:4px"/><line x1="154.46" y1="56" x2="143.45" y2="127.8" style="fill:none;stroke:#000;stroke-linecap:round;stroke-linejoin:round;stroke-width:4px"/><line x1="95.97" y1="68.15" x2="37.53" y2="103.38" style="fill:none;stroke:#000;stroke-linecap:round;stroke-linejoin:round;stroke-width:4px"/><line x1="95.97" y1="68.15" x2="143.45" y2="127.8" style="fill:none;stroke:#000;stroke-linecap:round;stroke-linejoin:round;stroke-width:4px"/><polyline points="37.53 103.38 89.96 152.49 143.45 127.8" style="fill:none;stroke:#000;stroke-linecap:round;stroke-linejoin:round;stroke-width:4px"/><line x1="37.53" y1="103.38" x2="143.45" y2="127.8" style="fill:none;stroke:#000;stroke-linecap:round;stroke-linejoin:round;stroke-width:4px"/><rect x="3.95" y="53.1" width="8.09" height="8.09" transform="translate(-38.06 22.39) rotate(-45)" style="fill:#ff0"/><polyline points="101.45 172.19 132.33 218.27 185.4 267.55 238.9 242.87 277.74 231 249.43 170.24 215.24 126.06 153.41 150.59" style="fill:url(#linear-gradient-2)"/><polyline points="153.17 150.93 101.21 172.53 132.74 218.79" style="fill:none;stroke:#000;stroke-linecap:round;stroke-linejoin:round;stroke-width:4px"/><line x1="153.17" y1="150.93" x2="132.74" y2="218.79" style="fill:none;stroke:#000;stroke-linecap:round;stroke-linejoin:round;stroke-width:4px"/><line x1="153.17" y1="150.93" x2="191.18" y2="183.56" style="fill:none;stroke:#000;stroke-linecap:round;stroke-linejoin:round;stroke-width:4px"/><polyline points="153.17 150.93 214.83 127.05 249.67 171.41" style="fill:none;stroke:#000;stroke-linecap:round;stroke-linejoin:round;stroke-width:4px"/><line x1="153.17" y1="150.93" x2="249.67" y2="171.41" style="fill:none;stroke:#000;stroke-linecap:round;stroke-linejoin:round;stroke-width:4px"/><line x1="191.18" y1="183.56" x2="249.67" y2="171.41" style="fill:none;stroke:#000;stroke-linecap:round;stroke-linejoin:round;stroke-width:4px"/><polyline points="238.66 243.21 277.5 231.34 249.67 171.41" style="fill:none;stroke:#000;stroke-linecap:round;stroke-linejoin:round;stroke-width:4px"/><line x1="249.67" y1="171.41" x2="238.66" y2="243.21" style="fill:none;stroke:#000;stroke-linecap:round;stroke-linejoin:round;stroke-width:4px"/><line x1="191.18" y1="183.56" x2="132.74" y2="218.79" style="fill:none;stroke:#000;stroke-linecap:round;stroke-linejoin:round;stroke-width:4px"/><line x1="191.18" y1="183.56" x2="238.66" y2="243.21" style="fill:none;stroke:#000;stroke-linecap:round;stroke-linejoin:round;stroke-width:4px"/><polyline points="132.74 218.79 185.17 267.89 238.66 243.21" style="fill:none;stroke:#000;stroke-linecap:round;stroke-linejoin:round;stroke-width:4px"/><line x1="132.74" y1="218.79" x2="238.66" y2="243.21" style="fill:none;stroke:#000;stroke-linecap:round;stroke-linejoin:round;stroke-width:4px"/><rect x="128.7" y="214.75" width="8.09" height="8.09" transform="translate(-115.83 157.94) rotate(-45)" style="fill:#ff0"/><rect x="181.65" y="263.85" width="8.09" height="8.09" transform="translate(-135.04 209.77) rotate(-45)" style="fill:#ff0"/><rect x="187.13" y="180.82" width="8.09" height="8.09" transform="translate(-74.72 189.33) rotate(-45)" style="fill:#ff0"/><rect x="210.87" y="123.01" width="8.09" height="8.09" transform="translate(-26.89 189.18) rotate(-45)" style="fill:#ff0"/><path d="M185.7,147.83,183,114.44l-5.88,4a4.21,4.21,0,0,1-5.48-.6A114.32,114.32,0,0,0,86.86,81.27a4.21,4.21,0,0,0-4.1,4.65l.36,3.58a4.22,4.22,0,0,0,4.23,3.79,102,102,0,0,1,25.32,3.13,100.94,100.94,0,0,1,48.07,27.41,4.22,4.22,0,0,1-.65,6.42l-4.65,3.2Z" style="fill:red"/><rect x="149.54" y="147.4" width="8.09" height="8.09" transform="translate(-62.11 152.96) rotate(-45)" style="fill:#ff0"/><rect x="273.7" y="226.95" width="8.09" height="8.09" transform="translate(-81.99 264.05) rotate(-45)" style="fill:#ff0"/><rect x="234.61" y="237.25" width="8.09" height="8.09" transform="translate(-100.72 239.43) rotate(-45)" style="fill:#ff0"/><rect x="245.62" y="166.7" width="8.09" height="8.09" transform="translate(-47.61 226.55) rotate(-45)" style="fill:#ff0"/></g></g></svg>