<svg xmlns="http://www.w3.org/2000/svg" viewBox="0 0 285.63 285"><title>delbind</title><g id="Layer_2" data-name="Layer 2"><g id="Layer_1-2" data-name="Layer 1"><rect width="285" height="285" style="fill:none"/><path d="M72.14,49.92H69.6l-.12,0h-.29l-.12,0h0a12.81,12.81,0,0,0-7.26,4.86L65,57.51a8.72,8.72,0,0,1,7.09-3.59v-4ZM63.74,65.35l-3.82,1.2a12.78,12.78,0,0,0,2.54,4.55h0l0,0h0l0,0h0l0,0h0l0,0h0l0,0h0l0,0h0l0,0h0l0,0h0l0,0h0l0,0h0l0,0h.06l0,0h0l0,0h.45l0,0h.06l0,0h0l0,0h0l0,0h.06l0,0h0l0,0h0l0,0h0l0,0h0l0,0h0l0,0h0l0,0h0l0,0h0l0,0h0l0,0h0l0,0h0l0,0h0l0,0h0l0,0h0l0,0h0l0,0h0l.08.06h0a12.79,12.79,0,0,0,2.66,1.55h0l.05,0h0l0,0h0l.25.1h0l0,0h0l0,0h.11l0,0H68L69.3,71a8.83,8.83,0,0,1-5.55-5.69Zm17.19-2.43a8.83,8.83,0,0,1-3.76,7l2.29,3.28.19-.14h0l0,0h0l0,0h0l0,0h0l0,0h0l0,0h0l0,0h0l0,0h0l0,0h0l0,0h.77l0,0h0l0,0h0l0,0h0l0,0h0l0,0h0l0,0h0l0,0h0l0,0h0a12.8,12.8,0,0,0,3.1-4.95h0l0-.06h0v0h0l0-.06h0v0h0v0h0v0h0v0h0v0h0v0h.15v0h0v0h0v0h0v0h0v0h0v0h0v0h0v0h0v0h0A12.83,12.83,0,0,0,84.93,63l-4-.09Zm-8.79-13v4a8.71,8.71,0,0,1,5.37,1.83L80,52.58a12.76,12.76,0,0,0-4-2.08h0l-.09,0H72.14Z"/><path d="M81.27,75.78l-1,1.49L78.86,79l.05,0H79l9.69,6.79L91,82.59l-9.71-6.81Zm19.54,13.69-2.3,3.28,9.83,6.89,2.3-3.28-9.83-6.89Zm12.9,19.68-3.87,1a12.7,12.7,0,0,0,1.1,2.82h0l0,0h0l0,0h0l0,0h0l0,0h0l0,0h0v0h0v0h0v0h0v0h0v0h0v0h.07v0h.47v0h.08v0H112v0h.09v0h0v0h.05v0h0v0h.09v0h0v0h.05v0h0v0h0v0h0v0h0v0h0v0h0v0h0v0h0v0h.1v0H113l0,0h.1l0,0h0l0,0h.1l0,0h2.51l0,0h0l0,0h.06l0,0h0l0,0h0l0,0h0l0,0h0a12.74,12.74,0,0,0,1.33.63l1.49-3.71a8.82,8.82,0,0,1-5.25-6ZM131,107.64a8.83,8.83,0,0,1-4.13,6.79l2.12,3.39h0l0,0h0l0,0h0l0,0h0l0,0h0l0,0h1.25l0,0h.19l0,0h0l0,0h0l0,0h0l0,0h0l0,0h0l0,0h0l0,0h0l0,0h0l0,0h0l0,0h0l0,0h0l0,0h0l0,0h0l0,0h0l0,0h0l0,0h0l0,0h0l0,0h0l0,0h0l0,0h0l0,0h0l0,0h0l0,0h0l0,0h0l0,0h0l0,0h0l0,0h0l0,0h0l0,0h0l0,0h0l0,0h0l0,0h0l.07-.09h0l0,0h0l0,0h0a12.74,12.74,0,0,0,2.88-7.16l-4-.3Zm-8.77-13.47h-.93q-.55,0-1.09.13h-.39l-.48.1.9,3.9a8.81,8.81,0,0,1,7.72,1.9l2.61-3A12.83,12.83,0,0,0,128.84,96h0l-.06,0h0l0,0h0l0,0H128l0,0h0l0,0h0l0,0h0l0,0h0l-.06,0h0l-.06,0h0l-.08,0h0L127,95.1h0a12.71,12.71,0,0,0-1.61-.53h0l-.16,0h0l-.09,0H125l-.09,0h0l-.08,0h-2.64ZM104.9,78.28l-3.34,2.2,6.6,10,3.34-2.2-.54-.82h0l0,0h0l-.06-.09h0l0-.07h0l-.1-.16h0l-5.79-8.8Zm-12-16.09h-.2a5.43,5.43,0,0,0-2,.52h0l-.17.08h0l-.35.19h0a8.26,8.26,0,0,0-.89.59h0l-.14.1h-.05l-.13.1h-.05l-.1.09h-.1l-.06.05H88.5l0,0h-.15l-.21.21h0l-.11.11h0l-.06.06h0l-.07.06h0l0,0h0l0,0h0l0,0h0l0,0h0l0,0h0l0,0h-.09l-.1.09h0l0,0h0l-.11.11h0l0,0h0l-3.83,3.81L86.3,72l4.83-4.81a4.5,4.5,0,0,1,1.15-.85L95,70.45l3.34-2.2-3.27-5h0l0-.07h0l-2.11,1.39h0L95,63.2a2.4,2.4,0,0,0-2.11-1Z"/><path d="M52.63,63.48a2.43,2.43,0,0,0-2.13,1h0l0,0h-.14l-5.15,7.67,3.32,2.23,4.68-7a4.47,4.47,0,0,1,1.19.85l2.42,2.34L59.59,68l-2.42-2.34H57a8.79,8.79,0,0,0-1.39-1h-.09l-.1-.06H55l-.08,0h-.13a5.74,5.74,0,0,0-1.68-.48h-.32l-.09,2.46-.05,0V63.48ZM38.5,82.38l-3.65,5.45h0l-.07.11h0l0,0h0l-2.89,4.3,3.32,2.23,6.69-10L38.5,82.38ZM22.32,95.56a12.79,12.79,0,0,0-9.8,6.15l3.43,2.07a8.83,8.83,0,0,1,6.73-4.23l-.36-4ZM15.37,111.7l-3.69,1.54A12.84,12.84,0,0,0,16.42,119h0l0,0h0l0,0h0l0,0h0l0,0h0l0,0h.68l0,0h0l0,0h0l0,0h0a12.71,12.71,0,0,0,3.06,1.17l.94-3.89a8.83,8.83,0,0,1-6-5.16Zm20.89-4.26-4,.27q0,.21,0,.42a8.77,8.77,0,0,1-3.12,6.9l2.58,3.06a12.8,12.8,0,0,0,4.17-6.69h0l0-.14h0l0-.08h0l.05-.23h0v-.07h0v-.06h0v-.07h0v0h0v0h0v0h0v0h0v0h0v-.06h0v0h0v0h0v0h0v0h0v0h0v0h0v0h0v0h0v0h0v0h0v0h0v0h0v0h0v0h0v0h0v0h0v0h0v0h0v0h0v0h0q0-.14,0-.27h0v0h0v-.14Zm11.39-19-9.89,6.8L40,98.5l9.89-6.8-2.27-3.3Zm20-10.57L65.2,78l1.48,2.16h.65v0h0v0h0v0h0a2.91,2.91,0,0,0,.27-1.55Zm-.18-1-2.55.74-.5-.73h0l-6.89,4.74,2.27,3.3,6.45-4.43h0l.16-.11h.16l0,0h0l0,0h0l0,0h0L65.2,78h0l2.45-.18a4.72,4.72,0,0,0-.18-1Z"/><path d="M56,132.77a2.43,2.43,0,0,0-2.13,1h0l0,0h0l0,0h0l-5.25,7.83,3.32,2.23,4.68-7a4.47,4.47,0,0,1,1.19.85l2.42,2.34,2.78-2.88-2.27-2.19h0l0,0h0l0,0h0l0,0h0l0,0h-.2l-.08-.07h-.12a6.83,6.83,0,0,0-4-1.78L56,135.24l-.05,0v-2.43Zm-14.13,18.9-6.69,10,3.32,2.23,6.69-10-3.32-2.23ZM25.67,164.85a12.84,12.84,0,0,0-1.29.18H22.46l0,0h-.33l0,0h0l0,0h0l0,0h0l0,0h0l0,0h0l0,0h0l-.05,0h0l0,0h0l-.05,0h0l0,0h0l0,0h0l0,0h0l0,0h0l0,0h0l-.05,0h0l0,0h0l0,0h0l0,0h0l0,0h0l0,0h0l0,0h0l0,0h0l0,0h0l0,0h-.07l0,0h0l0,0h0l0,0h0l0,0h0l0,0h0l0,0h-.31l0,0h0l0,0h0l0,0H18.58l0,0h0l0,0h0l0,0h0l0,0h0l0,0h0l0,0h0l0,0h0l-.12.11h0l0,0h0A12.86,12.86,0,0,0,15.88,171l3.43,2.07A8.83,8.83,0,0,1,26,168.84l-.36-4ZM18.72,181,15,182.53a12.83,12.83,0,0,0,8.8,7.5l.94-3.89a8.83,8.83,0,0,1-6-5.16Zm20.88-4.26-4,.27q0,.21,0,.42a8.77,8.77,0,0,1-3.12,6.9l2.58,3.06a12.84,12.84,0,0,0,3.58-4.91h0l0-.07h0l0-.07h0l0-.07h0l0-.07h0l0-.07h0l0-.05h0l0-.06h0l0-.06h0l0-.05h0l0-.05h0l0,0h0l0-.05h0v0h0v0h0v0h0v0h0v0h0v0h0v0h0v0h0v0h0v0h0v0h0v0h0v0h0v0h0v0h0v0h0v0h0v0h0v0h0v0h0v0h0v0h0v0h0v0h0v0h.15q0-.2,0-.4h0ZM51,157.7l-9.89,6.8,2.27,3.3,6.76-4.64h0l.1-.07h0l.05,0h0l0,0,0,0h0l2.88-2L51,157.7Zm20-10.57-2.45.18L70,149.46h.23l0,0h0l0,0h0l0,0h0l0,0h0a2.4,2.4,0,0,0,.65-1.56h0v0h0v0h0v0h0q0-.14,0-.29Zm-.18-1-2.55.74-.5-.73h0l-6.89,4.74,2.27,3.3L70,149.49h0l-1.48-2.16h0l2.45-.18q0-.14,0-.27h0v0h0v-.08h0q0-.15-.07-.3h0Z"/><path d="M78.56,75.91h-.77L76.5,76h0L74.68,76h0l-2.09.06h0l-2.09.06h0l-1.82.06h0l-1.29,0h-.49l-.34,0,.27,4H67l11.37-.35h.16v-4ZM66.33,84.07l-3.91.82,2.47,11.74,3.91-.82L66.33,84.07Zm4.93,23.49-3.91.82,2.06,9.82h-.06a12.75,12.75,0,0,0-1.72.81l2,3.48a8.78,8.78,0,0,1,1.22-.57l2.7-1,2.78.77A8.69,8.69,0,0,1,80,123.75,8.78,8.78,0,0,1,81.7,126l3.53-1.89q-.19-.36-.41-.7h0l0,0h0l0,0h0l0,0h0v0h0v0h0v0h-.14v0h0v0h0v0h0l0,0h0l0,0h0l0,0h0A12.84,12.84,0,0,0,82.87,121h0l0,0h0l0,0h-.12a12.74,12.74,0,0,0-5.31-3h0l.28-1.64-3.94-.68-.28,1.64-.07.39,0-.18-2.06-9.82Zm-10,21.11a12.86,12.86,0,0,0-.09,1.31h0s0,.08,0,.11h0v0h0v0h0v0h0v0h0v0h0v0h0v0h0v0h0v0h0v0h0v0h0v0h0v0h0v0h0v0h0a12.75,12.75,0,0,0,2.58,6.78h0l.12.15h0l0,0h0l0,0h0l0,0h0l0,0h0l0,0h0l0,0h0l0,0h0l0,0h0l0,0h0l0,0h0l0,0h0l0,0h0l0,0h0l0,0h0l0,0h0l0,0h.16l0,0h.07l0,0h0l0,0h.4l2.73-2.92a8.72,8.72,0,0,1-2.72-7.46l-4-.47ZM81.88,134a8.82,8.82,0,0,1-6.3,4.85l.74,3.93h.4a12.76,12.76,0,0,0,2.49-.83H80a12.77,12.77,0,0,0,3.06-2.31h0l0,0h0l0,0h0l0,0h.33l0,0h.24l0,0h.15l0,0h0l0,0h0l0,0h0l0,0h0l0,0h0l0,0h0l0,0h0l0,0h0a12.73,12.73,0,0,0,1.39-2.26L81.88,134ZM77.79,91.87l-2,11.83,3.94.68,2-11.83-3.94-.68ZM83,77.28l-1.58,1.88L84,79.6h0v0h0v0h0v0h0v0h0v0h0a2.56,2.56,0,0,0-1-2Zm-4.4-1.36v4a3.3,3.3,0,0,1,1.83.42h0l.14-.17,3.24.56L84,79.6l-2.58-.44h0L83,77.28a5.75,5.75,0,0,0-2.26-1.1h0l-.15,0h0l-.13,0H78.56Z"/><path d="M93.19,135.29a7.3,7.3,0,0,0-4.26,1.65l0,0h0l-5.77,4.49,2.45,3.16,5.77-4.49a4.54,4.54,0,0,1,1.25-.71l1.94,3.92,3.58-1.77-2.42-4.88h0v0h0l-2.35,1.16h0l-.12.06v-2.52ZM80.78,147.64l-2.68,3,8.91,8,2.68-3-8.91-8Zm17.83,16.07-2.68,3,8.91,8,2.68-3-8.91-8Zm10.09,21.11-3.94.67a12.71,12.71,0,0,0,.62,2.32h0l0,.05h0l0,.05h0l0,0h0l0,0h0v0h0v0h0v0h0v0h0v0h0v0h0v0h0v0h0v0h0v0h0v0h0v0h0v0h0v0h0v0h0v0h.06v0h0v0H106v0h.17v0h.26v0h.28v0h1.2l0,0H108l0,0h0l0,0h.06l0,0h0l0,0h0l0,0h0l0,0h0l0,0h0l0,0h0l0,0h0l0,0h0l0,0h0l0,0h0l0,0h0l0,0h0l0,0h0a12.77,12.77,0,0,0,3,2.09l1.79-3.58a8.83,8.83,0,0,1-4.73-6.39Zm17.36-.07a8.83,8.83,0,0,1-4.68,6.43l1.83,3.56a12.86,12.86,0,0,0,2.2-1.43h0l0,0h0l0,0h0l0,0h0l0,0h0l0,0h.21l0,0h.65l0,0h0l0,0h0l0,0h.06l0,0h0l0,0h0l0,0h0l0,0h0l0,0h0l0,0h0l0,0h0l0,0h0l0,0h0l.05-.06h0l.08-.09h0a12.73,12.73,0,0,0,3-6.27h0v0h0v-.07l-3.95-.64Zm-8.69-14.2H117a12.72,12.72,0,0,0-1.5.13l.58,4a8.75,8.75,0,0,1,1.26-.09,8.88,8.88,0,0,1,1.08.07,8.7,8.7,0,0,1,5.19,2.56l2.85-2.8-.27-.27h0l-.08-.07h0l0,0h0l0,0h0l0,0h0l0,0h0l0,0h0l0,0h-.52l0,0h0l0,0h-.06l0,0h0l0,0h0l0,0h0a12.73,12.73,0,0,0-5.88-2.48h-.32a12.88,12.88,0,0,0-1.57-.1Zm-13.92-18.23-3.58,1.77,5.32,10.75,3.58-1.77-5.32-10.75Zm-10-17-.17,2.45,2.35-1.16h-.08v0h0v0h0v0h0l0,0h0v0h0l0,0h0l0,0h0l0,0h0l0,0h0l0,0h0l0,0h0l0,0h0l0,0h0l0,0h0l0,0h0l0,0h0l0,0h0l0,0h0l0,0h0l0,0h0a3,3,0,0,0-1.32-.38Z"/><path d="M200.17,198.63l-9.85-10.87c-.6-.66-1.41-.86-1.75-.43l-32.79,42.08c-.67.86,1,2.77,2,2.22l43.44-25C203.38,205.42,202.9,201.63,200.17,198.63Z" style="fill:#4800ff"/><path d="M200.89,197l-7.64-8.43c-2.27-2.5-5.36-3.23-6.6-1.55l-32.1,43.7c-.48.66.8,2.07,1.5,1.64l45.77-28.68C203.57,202.59,203.13,199.47,200.89,197Z" style="fill:#66126b"/><circle cx="157.43" cy="233.06" r="12.8" style="fill:#4800ff"/><circle cx="155.3" cy="230.39" r="12.8" style="fill:#66126b"/><circle cx="155.3" cy="230.39" r="5.33" style="fill:#09000a"/><path d="M194,118.32l9-11.6c.54-.7.6-1.54.11-1.8L155.9,80c-1-.51-2.54,1.5-1.84,2.34l32.19,38.4C187.86,122.67,191.5,121.53,194,118.32Z" style="fill:#4800ff"/><path d="M218.26,116l-6.66-13.07c-.4-.79-.3-1.62.22-1.78l51-15.69c1-.32,2.22,1.94,1.37,2.64L225.4,119.81C223.46,121.4,220.1,119.6,218.26,116Z" style="fill:#4800ff"/><circle cx="206.88" cy="116.63" r="12.8" style="fill:#4800ff"/><circle cx="204.75" cy="113.96" r="12.8" style="fill:#66126b"/><path d="M211.49,128.38H196.82c-.89,0-1.58.47-1.49,1l9.16,52.56c.19,1.07,2.74,1.1,3,0l10.67-49C218.67,130.56,215.54,128.38,211.49,128.38Z" style="fill:#4800ff"/><circle cx="204.75" cy="113.96" r="5.33" style="fill:#09000a"/><path d="M217.16,117.41,212,107.28c-1.53-3-1.11-6.16.9-6.71L265.16,86.1c.79-.22,1.65,1.49,1,2l-43.08,32.58C221.44,121.91,218.68,120.39,217.16,117.41Z" style="fill:#66126b"/><path d="M210.75,126.76H199.38c-3.38,0-6,1.81-5.57,3.85l10.83,53.13c.16.8,2.07.79,2.22,0l9.48-53.18C216.7,128.53,214.1,126.76,210.75,126.76Z" style="fill:#66126b"/><path d="M195.72,118.74l7-9c2.07-2.67,2.24-5.84.37-6.76L154.4,79c-.73-.36-1.9,1.15-1.35,1.76l36.25,40C190.68,122.36,193.67,121.38,195.72,118.74Z" style="fill:#66126b"/><path d="M219.14,183.49l-4.69-13.9c-.28-.84-.06-1.65.48-1.73l52.73-8.12c1.08-.17,1.91,2.25,1,2.81l-43,25.76C223.5,189.6,220.43,187.34,219.14,183.49Z" style="fill:#4800ff"/><circle cx="206.56" cy="186.11" r="12.8" transform="translate(-36.56 51.22) rotate(-13)" style="fill:#4800ff"/><circle cx="205.75" cy="183.35" r="12.8" transform="translate(-69.83 185.62) rotate(-42.18)" style="fill:#66126b"/><circle cx="205.75" cy="183.35" r="5.33" transform="translate(-69.83 185.62) rotate(-42.18)" style="fill:#09000a"/><path d="M217.77,184.77,214.14,174c-1.08-3.2-.2-6.25,1.87-6.51l53.81-6.72c.81-.1,1.41,1.71.7,2.1l-47.36,26C221.35,189.84,218.84,187.94,217.77,184.77Z" style="fill:#66126b"/><circle cx="152.66" cy="80.62" r="12.8" transform="translate(-8.82 19.56) rotate(-7.13)" style="fill:#4800ff"/><circle cx="155.04" cy="78.17" r="12.8" transform="translate(-8.5 19.83) rotate(-7.13)" style="fill:#66126b"/><circle cx="155.04" cy="78.17" r="5.33" transform="translate(-8.5 19.83) rotate(-7.13)" style="fill:#09000a"/><circle cx="266.11" cy="86.85" r="12.8" transform="translate(101.79 313.46) rotate(-72.13)" style="fill:#4800ff"/><circle cx="262.92" cy="88.06" r="12.8" transform="translate(98.42 311.26) rotate(-72.13)" style="fill:#66126b"/><circle cx="262.92" cy="88.06" r="5.33" transform="translate(98.42 311.26) rotate(-72.13)" style="fill:#09000a"/><circle cx="272.83" cy="161.24" r="12.8" transform="translate(-0.97 320.83) rotate(-60.82)" style="fill:#4800ff"/><circle cx="269.47" cy="161.8" r="12.8" transform="translate(-3.18 318.18) rotate(-60.82)" style="fill:#66126b"/><circle cx="269.47" cy="161.8" r="5.33" transform="translate(-3.18 318.18) rotate(-60.82)" style="fill:#09000a"/><circle cx="77.11" cy="119.29" r="47.5" style="fill:none;stroke:red;stroke-miterlimit:10;stroke-width:12px"/><line x1="44.23" y1="153.09" x2="109.99" y2="84.5" style="fill:none;stroke:red;stroke-miterlimit:10;stroke-width:12px"/><line x1="111.41" y1="152.67" x2="42.82" y2="86.91" style="fill:none;stroke:red;stroke-miterlimit:10;stroke-width:12px"/></g></g></svg>