<svg xmlns="http://www.w3.org/2000/svg" xmlns:xlink="http://www.w3.org/1999/xlink" viewBox="0 0 285 285"><defs><linearGradient id="linear-gradient" x1="539.53" y1="376.54" x2="636.23" y2="209.05" gradientTransform="translate(-337.91 -285.68) rotate(15.12)" gradientUnits="userSpaceOnUse"><stop offset="0.12" stop-color="#4d4d4d"/><stop offset="0.47" stop-color="#515151"/><stop offset="0.83" stop-color="#5d5d5d"/><stop offset="1" stop-color="#666"/></linearGradient></defs><title>fixBind</title><g id="Layer_2" data-name="Layer 2"><g id="Layer_1-2" data-name="Layer 1"><circle cx="90.76" cy="153.76" r="24" style="fill:#4800ff"/><path d="M116.45,162.25,97,181.7c-1.18,1.18-1.47,2.72-.63,3.31l81.85,57.55c1.68,1.18,5.09-2.18,4-3.91l-50.39-76.32C129.26,158.37,121.83,156.87,116.45,162.25Z" style="fill:#4800ff"/><circle cx="181.87" cy="60.1" r="24" style="fill:#4800ff"/><circle cx="178.58" cy="55.73" r="24" style="fill:#66126b"/><path d="M171.38,80.79l-11.57-9.46c-1.18-1.18-15.41-2.84-16-2L91.07,142.56c-1.18,1.68,2.18,5.09,3.91,4l79.08-50.78C178,93.21,176.76,86.17,171.38,80.79Z" style="fill:#4800ff"/><path d="M169.57,80.66,154.48,65.58C150,61.1,144.15,60,142,63.29L85.88,148.13c-.85,1.28,1.7,3.8,3,2.92l83.11-57.94C175.1,90.9,174,85.1,169.57,80.66Z" style="fill:#66126b"/><circle cx="178.58" cy="55.73" r="10" style="fill:#09000a"/><path d="M113.32,159.06,98.24,174.14c-4.48,4.48-5.55,10.34-2.29,12.5l84.84,56.11c1.28.85,3.8-1.7,2.92-3l-57.94-83.1C123.56,153.52,117.76,154.63,113.32,159.06Z" style="fill:#66126b"/><circle cx="184.81" cy="243.33" r="24" style="fill:#4800ff"/><circle cx="180.81" cy="238.33" r="24" style="fill:#66126b"/><circle cx="180.81" cy="238.33" r="10" style="fill:#09000a"/><circle cx="88.39" cy="150.05" r="24" style="fill:#66126b"/><circle cx="88.39" cy="150.05" r="10" style="fill:#09000a"/><rect width="285" height="285" style="fill:none"/><polyline points="5 114.92 53.23 186.89 136.14 263.87 219.69 225.31 280.38 206.77 236.15 111.86 182.75 42.85 86.16 81.17" style="fill:url(#linear-gradient)"/><polyline points="85.79 81.7 4.63 115.45 53.88 187.7" style="fill:none;stroke:#000;stroke-linecap:round;stroke-linejoin:round;stroke-width:4px"/><line x1="85.79" y1="81.7" x2="53.88" y2="187.7" style="fill:none;stroke:#000;stroke-linecap:round;stroke-linejoin:round;stroke-width:4px"/><line x1="85.79" y1="81.7" x2="145.16" y2="132.67" style="fill:none;stroke:#000;stroke-linecap:round;stroke-linejoin:round;stroke-width:4px"/><polyline points="85.79 81.7 182.1 44.41 236.52 113.69" style="fill:none;stroke:#000;stroke-linecap:round;stroke-linejoin:round;stroke-width:4px"/><line x1="85.79" y1="81.7" x2="236.52" y2="113.69" style="fill:none;stroke:#000;stroke-linecap:round;stroke-linejoin:round;stroke-width:4px"/><line x1="145.16" y1="132.67" x2="236.52" y2="113.69" style="fill:none;stroke:#000;stroke-linecap:round;stroke-linejoin:round;stroke-width:4px"/><polyline points="219.32 225.84 280 207.3 236.52 113.69" style="fill:none;stroke:#000;stroke-linecap:round;stroke-linejoin:round;stroke-width:4px"/><line x1="236.52" y1="113.69" x2="219.32" y2="225.84" style="fill:none;stroke:#000;stroke-linecap:round;stroke-linejoin:round;stroke-width:4px"/><line x1="145.16" y1="132.67" x2="53.88" y2="187.7" style="fill:none;stroke:#000;stroke-linecap:round;stroke-linejoin:round;stroke-width:4px"/><line x1="145.16" y1="132.67" x2="219.32" y2="225.84" style="fill:none;stroke:#000;stroke-linecap:round;stroke-linejoin:round;stroke-width:4px"/><polyline points="53.88 187.7 135.77 264.4 219.32 225.84" style="fill:none;stroke:#000;stroke-linecap:round;stroke-linejoin:round;stroke-width:4px"/><line x1="53.88" y1="187.7" x2="219.32" y2="225.84" style="fill:none;stroke:#000;stroke-linecap:round;stroke-linejoin:round;stroke-width:4px"/><g style="opacity:0.5"><circle cx="90.76" cy="153.76" r="24" style="fill:#4800ff"/><path d="M116.45,162.25,97,181.7c-1.18,1.18-1.47,2.72-.63,3.31l81.85,57.55c1.68,1.18,5.09-2.18,4-3.91l-50.39-76.32C129.26,158.37,121.83,156.87,116.45,162.25Z" style="fill:#4800ff"/><circle cx="181.87" cy="60.1" r="24" style="fill:#4800ff"/><circle cx="178.58" cy="55.73" r="24" style="fill:#66126b"/><path d="M171.38,80.79l-11.57-9.46c-1.18-1.18-15.41-2.84-16-2L91.07,142.56c-1.18,1.68,2.18,5.09,3.91,4l79.08-50.78C178,93.21,176.76,86.17,171.38,80.79Z" style="fill:#4800ff"/><path d="M169.57,80.66,154.48,65.58C150,61.1,144.15,60,142,63.29L85.88,148.13c-.85,1.28,1.7,3.8,3,2.92l83.11-57.94C175.1,90.9,174,85.1,169.57,80.66Z" style="fill:#66126b"/><circle cx="178.58" cy="55.73" r="10" style="fill:#09000a"/><path d="M113.32,159.06,98.24,174.14c-4.48,4.48-5.55,10.34-2.29,12.5l84.84,56.11c1.28.85,3.8-1.7,2.92-3l-57.94-83.1C123.56,153.52,117.76,154.63,113.32,159.06Z" style="fill:#66126b"/><circle cx="184.81" cy="243.33" r="24" style="fill:#4800ff"/><circle cx="180.81" cy="238.33" r="24" style="fill:#66126b"/><circle cx="180.81" cy="238.33" r="10" style="fill:#09000a"/><circle cx="88.39" cy="150.05" r="24" style="fill:#66126b"/><circle cx="88.39" cy="150.05" r="10" style="fill:#09000a"/></g><path d="M178.28,112.43l83-59.29a17.45,17.45,0,0,0,4.06-24.35h0A17.46,17.46,0,0,0,241,24.73L158,84Z"/><path d="M135.27,121.69A36.9,36.9,0,0,1,142,138.37l28.46-20.32L150.13,89.64,121.67,110A37,37,0,0,1,135.27,121.69Z"/><path d="M76.58,139l11.36-8.23a11.29,11.29,0,0,1,15.78,2.51l8.9,12.29a11.28,11.28,0,0,1-2.52,15.77l-13,9.42a2.25,2.25,0,0,0,.88,4,32.18,32.18,0,1,0-24.94-38A2.25,2.25,0,0,0,76.58,139Z"/></g></g></svg>