<svg xmlns="http://www.w3.org/2000/svg" xmlns:xlink="http://www.w3.org/1999/xlink" viewBox="0 0 285 285"><defs><linearGradient id="linear-gradient" x1="77.91" y1="222.38" x2="156.58" y2="86.12" gradientUnits="userSpaceOnUse"><stop offset="0" stop-color="#35ffff"/><stop offset="1" stop-color="#fff"/></linearGradient></defs><title>FreezeJoint</title><g id="Layer_2" data-name="Layer 2"><g id="Layer_1-2" data-name="Layer 1"><rect width="285" height="285" style="fill:none"/><circle cx="104.5" cy="147.48" r="25.33" style="fill:#4800ff"/><path d="M131.62,156.44,111.09,177c-1.25,1.25-1.56,2.88-.67,3.5l86.39,60.74c1.76,1.24,5.36-2.3,4.19-4.13l-53.18-80.55C145.14,152.35,137.29,150.76,131.62,156.44Z" style="fill:#4800ff"/><circle cx="200.66" cy="48.64" r="25.33" style="fill:#4800ff"/><circle cx="197.18" cy="44.03" r="25.33" style="fill:#66126b"/><path d="M189.59,70.48l-12.22-10c-1.24-1.24-16.26-3-16.88-2.11l-55.66,77.29c-1.25,1.77,2.3,5.37,4.12,4.19l83.46-53.59C196.6,83.59,195.27,76.16,189.59,70.48Z" style="fill:#4800ff"/><path d="M187.67,70.34,171.75,54.42C167,49.7,160.84,48.56,158.56,52L99.35,141.54c-.89,1.35,1.79,4,3.12,3.09l87.7-61.16C193.52,81.14,192.35,75,187.67,70.34Z" style="fill:#66126b"/><circle cx="197.18" cy="44.03" r="10.55" style="fill:#09000a"/><path d="M128.31,153.08,112.4,169c-4.73,4.73-5.86,10.91-2.42,13.19l89.53,59.22c1.36.89,4-1.8,3.09-3.12l-61.15-87.71C139.11,147.24,133,148.4,128.31,153.08Z" style="fill:#66126b"/><circle cx="203.76" cy="242.02" r="25.33" style="fill:#4800ff"/><circle cx="199.54" cy="236.74" r="25.33" style="fill:#66126b"/><circle cx="199.54" cy="236.74" r="10.55" style="fill:#09000a"/><circle cx="102" cy="143.57" r="25.33" style="fill:#66126b"/><circle cx="102" cy="143.57" r="10.55" style="fill:#09000a"/><g style="opacity:0.5"><polygon points="45.05 202.41 57.22 101.25 68.69 85.66 119.87 84.26 151.84 83.38 163.4 96.69 180.06 202.41 174.44 206.27 50 206.27 45.05 202.41" style="stroke:#00dde8;stroke-miterlimit:10;stroke-width:14px;fill:url(#linear-gradient)"/><polyline points="117.74 84.31 117.74 132.35 96.54 150.1 98.03 161.08 82.15 182.89 102.61 168.56 104.84 152.27 121.87 137.75 131.56 156.6 128.33 170.09 138.06 156.42 127.59 132.41 128.48 84.02" style="fill:#00dde8"/></g></g></g></svg>