<svg xmlns="http://www.w3.org/2000/svg" xmlns:xlink="http://www.w3.org/1999/xlink" viewBox="0 0 285 285"><defs><linearGradient id="linear-gradient" x1="-147.28" y1="-91.63" x2="-50.58" y2="-259.12" gradientTransform="translate(203.04 345.41) rotate(15.12)" gradientUnits="userSpaceOnUse"><stop offset="0.12" stop-color="#4d4d4d"/><stop offset="0.47" stop-color="#515151"/><stop offset="0.83" stop-color="#5d5d5d"/><stop offset="1" stop-color="#666"/></linearGradient></defs><title>hammer</title><g id="Layer_2" data-name="Layer 2"><g id="Layer_1-2" data-name="Layer 1"><rect width="285" height="285" style="fill:none"/><path d="M39.19,139" style="stroke:#000;stroke-linecap:round;stroke-linejoin:round;stroke-width:4px"/><polyline points="5 114.92 53.23 186.89 136.14 263.87 219.69 225.31 280.38 206.77 236.15 111.86 182.75 42.85 86.16 81.17" style="fill:url(#linear-gradient)"/><polyline points="85.79 81.7 4.63 115.45 53.88 187.7" style="fill:none;stroke:#000;stroke-linecap:round;stroke-linejoin:round;stroke-width:4px"/><line x1="85.79" y1="81.7" x2="53.88" y2="187.7" style="fill:none;stroke:#000;stroke-linecap:round;stroke-linejoin:round;stroke-width:4px"/><line x1="85.79" y1="81.7" x2="145.16" y2="132.67" style="fill:none;stroke:#000;stroke-linecap:round;stroke-linejoin:round;stroke-width:4px"/><polyline points="85.79 81.7 182.1 44.41 236.52 113.69" style="fill:none;stroke:#000;stroke-linecap:round;stroke-linejoin:round;stroke-width:4px"/><line x1="85.79" y1="81.7" x2="236.52" y2="113.69" style="fill:none;stroke:#000;stroke-linecap:round;stroke-linejoin:round;stroke-width:4px"/><line x1="145.16" y1="132.67" x2="236.52" y2="113.69" style="fill:none;stroke:#000;stroke-linecap:round;stroke-linejoin:round;stroke-width:4px"/><polyline points="219.32 225.84 280 207.3 236.52 113.69" style="fill:none;stroke:#000;stroke-linecap:round;stroke-linejoin:round;stroke-width:4px"/><line x1="236.52" y1="113.69" x2="219.32" y2="225.84" style="fill:none;stroke:#000;stroke-linecap:round;stroke-linejoin:round;stroke-width:4px"/><line x1="145.16" y1="132.67" x2="53.88" y2="187.7" style="fill:none;stroke:#000;stroke-linecap:round;stroke-linejoin:round;stroke-width:4px"/><line x1="145.16" y1="132.67" x2="219.32" y2="225.84" style="fill:none;stroke:#000;stroke-linecap:round;stroke-linejoin:round;stroke-width:4px"/><polyline points="53.88 187.7 135.77 264.4 219.32 225.84" style="fill:none;stroke:#000;stroke-linecap:round;stroke-linejoin:round;stroke-width:4px"/><line x1="53.88" y1="187.7" x2="219.32" y2="225.84" style="fill:none;stroke:#000;stroke-linecap:round;stroke-linejoin:round;stroke-width:4px"/><rect x="132.1" y="259.82" width="8.09" height="8.09" transform="translate(-146.71 173.55) rotate(-45)" style="fill:#ff0"/><rect x="215.28" y="221.8" width="8.09" height="8.09" transform="translate(-95.46 221.23) rotate(-45)" style="fill:#ff0"/><rect x="49.83" y="183.65" width="8.09" height="8.09" transform="translate(-116.94 93.07) rotate(-45)" style="fill:#ff0"/><rect x="141.11" y="130.65" width="8.09" height="8.09" transform="translate(-52.73 142.09) rotate(-45)" style="fill:#ff0"/><path d="M181.53,83.81,243,156.21a16.25,16.25,0,0,1-1.87,22.9h0a16.25,16.25,0,0,1-22.9-1.87l-61.46-72.41Z" style="fill:#66126b"/><path d="M126.62,42.15,82.55,79.62,121,124.82,206,52.5,188.71,32.14C166.08,51.38,138.28,55.87,126.62,42.15Z" style="fill:#66126b"/><path d="M180.53,92.81,242,165.21a16.25,16.25,0,0,1-1.87,22.9h0a16.25,16.25,0,0,1-22.9-1.87l-61.46-72.41Z" style="fill:#231f20"/><path d="M125.62,51.15,81.55,88.62,120,133.82,205,61.5,187.71,41.14C165.08,60.38,137.28,64.87,125.62,51.15Z" style="fill:#231f20"/></g></g></svg>