<svg xmlns="http://www.w3.org/2000/svg" xmlns:xlink="http://www.w3.org/1999/xlink" viewBox="0 0 285 285"><defs><linearGradient id="linear-gradient" x1="393.41" y1="473.93" x2="441.21" y2="391.13" gradientTransform="translate(-78.85 -461.03) rotate(15.12)" gradientUnits="userSpaceOnUse"><stop offset="0.12" stop-color="#4d4d4d"/><stop offset="0.47" stop-color="#515151"/><stop offset="0.83" stop-color="#5d5d5d"/><stop offset="1" stop-color="#666"/></linearGradient><linearGradient id="linear-gradient-2" x1="431.07" y1="618.39" x2="478.88" y2="535.59" xlink:href="#linear-gradient"/></defs><title>infMesh</title><g id="Layer_2" data-name="Layer 2"><g id="Layer_1-2" data-name="Layer 1"><rect width="285" height="285" style="fill:none"/><circle cx="34.29" cy="146.22" r="24" style="fill:#4800ff"/><path d="M60,154.71,40.53,174.17c-1.18,1.17-1.47,2.72-.63,3.31L121.75,235c1.68,1.17,5.09-2.18,4-3.91L75.34,154.8C72.8,150.84,65.36,149.33,60,154.71Z" style="fill:#4800ff"/><circle cx="125.4" cy="52.56" r="24" style="fill:#4800ff"/><circle cx="122.11" cy="48.2" r="24" style="fill:aqua"/><path d="M114.91,73.26,103.34,63.8c-1.18-1.18-15.41-2.84-16-2L34.6,135c-1.18,1.67,2.18,5.08,3.91,4l79.08-50.77C121.55,85.68,120.29,78.64,114.91,73.26Z" style="fill:#4800ff"/><path d="M113.1,73.13,98,58.05c-4.48-4.48-10.34-5.55-12.5-2.29L29.41,140.59c-.85,1.28,1.7,3.81,3,2.93l83.1-58C118.64,83.36,117.53,77.56,113.1,73.13Z" style="fill:aqua"/><circle cx="122.11" cy="48.2" r="10" style="fill:#09000a"/><path d="M56.86,151.53,41.77,166.61c-4.48,4.48-5.55,10.34-2.28,12.5l84.83,56.11c1.28.84,3.8-1.7,2.93-3L69.3,149.16C67.09,146,61.29,147.1,56.86,151.53Z" style="fill:#66126b"/><circle cx="128.34" cy="235.8" r="24" style="fill:#4800ff"/><circle cx="124.34" cy="230.8" r="24" style="fill:#66126b"/><circle cx="124.34" cy="230.8" r="10" style="fill:#09000a"/><circle cx="31.92" cy="142.52" r="24" style="fill:#66126b"/><circle cx="31.92" cy="142.52" r="10" style="fill:#09000a"/><polyline points="137.92 47.86 161.76 83.44 202.75 121.5 244.05 102.44 274.05 93.27 252.19 46.35 225.79 12.24 178.04 31.18" style="stroke:#00f8fc;stroke-miterlimit:10;fill:url(#linear-gradient)"/><polyline points="177.86 31.44 137.73 48.13 162.08 83.84" style="fill:none;stroke:#00f8fc;stroke-linecap:round;stroke-linejoin:round;stroke-width:4px"/><line x1="177.86" y1="31.44" x2="162.08" y2="83.84" style="fill:none;stroke:#000;stroke-linecap:round;stroke-linejoin:round;stroke-width:4px"/><line x1="177.86" y1="31.44" x2="207.21" y2="56.64" style="fill:none;stroke:#000;stroke-linecap:round;stroke-linejoin:round;stroke-width:4px"/><polyline points="177.86 31.44 225.47 13.01 252.37 47.26" style="fill:none;stroke:#00f8fc;stroke-linecap:round;stroke-linejoin:round;stroke-width:4px"/><line x1="177.86" y1="31.44" x2="252.37" y2="47.25" style="fill:none;stroke:#000;stroke-linecap:round;stroke-linejoin:round;stroke-width:4px"/><line x1="207.21" y1="56.64" x2="252.37" y2="47.25" style="fill:none;stroke:#000;stroke-linecap:round;stroke-linejoin:round;stroke-width:4px"/><polyline points="243.87 102.7 273.87 93.53 252.37 47.26" style="fill:none;stroke:#00f8fc;stroke-linecap:round;stroke-linejoin:round;stroke-width:4px"/><line x1="252.37" y1="47.25" x2="243.87" y2="102.7" style="fill:none;stroke:#000;stroke-linecap:round;stroke-linejoin:round;stroke-width:4px"/><line x1="207.21" y1="56.64" x2="162.08" y2="83.84" style="fill:none;stroke:#000;stroke-linecap:round;stroke-linejoin:round;stroke-width:4px"/><line x1="207.21" y1="56.64" x2="243.87" y2="102.7" style="fill:none;stroke:#000;stroke-linecap:round;stroke-linejoin:round;stroke-width:4px"/><polyline points="162.08 83.84 202.57 121.76 243.87 102.7" style="fill:none;stroke:#00f8fc;stroke-linecap:round;stroke-linejoin:round;stroke-width:4px"/><line x1="162.08" y1="83.84" x2="243.87" y2="102.7" style="fill:none;stroke:#000;stroke-linecap:round;stroke-linejoin:round;stroke-width:4px"/><polyline points="136.6 197.15 160.45 232.73 201.44 270.79 242.74 251.72 272.74 242.56 250.88 195.64 224.47 161.53 176.73 180.47" style="stroke:#00f8fc;stroke-miterlimit:10;fill:url(#linear-gradient-2)"/><polyline points="176.54 180.73 136.42 197.41 160.77 233.13" style="fill:none;stroke:#00f8fc;stroke-linecap:round;stroke-linejoin:round;stroke-width:4px"/><line x1="176.54" y1="180.73" x2="160.77" y2="233.13" style="fill:none;stroke:#000;stroke-linecap:round;stroke-linejoin:round;stroke-width:4px"/><line x1="176.54" y1="180.73" x2="205.89" y2="205.93" style="fill:none;stroke:#000;stroke-linecap:round;stroke-linejoin:round;stroke-width:4px"/><polyline points="176.54 180.73 224.16 162.29 251.06 196.54" style="fill:none;stroke:#00f8fc;stroke-linecap:round;stroke-linejoin:round;stroke-width:4px"/><line x1="176.54" y1="180.73" x2="251.06" y2="196.54" style="fill:none;stroke:#000;stroke-linecap:round;stroke-linejoin:round;stroke-width:4px"/><line x1="205.89" y1="205.93" x2="251.06" y2="196.54" style="fill:none;stroke:#000;stroke-linecap:round;stroke-linejoin:round;stroke-width:4px"/><polyline points="242.56 251.99 272.56 242.82 251.06 196.54" style="fill:none;stroke:#00f8fc;stroke-linecap:round;stroke-linejoin:round;stroke-width:4px"/><line x1="251.06" y1="196.54" x2="242.56" y2="251.99" style="fill:none;stroke:#000;stroke-linecap:round;stroke-linejoin:round;stroke-width:4px"/><line x1="205.89" y1="205.93" x2="160.77" y2="233.13" style="fill:none;stroke:#000;stroke-linecap:round;stroke-linejoin:round;stroke-width:4px"/><line x1="205.89" y1="205.93" x2="242.56" y2="251.99" style="fill:none;stroke:#000;stroke-linecap:round;stroke-linejoin:round;stroke-width:4px"/><polyline points="160.77 233.13 201.25 271.05 242.56 251.99" style="fill:none;stroke:#00f8fc;stroke-linecap:round;stroke-linejoin:round;stroke-width:4px"/><line x1="160.77" y1="233.13" x2="242.56" y2="251.99" style="fill:none;stroke:#000;stroke-linecap:round;stroke-linejoin:round;stroke-width:4px"/><polygon points="114.77 143.83 86.65 169.9 86.65 73.09 153.17 143.75 114.77 143.83" style="fill:#980503"/></g></g></svg>