<svg xmlns="http://www.w3.org/2000/svg" xmlns:xlink="http://www.w3.org/1999/xlink" viewBox="0 0 285 285"><defs><radialGradient id="radial-gradient" cx="604.77" cy="-408.01" r="10" gradientTransform="translate(-50.55 861.86) rotate(-45)" gradientUnits="userSpaceOnUse"><stop offset="0" stop-color="#93278f"/><stop offset="0.38" stop-color="#91278f"/><stop offset="0.51" stop-color="#8a288f"/><stop offset="0.61" stop-color="#7f2a90"/><stop offset="0.69" stop-color="#6e2c91"/><stop offset="0.71" stop-color="#662d91"/></radialGradient></defs><title>jointDelete</title><g id="Layer_2" data-name="Layer 2"><g id="Layer_1-2" data-name="Layer 1"><rect width="285" height="285" style="fill:none"/><circle cx="90.95" cy="149.43" r="24" style="fill:#4800ff"/><path d="M116.64,157.92,97.19,177.37c-1.18,1.18-1.47,2.72-.63,3.31l81.85,57.55c1.68,1.18,5.09-2.18,4-3.91L132,158C129.45,154,122,152.53,116.64,157.92Z" style="fill:#4800ff"/><circle cx="182.06" cy="55.77" r="24" style="fill:#4800ff"/><circle cx="178.77" cy="51.4" r="24" style="fill:#66126b"/><path d="M171.57,76.46,160,67c-1.18-1.18-15.41-2.84-16-2L91.26,138.23c-1.18,1.67,2.18,5.09,3.91,4l79.08-50.77C178.21,88.88,177,81.84,171.57,76.46Z" style="fill:#4800ff"/><path d="M169.76,76.33,154.68,61.25c-4.48-4.48-10.34-5.55-12.5-2.29L86.07,143.8c-.85,1.28,1.7,3.8,3,2.92l83.1-57.95C175.3,86.57,174.19,80.77,169.76,76.33Z" style="fill:#66126b"/><circle cx="178.77" cy="51.4" r="10" style="fill:#09000a"/><path d="M113.52,154.73,98.43,169.81c-4.48,4.48-5.55,10.34-2.28,12.5L181,238.42c1.28.84,3.8-1.7,2.93-3L126,152.36C123.75,149.19,118,150.3,113.52,154.73Z" style="fill:#66126b"/><circle cx="185" cy="239" r="24" style="fill:#4800ff"/><circle cx="181" cy="234" r="24" style="fill:#66126b"/><circle cx="181" cy="234" r="10" style="fill:#09000a"/><circle cx="88.58" cy="145.72" r="24" style="fill:#66126b"/><circle cx="88.58" cy="145.72" r="10" style="fill:url(#radial-gradient)"/><circle cx="88.5" cy="145.5" r="47.5" style="fill:none;stroke:red;stroke-miterlimit:10;stroke-width:12px"/><line x1="55.62" y1="179.29" x2="121.38" y2="110.71" style="fill:none;stroke:red;stroke-miterlimit:10;stroke-width:12px"/><line x1="122.79" y1="178.88" x2="54.21" y2="113.12" style="fill:none;stroke:red;stroke-miterlimit:10;stroke-width:12px"/></g></g></svg>