<svg xmlns="http://www.w3.org/2000/svg" viewBox="0 0 285 285"><title>jointLabel</title><g id="Layer_2" data-name="Layer 2"><g id="Layer_1-2" data-name="Layer 1"><rect width="285" height="285" style="fill:none"/><circle cx="59.22" cy="146.72" r="24" style="fill:#4800ff"/><path d="M84.92,155.21,65.47,174.67c-1.18,1.17-1.48,2.72-.64,3.31l81.86,57.55c1.67,1.17,5.08-2.18,4-3.91L100.28,155.3C97.73,151.34,90.3,149.83,84.92,155.21Z" style="fill:#4800ff"/><circle cx="150.34" cy="53.06" r="24" style="fill:#4800ff"/><circle cx="147.05" cy="48.7" r="24" style="fill:#66126b"/><path d="M139.85,73.76,128.28,64.3c-1.18-1.18-15.41-2.84-16-2L59.54,135.53c-1.18,1.67,2.18,5.08,3.91,4l79.07-50.77C146.49,86.18,145.23,79.14,139.85,73.76Z" style="fill:#4800ff"/><path d="M138,73.63,123,58.55c-4.48-4.48-10.34-5.55-12.5-2.29l-56.1,84.83c-.85,1.28,1.7,3.81,2.95,2.93l83.1-58C143.57,83.86,142.47,78.06,138,73.63Z" style="fill:#66126b"/><circle cx="147.05" cy="48.7" r="10" style="fill:#09000a"/><path d="M81.79,152,66.71,167.11c-4.48,4.48-5.55,10.34-2.29,12.5l84.83,56.11c1.28.84,3.81-1.7,2.93-3l-57.95-83.1C92,146.49,86.22,147.6,81.79,152Z" style="fill:#66126b"/><circle cx="153.28" cy="236.3" r="24" style="fill:#4800ff"/><circle cx="149.28" cy="231.3" r="24" style="fill:#66126b"/><circle cx="149.28" cy="231.3" r="10" style="fill:#09000a"/><circle cx="56.86" cy="143.02" r="24" style="fill:#66126b"/><circle cx="56.86" cy="143.02" r="10" style="fill:#09000a"/><path d="M143.67,135.43a5.5,5.5,0,0,1-6.42-4.87c-1.18-12.4,1.07-22.84,6.74-31.11,8.49-12.38,22.33-16.43,32.43-19.38l.58-.17A5.5,5.5,0,0,0,178.47,70c-5.2-3.36-13.89-8-28.47-14.14a5.51,5.51,0,0,1-3-7.14h0a5.51,5.51,0,0,1,7.24-3c39.52,16.61,44,25.62,42.71,32.87s-9.14,9.58-17.48,12c-9,2.63-20.16,5.89-26.44,15-4.16,6.07-5.79,14.06-4.86,23.8a5.5,5.5,0,0,1-4.53,6Z" style="fill:#980503"/><path d="M245.2,174.83l-72.43-58.12a9.17,9.17,0,0,0-6.68-2l-35.54,3.74a5.91,5.91,0,0,0-5.24,6.53l4.05,35.5a9.13,9.13,0,0,0,3.36,6.1l72.43,58.12A9.14,9.14,0,0,0,218,223.33l28.61-35.64A9.16,9.16,0,0,0,245.2,174.83ZM138.3,140.07a7.8,7.8,0,1,1,11-1.2A7.79,7.79,0,0,1,138.3,140.07Z" style="fill:#006837"/><rect x="170.38" y="159.47" width="73.01" height="8.37" rx="4.18" ry="4.18" transform="translate(147.95 -93.47) rotate(38.74)" style="fill:#000503"/><rect x="162.87" y="168.83" width="73.01" height="8.37" rx="4.18" ry="4.18" transform="translate(152.16 -86.71) rotate(38.74)" style="fill:#000503"/><rect x="149.1" y="185.99" width="73.01" height="8.37" rx="4.18" ry="4.18" transform="translate(159.86 -74.31) rotate(38.74)" style="fill:#000503"/><rect x="167.49" y="181.46" width="60.08" height="8.37" rx="4.18" ry="4.18" transform="translate(159.65 -82.77) rotate(38.74)" style="fill:#000503"/></g></g></svg>