<svg xmlns="http://www.w3.org/2000/svg" xmlns:xlink="http://www.w3.org/1999/xlink" viewBox="0 0 285 285"><defs><linearGradient id="linear-gradient" x1="-62" y1="-157.95" x2="34.7" y2="-325.45" gradientTransform="translate(103.42 387.2) rotate(15.12)" gradientUnits="userSpaceOnUse"><stop offset="0.12" stop-color="#4d4d4d"/><stop offset="0.47" stop-color="#515151"/><stop offset="0.83" stop-color="#5d5d5d"/><stop offset="1" stop-color="#666"/></linearGradient></defs><title>maxinf</title><g id="Layer_2" data-name="Layer 2"><g id="Layer_1-2" data-name="Layer 1"><rect width="285" height="285" style="fill:none"/><polyline points="5 114.92 53.23 186.89 136.14 263.87 219.69 225.31 280.38 206.77 236.15 111.86 182.75 42.85 86.16 81.17" style="fill:url(#linear-gradient)"/><polyline points="85.79 81.7 4.63 115.45 53.88 187.7" style="fill:none;stroke:#000;stroke-linecap:round;stroke-linejoin:round;stroke-width:4px"/><line x1="85.79" y1="81.7" x2="53.88" y2="187.7" style="fill:none;stroke:#000;stroke-linecap:round;stroke-linejoin:round;stroke-width:4px"/><line x1="85.79" y1="81.7" x2="145.16" y2="132.67" style="fill:none;stroke:#000;stroke-linecap:round;stroke-linejoin:round;stroke-width:4px"/><polyline points="85.79 81.7 182.1 44.41 236.52 113.69" style="fill:none;stroke:#000;stroke-linecap:round;stroke-linejoin:round;stroke-width:4px"/><line x1="85.79" y1="81.7" x2="236.52" y2="113.69" style="fill:none;stroke:#000;stroke-linecap:round;stroke-linejoin:round;stroke-width:4px"/><line x1="145.16" y1="132.67" x2="236.52" y2="113.69" style="fill:none;stroke:#000;stroke-linecap:round;stroke-linejoin:round;stroke-width:4px"/><polyline points="219.32 225.84 280 207.3 236.52 113.69" style="fill:none;stroke:#000;stroke-linecap:round;stroke-linejoin:round;stroke-width:4px"/><line x1="236.52" y1="113.69" x2="219.32" y2="225.84" style="fill:none;stroke:#000;stroke-linecap:round;stroke-linejoin:round;stroke-width:4px"/><line x1="145.16" y1="132.67" x2="53.88" y2="187.7" style="fill:none;stroke:#000;stroke-linecap:round;stroke-linejoin:round;stroke-width:4px"/><line x1="145.16" y1="132.67" x2="219.32" y2="225.84" style="fill:none;stroke:#000;stroke-linecap:round;stroke-linejoin:round;stroke-width:4px"/><polyline points="53.88 187.7 135.77 264.4 219.32 225.84" style="fill:none;stroke:#000;stroke-linecap:round;stroke-linejoin:round;stroke-width:4px"/><line x1="53.88" y1="187.7" x2="219.32" y2="225.84" style="fill:none;stroke:#000;stroke-linecap:round;stroke-linejoin:round;stroke-width:4px"/><rect x="132.1" y="259.82" width="8.09" height="8.09" transform="translate(-146.71 173.55) rotate(-45)" style="fill:#ff0"/><rect x="274.33" y="202.73" width="8.09" height="8.09" transform="translate(-64.68 257.4) rotate(-45)" style="fill:#ff0"/><rect x="178.2" y="40.36" width="8.09" height="8.09" transform="translate(21.98 141.87) rotate(-45)" style="fill:#ff0"/><rect x="2.84" y="112.36" width="8.09" height="8.09" transform="translate(-80.29 38.97) rotate(-45)" style="fill:#ff0"/><rect x="83.95" y="76.36" width="8.09" height="8.09" transform="translate(-31.08 85.77) rotate(-45)" style="fill:#ff0"/><path d="M85.79,156.67c-18.66,12-18.66,12-33.15,27.62a1.86,1.86,0,0,1-2.43.5l-14.55-9.9a1.73,1.73,0,0,0-2.14.15l-2,1.8a1.72,1.72,0,0,0-.11,2.44l20.18,22a1.72,1.72,0,0,0,2.68-.18l4.13-5.85a123.82,123.82,0,0,1,27.34-28.94Z" style="fill:lime"/><path d="M174.27,107.19c-18.66,12-18.66,12-33.15,27.62a1.85,1.85,0,0,1-2.42.5l-14.56-9.9a1.73,1.73,0,0,0-2.14.15l-2,1.79a1.73,1.73,0,0,0-.11,2.44l20.18,22a1.72,1.72,0,0,0,2.68-.17l4.13-5.85a123.61,123.61,0,0,1,27.34-28.94Z" style="fill:lime"/><path d="M263.91,84.82c-18.66,12-18.66,12-33.15,27.62a1.84,1.84,0,0,1-2.42.5L213.79,103a1.72,1.72,0,0,0-2.14.16l-2,1.79a1.72,1.72,0,0,0-.1,2.44l20.17,22a1.73,1.73,0,0,0,2.69-.17l4.13-5.86a123.65,123.65,0,0,1,27.33-28.94Z" style="fill:lime"/><path d="M245.62,195.25C227,207.2,227,207.2,212.47,222.88a1.85,1.85,0,0,1-2.42.5l-14.56-9.9a1.7,1.7,0,0,0-2.13.15l-2,1.79a1.73,1.73,0,0,0-.11,2.44l20.18,22a1.72,1.72,0,0,0,2.68-.17l4.13-5.85a123.61,123.61,0,0,1,27.34-28.94Z" style="fill:lime"/></g></g></svg>