<svg xmlns="http://www.w3.org/2000/svg" xmlns:xlink="http://www.w3.org/1999/xlink" viewBox="0 0 285 285"><defs><linearGradient id="linear-gradient" x1="524.39" y1="284.2" x2="621.1" y2="116.7" gradientTransform="translate(-347.38 -192.58) rotate(15.12)" gradientUnits="userSpaceOnUse"><stop offset="0.12" stop-color="#4d4d4d"/><stop offset="0.47" stop-color="#515151"/><stop offset="0.83" stop-color="#5d5d5d"/><stop offset="1" stop-color="#666"/></linearGradient></defs><title>meshPin</title><g id="Layer_2" data-name="Layer 2"><g id="Layer_1-2" data-name="Layer 1"><rect width="285" height="285" style="fill:none"/><polyline points="5 114.92 53.23 186.89 136.14 263.87 219.69 225.31 280.38 206.77 236.15 111.86 182.75 42.85 86.16 81.17" style="fill:url(#linear-gradient)"/><polyline points="85.79 81.7 4.63 115.45 53.88 187.7" style="fill:none;stroke:#000;stroke-linecap:round;stroke-linejoin:round;stroke-width:4px"/><line x1="85.79" y1="81.7" x2="53.88" y2="187.7" style="fill:none;stroke:#000;stroke-linecap:round;stroke-linejoin:round;stroke-width:4px"/><line x1="85.79" y1="81.7" x2="145.16" y2="132.67" style="fill:none;stroke:#000;stroke-linecap:round;stroke-linejoin:round;stroke-width:4px"/><polyline points="85.79 81.7 182.1 44.41 236.52 113.69" style="fill:none;stroke:#000;stroke-linecap:round;stroke-linejoin:round;stroke-width:4px"/><line x1="85.79" y1="81.7" x2="236.52" y2="113.69" style="fill:none;stroke:#000;stroke-linecap:round;stroke-linejoin:round;stroke-width:4px"/><line x1="145.16" y1="132.67" x2="236.52" y2="113.69" style="fill:none;stroke:#000;stroke-linecap:round;stroke-linejoin:round;stroke-width:4px"/><polyline points="219.32 225.84 280 207.3 236.52 113.69" style="fill:none;stroke:#000;stroke-linecap:round;stroke-linejoin:round;stroke-width:4px"/><line x1="236.52" y1="113.69" x2="219.32" y2="225.84" style="fill:none;stroke:#000;stroke-linecap:round;stroke-linejoin:round;stroke-width:4px"/><line x1="145.16" y1="132.67" x2="53.88" y2="187.7" style="fill:none;stroke:#000;stroke-linecap:round;stroke-linejoin:round;stroke-width:4px"/><line x1="145.16" y1="132.67" x2="219.32" y2="225.84" style="fill:none;stroke:#000;stroke-linecap:round;stroke-linejoin:round;stroke-width:4px"/><polyline points="53.88 187.7 135.77 264.4 219.32 225.84" style="fill:none;stroke:#000;stroke-linecap:round;stroke-linejoin:round;stroke-width:4px"/><line x1="53.88" y1="187.7" x2="219.32" y2="225.84" style="fill:none;stroke:#000;stroke-linecap:round;stroke-linejoin:round;stroke-width:4px"/><line x1="167.4" y1="68.29" x2="122.91" y2="199.15" style="fill:none;stroke:#158e00;stroke-miterlimit:10;stroke-width:8px"/><path d="M160.16,66.22a7.52,7.52,0,1,1,4.7,9.54A7.53,7.53,0,0,1,160.16,66.22Z" style="fill:#158e00"/><path d="M115.91,196.37a7.52,7.52,0,1,0,9.54-4.7A7.52,7.52,0,0,0,115.91,196.37Z" style="fill:#158e00"/><line x1="99.61" y1="81.73" x2="190.7" y2="185.7" style="fill:none;stroke:#158e00;stroke-miterlimit:10;stroke-width:8px"/><path d="M94.21,87a7.52,7.52,0,1,1,10.61.7A7.51,7.51,0,0,1,94.21,87Z" style="fill:#158e00"/><path d="M184.79,190.37a7.52,7.52,0,1,0,.71-10.61A7.52,7.52,0,0,0,184.79,190.37Z" style="fill:#158e00"/><line x1="77.37" y1="147.17" x2="212.95" y2="120.27" style="fill:none;stroke:#158e00;stroke-miterlimit:10;stroke-width:8px"/><path d="M79.2,154.47a7.52,7.52,0,1,1,5.91-8.84A7.52,7.52,0,0,1,79.2,154.47Z" style="fill:#158e00"/><path d="M214,127.72a7.52,7.52,0,1,0-8.84-5.91A7.52,7.52,0,0,0,214,127.72Z" style="fill:#158e00"/></g></g></svg>