<svg xmlns="http://www.w3.org/2000/svg" xmlns:xlink="http://www.w3.org/1999/xlink" viewBox="0 0 285 285"><defs><linearGradient id="linear-gradient" x1="369.13" y1="503.86" x2="464.08" y2="339.41" gradientTransform="translate(-138.16 -374.65) rotate(15.12)" gradientUnits="userSpaceOnUse"><stop offset="0.12" stop-color="#4d4d4d"/><stop offset="0.47" stop-color="#515151"/><stop offset="0.83" stop-color="#5d5d5d"/><stop offset="1" stop-color="#666"/></linearGradient></defs><title>neighbors</title><g id="Layer_2" data-name="Layer 2"><g id="Layer_1-2" data-name="Layer 1"><rect width="285" height="285" style="fill:none"/><polyline points="8.49 106.3 55.85 176.97 137.26 252.55 219.29 214.69 278.88 196.49 235.45 103.3 183.02 35.54 88.18 73.16" style="fill:url(#linear-gradient)"/><polyline points="87.82 73.68 8.13 106.82 56.49 177.76" style="fill:none;stroke:#000;stroke-linecap:round;stroke-linejoin:round;stroke-width:4px"/><line x1="87.82" y1="73.68" x2="56.49" y2="177.76" style="fill:none;stroke:#000;stroke-linecap:round;stroke-linejoin:round;stroke-width:4px"/><line x1="87.82" y1="73.68" x2="146.11" y2="123.73" style="fill:none;stroke:#000;stroke-linecap:round;stroke-linejoin:round;stroke-width:4px"/><polyline points="87.82 73.68 182.38 37.06 235.82 105.09" style="fill:none;stroke:#000;stroke-linecap:round;stroke-linejoin:round;stroke-width:4px"/><line x1="87.82" y1="73.68" x2="235.82" y2="105.09" style="fill:none;stroke:#000;stroke-linecap:round;stroke-linejoin:round;stroke-width:4px"/><line x1="146.11" y1="123.73" x2="235.82" y2="105.09" style="fill:none;stroke:#000;stroke-linecap:round;stroke-linejoin:round;stroke-width:4px"/><polyline points="218.93 215.21 278.51 197.01 235.82 105.09" style="fill:none;stroke:#000;stroke-linecap:round;stroke-linejoin:round;stroke-width:4px"/><line x1="235.82" y1="105.09" x2="218.93" y2="215.21" style="fill:none;stroke:#000;stroke-linecap:round;stroke-linejoin:round;stroke-width:4px"/><line x1="146.11" y1="123.73" x2="56.49" y2="177.76" style="fill:none;stroke:#000;stroke-linecap:round;stroke-linejoin:round;stroke-width:4px"/><line x1="146.11" y1="123.73" x2="218.93" y2="215.21" style="fill:none;stroke:#000;stroke-linecap:round;stroke-linejoin:round;stroke-width:4px"/><polyline points="56.49 177.76 136.89 253.07 218.93 215.21" style="fill:none;stroke:#000;stroke-linecap:round;stroke-linejoin:round;stroke-width:4px"/><line x1="56.49" y1="177.76" x2="218.93" y2="215.21" style="fill:none;stroke:#000;stroke-linecap:round;stroke-linejoin:round;stroke-width:4px"/><rect x="4.08" y="101.05" width="8.09" height="8.09" transform="translate(-71.93 36.53) rotate(-45)" style="fill:#ff0"/><rect x="83.77" y="69.64" width="8.09" height="8.09" transform="translate(-26.38 83.68) rotate(-45)" style="fill:#ff0"/><rect x="178.47" y="33.02" width="8.09" height="8.09" transform="translate(27.25 139.92) rotate(-45)" style="fill:#ff0"/><rect x="50.96" y="173.72" width="8.09" height="8.09" transform="translate(-109.59 90.96) rotate(-45)" style="fill:#ff0"/><rect x="136.19" y="249.03" width="8.09" height="8.09" transform="translate(-137.88 173.28) rotate(-45)" style="fill:#ff0"/><rect x="214.89" y="210.21" width="8.09" height="8.09" transform="translate(-87.38 217.56) rotate(-45)" style="fill:#ff0"/><rect x="274.35" y="192.44" width="8.09" height="8.09" transform="translate(-57.4 254.4) rotate(-45)" style="fill:#ff0"/><rect x="231.77" y="101.05" width="8.09" height="8.09" transform="translate(-5.24 197.53) rotate(-45)" style="fill:#ff0"/><rect x="142.06" y="119.68" width="8.09" height="8.09" transform="translate(-44.7 139.55) rotate(-45)" style="fill:lime"/><line x1="158.82" y1="120" x2="202.9" y2="111.71" style="fill:none;stroke:red;stroke-miterlimit:10;stroke-width:4px"/><polygon points="202.1 119.78 213.9 109.64 199.22 104.49 202.1 119.78" style="fill:red"/><line x1="151.82" y1="113" x2="174.34" y2="68.01" style="fill:none;stroke:red;stroke-miterlimit:10;stroke-width:4px"/><polygon points="180.28 73.53 179.36 58 166.37 66.56 180.28 73.53" style="fill:red"/><line x1="158.82" y1="128" x2="251.8" y2="177.89" style="fill:none;stroke:red;stroke-miterlimit:10;stroke-width:4px"/><polygon points="246.12 183.67 261.67 183.19 253.47 169.96 246.12 183.67" style="fill:red"/><line x1="144.23" y1="136.68" x2="140.68" y2="224.67" style="fill:none;stroke:red;stroke-miterlimit:10;stroke-width:4px"/><polygon points="133 222.08 140.23 235.85 148.55 222.71 133 222.08" style="fill:red"/><line x1="134.23" y1="130.68" x2="82.57" y2="162" style="fill:none;stroke:red;stroke-miterlimit:10;stroke-width:4px"/><polygon points="80.48 154.17 73 167.8 88.55 167.47 80.48 154.17" style="fill:red"/><line x1="134.23" y1="122.68" x2="46.1" y2="111.17" style="fill:none;stroke:red;stroke-miterlimit:10;stroke-width:4px"/><polygon points="49.36 103.75 35 109.72 47.35 119.18 49.36 103.75" style="fill:red"/><line x1="134.23" y1="122.68" x2="47.1" y2="111.18" style="fill:none;stroke:red;stroke-miterlimit:10;stroke-width:4px"/><polygon points="50.37 103.77 36 109.72 48.34 119.19 50.37 103.77" style="fill:red"/><line x1="139.23" y1="116.68" x2="104.94" y2="88.16" style="fill:none;stroke:red;stroke-miterlimit:10;stroke-width:4px"/><polygon points="111.67 83.63 96.34 81 101.72 95.59 111.67 83.63" style="fill:red"/><line x1="155.82" y1="136" x2="203.26" y2="195.54" style="fill:none;stroke:red;stroke-miterlimit:10;stroke-width:4px"/><polygon points="195.76 198.61 210.24 204.3 207.93 188.91 195.76 198.61" style="fill:red"/></g></g></svg>