<svg xmlns="http://www.w3.org/2000/svg" xmlns:xlink="http://www.w3.org/1999/xlink" viewBox="0 0 285 285"><defs><linearGradient id="linear-gradient" x1="203.07" y1="578.99" x2="275.96" y2="452.74" gradientTransform="translate(28.45 -447.99) rotate(15.12)" gradientUnits="userSpaceOnUse"><stop offset="0.12" stop-color="#4d4d4d"/><stop offset="0.47" stop-color="#515151"/><stop offset="0.83" stop-color="#5d5d5d"/><stop offset="1" stop-color="#666"/></linearGradient></defs><title>onlySel</title><g id="Layer_2" data-name="Layer 2"><g id="Layer_1-2" data-name="Layer 1"><rect width="285" height="285" style="fill:none"/><circle cx="161.68" cy="168" r="24" style="fill:#4800ff"/><path d="M187.37,176.49l-19.45,19.45c-1.18,1.18-1.48,2.72-.64,3.32l81.86,57.54c1.67,1.18,5.09-2.18,4-3.91l-50.38-76.31C200.18,172.61,192.75,171.11,187.37,176.49Z" style="fill:#4800ff"/><circle cx="252.79" cy="74.34" r="24" style="fill:#4800ff"/><circle cx="249.5" cy="69.98" r="24" style="fill:aqua"/><path d="M242.3,95l-11.57-9.46c-1.18-1.18-15.41-2.85-16-2L162,156.81c-1.18,1.67,2.18,5.08,3.91,4L245,110C248.94,107.46,247.68,100.42,242.3,95Z" style="fill:#4800ff"/><path d="M240.49,94.91,225.4,79.82c-4.48-4.47-10.34-5.55-12.5-2.28l-56.1,84.83c-.85,1.28,1.7,3.8,2.95,2.93l83.11-58C246,105.14,244.92,99.34,240.49,94.91Z" style="fill:aqua"/><circle cx="249.5" cy="69.98" r="10" style="fill:#09000a"/><path d="M184.24,173.3l-15.08,15.09c-4.48,4.48-5.55,10.34-2.29,12.5L251.71,257c1.28.85,3.8-1.7,2.92-3l-57.95-83.1C194.48,167.77,188.68,168.87,184.24,173.3Z" style="fill:#66126b"/><circle cx="255.73" cy="257.58" r="24" style="fill:#4800ff"/><circle cx="251.73" cy="252.58" r="24" style="fill:#66126b"/><circle cx="251.73" cy="252.58" r="10" style="fill:#09000a"/><circle cx="159.31" cy="164.29" r="24" style="fill:#66126b"/><circle cx="159.31" cy="164.29" r="10" style="fill:#09000a"/><polyline points="13.39 85.82 49.75 140.07 112.24 198.09 175.22 169.03 220.95 155.06 187.62 83.52 147.37 31.51 74.57 60.38" style="fill:url(#linear-gradient)"/><polyline points="74.29 60.79 13.11 86.22 50.24 140.68" style="fill:none;stroke:#000;stroke-linecap:round;stroke-linejoin:round;stroke-width:4px"/><line x1="74.29" y1="60.79" x2="50.24" y2="140.68" style="fill:none;stroke:#000;stroke-linecap:round;stroke-linejoin:round;stroke-width:4px"/><line x1="74.29" y1="60.79" x2="119.03" y2="99.2" style="fill:none;stroke:#000;stroke-linecap:round;stroke-linejoin:round;stroke-width:4px"/><polyline points="74.29 60.79 146.88 32.67 187.9 84.89" style="fill:none;stroke:#000;stroke-linecap:round;stroke-linejoin:round;stroke-width:4px"/><line x1="74.29" y1="60.79" x2="187.9" y2="84.89" style="fill:none;stroke:#000;stroke-linecap:round;stroke-linejoin:round;stroke-width:4px"/><line x1="119.03" y1="99.2" x2="187.9" y2="84.89" style="fill:none;stroke:#000;stroke-linecap:round;stroke-linejoin:round;stroke-width:4px"/><polyline points="174.94 169.43 220.67 155.46 187.9 84.89" style="fill:none;stroke:#000;stroke-linecap:round;stroke-linejoin:round;stroke-width:4px"/><line x1="187.9" y1="84.89" x2="174.94" y2="169.43" style="fill:none;stroke:#000;stroke-linecap:round;stroke-linejoin:round;stroke-width:4px"/><line x1="119.03" y1="99.2" x2="50.24" y2="140.68" style="fill:none;stroke:#000;stroke-linecap:round;stroke-linejoin:round;stroke-width:4px"/><line x1="119.03" y1="99.2" x2="174.94" y2="169.43" style="fill:none;stroke:#000;stroke-linecap:round;stroke-linejoin:round;stroke-width:4px"/><polyline points="50.24 140.68 111.96 198.49 174.94 169.43" style="fill:none;stroke:#000;stroke-linecap:round;stroke-linejoin:round;stroke-width:4px"/><line x1="50.24" y1="140.68" x2="174.94" y2="169.43" style="fill:none;stroke:#000;stroke-linecap:round;stroke-linejoin:round;stroke-width:4px"/><polygon points="91.52 158.38 63.4 184.45 63.4 87.65 129.92 158.31 91.52 158.38" style="fill:#980503"/><rect x="9.35" y="81.67" width="8.09" height="8.09" transform="translate(-56.69 34.57) rotate(-45)" style="fill:#ff0"/><rect x="70.52" y="56.34" width="8.09" height="8.09" transform="translate(-20.86 70.41) rotate(-45)" style="fill:#ff0"/><rect x="116.52" y="95.16" width="8.09" height="8.09" transform="translate(-34.83 114.31) rotate(-45)" style="fill:#ff0"/><rect x="47.57" y="136.64" width="8.09" height="8.09" transform="translate(-84.36 77.7) rotate(-45)" style="fill:#ff0"/><g style="opacity:0.3"><circle cx="161.68" cy="168" r="24" style="fill:#4800ff"/><path d="M187.37,176.49l-19.45,19.45c-1.18,1.18-1.48,2.72-.64,3.32l81.86,57.54c1.67,1.18,5.09-2.18,4-3.91l-50.38-76.31C200.18,172.61,192.75,171.11,187.37,176.49Z" style="fill:#4800ff"/><circle cx="252.79" cy="74.34" r="24" style="fill:#4800ff"/><circle cx="249.5" cy="69.98" r="24" style="fill:aqua"/><path d="M242.3,95l-11.57-9.46c-1.18-1.18-15.41-2.85-16-2L162,156.81c-1.18,1.67,2.18,5.08,3.91,4L245,110C248.94,107.46,247.68,100.42,242.3,95Z" style="fill:#4800ff"/><path d="M240.49,94.91,225.4,79.82c-4.48-4.47-10.34-5.55-12.5-2.28l-56.1,84.83c-.85,1.28,1.7,3.8,2.95,2.93l83.11-58C246,105.14,244.92,99.34,240.49,94.91Z" style="fill:aqua"/><circle cx="249.5" cy="69.98" r="10" style="fill:#09000a"/><path d="M184.24,173.3l-15.08,15.09c-4.48,4.48-5.55,10.34-2.29,12.5L251.71,257c1.28.85,3.8-1.7,2.92-3l-57.95-83.1C194.48,167.77,188.68,168.87,184.24,173.3Z" style="fill:#66126b"/><circle cx="255.73" cy="257.58" r="24" style="fill:#4800ff"/><circle cx="251.73" cy="252.58" r="24" style="fill:#66126b"/><circle cx="251.73" cy="252.58" r="10" style="fill:#09000a"/><circle cx="159.31" cy="164.29" r="24" style="fill:#66126b"/><circle cx="159.31" cy="164.29" r="10" style="fill:#09000a"/></g></g></g></svg>