<svg xmlns="http://www.w3.org/2000/svg" viewBox="0 0 285 285"><title>proxy</title><g id="Layer_2" data-name="Layer 2"><g id="Layer_1-2" data-name="Layer 1"><circle cx="78.03" cy="148.47" r="24" style="fill:#4800ff"/><path d="M103.73,157,84.28,176.41c-1.18,1.18-1.48,2.72-.64,3.31l81.86,57.55c1.67,1.18,5.08-2.18,4-3.91L119.08,157C116.54,153.08,109.11,151.57,103.73,157Z" style="fill:#4800ff"/><circle cx="169.15" cy="54.81" r="24" style="fill:#4800ff"/><circle cx="165.85" cy="50.44" r="24" style="fill:#66126b"/><path d="M158.66,75.5,147.08,66c-1.18-1.18-15.41-2.84-16-2L78.34,137.27c-1.17,1.67,2.18,5.09,3.91,4l79.08-50.77C165.3,87.92,164,80.88,158.66,75.5Z" style="fill:#4800ff"/><path d="M156.84,75.37,141.76,60.29c-4.48-4.48-10.34-5.55-12.5-2.29L73.15,142.84c-.84,1.28,1.7,3.8,3,2.92l83.1-57.95C162.38,85.61,161.28,79.81,156.84,75.37Z" style="fill:#66126b"/><circle cx="165.85" cy="50.44" r="10" style="fill:#09000a"/><path d="M100.6,153.77,85.51,168.85c-4.47,4.48-5.55,10.34-2.28,12.5l84.83,56.11c1.28.85,3.8-1.7,2.93-3L113,151.4C110.83,148.23,105,149.34,100.6,153.77Z" style="fill:#66126b"/><circle cx="172.08" cy="238.04" r="24" style="fill:#4800ff"/><circle cx="168.08" cy="233.04" r="24" style="fill:#66126b"/><circle cx="168.08" cy="233.04" r="10" style="fill:#09000a"/><circle cx="75.67" cy="144.76" r="24" style="fill:#66126b"/><circle cx="75.67" cy="144.76" r="10" style="fill:#09000a"/><rect width="285" height="285" style="fill:none"/><path d="M197.76,18.37a45.56,45.56,0,0,0-64.35,0l1.41,1.41-1.45-1.37L80.77,73.93l2.93,2.72.06-.06,54,50-.07.06,2.95,2.73,57-46.58,0,0C215.21,65.07,215.45,36.06,197.76,18.37ZM141.83,123.31,87.33,72.82l48.92-51.64A41.5,41.5,0,0,1,195,79.83Z" style="fill:blue"/><path d="M136.75,132.62l-2.13-2h0L80.22,80.32l0,0-2.93-2.72-34,35.85h0a45.21,45.21,0,0,0-12.9,38.06,45.76,45.76,0,0,0,13,26.28h0L76,208.59l.94-.89h0l56.51-54,.05,0,3.14-3-11.2-8.87Zm-7.63,17.72L74.93,202.12,46.22,174.87a41.51,41.51,0,0,1-.14-58.51h0L76.77,84l53.11,49.12-11.12,9.1Z" style="fill:blue"/><path d="M200.48,201.39,140.55,153.9l-3.12,3,.1.07-56.2,53.41h0L79.58,212l56.88,54h0a45.54,45.54,0,0,0,64.3,0C218.5,248.23,218.22,219.13,200.48,201.39Zm-2.55,61.75c-16.13,16.14-42.55,16-58.74,0h0L139,263l-6-7,6,7L86.36,213l55.41-52.67L198,204.57a41.5,41.5,0,0,1-.11,58.57Z" style="fill:blue"/><path d="M134.9,148.87l11,1.85,17.77-5.38a14.58,14.58,0,0,0-.87,10.38c2.63,8.7,13.28,13.16,23.79,10s16.88-12.81,14.25-21.5-13.27-13.16-23.78-10c-20.78,6.51-26.53,5-26.53,5l-13-2.52C98.62,148.15,60.79,171.3,60.79,171.3Zm43.55-8.63c7.36-2.23,14.71.51,16.41,6.11s-2.9,12-10.27,14.2-14.71-.52-16.41-6.12S171.08,142.47,178.45,140.24Z"/><path d="M66.08,184s42.73-11.87,77.63-32.51l7-11.23s2.81-5.23,21.75-16c9.49-5.51,13.48-16.35,8.92-24.2S165.46,90.35,156,95.86s-13.49,16.35-8.93,24.2a14.55,14.55,0,0,0,8.19,6.44l-16,9.33L133,145.12Zm85.59-67c-2.94-5.07.07-12.31,6.72-16.18s14.44-2.89,17.38,2.18-.06,12.3-6.72,16.17S154.62,122.06,151.67,117Z"/></g></g></svg>