<svg xmlns="http://www.w3.org/2000/svg" viewBox="0 0 285 285"><title>resetJoint</title><g id="Layer_2" data-name="Layer 2"><g id="Layer_1-2" data-name="Layer 1"><rect width="285" height="285" style="fill:none"/><circle cx="104.5" cy="147.48" r="25.33" style="fill:#4800ff"/><path d="M131.62,156.44,111.09,177c-1.25,1.25-1.56,2.88-.67,3.5l86.39,60.74c1.76,1.24,5.36-2.3,4.19-4.13l-53.18-80.55C145.14,152.35,137.29,150.76,131.62,156.44Z" style="fill:#4800ff"/><circle cx="200.66" cy="48.64" r="25.33" style="fill:#4800ff"/><circle cx="197.18" cy="44.03" r="25.33" style="fill:#66126b"/><path d="M189.59,70.48l-12.22-10c-1.24-1.24-16.26-3-16.88-2.11l-55.66,77.29c-1.25,1.77,2.3,5.37,4.12,4.19l83.46-53.59C196.6,83.59,195.27,76.16,189.59,70.48Z" style="fill:#4800ff"/><path d="M187.67,70.34,171.75,54.42C167,49.7,160.84,48.56,158.56,52L99.35,141.54c-.89,1.35,1.79,4,3.12,3.09l87.7-61.16C193.52,81.14,192.35,75,187.67,70.34Z" style="fill:#66126b"/><circle cx="197.18" cy="44.03" r="10.55" style="fill:#09000a"/><path d="M128.31,153.08,112.4,169c-4.73,4.73-5.86,10.91-2.42,13.19l89.53,59.22c1.36.89,4-1.8,3.09-3.12l-61.15-87.71C139.11,147.24,133,148.4,128.31,153.08Z" style="fill:#66126b"/><circle cx="203.76" cy="242.02" r="25.33" style="fill:#4800ff"/><circle cx="199.54" cy="236.74" r="25.33" style="fill:#66126b"/><circle cx="199.54" cy="236.74" r="10.55" style="fill:#09000a"/><circle cx="102" cy="143.57" r="25.33" style="fill:#66126b"/><circle cx="102" cy="143.57" r="10.55" style="fill:#09000a"/><path d="M248.37,130.32A101.83,101.83,0,0,0,240.82,102l-26.25,15.15a71.72,71.72,0,0,1,3.5,13.17Z" style="fill:#f80"/><path d="M240.81,182.64a101.85,101.85,0,0,0,7.57-28.32h-30.3a71.55,71.55,0,0,1-3.52,13.17Z" style="fill:#f80"/><path d="M202.59,188.29A72.35,72.35,0,0,1,193,198l15.16,26.25a103.39,103.39,0,0,0,20.69-20.83Z" style="fill:#f80"/><path d="M146.49,69.73a72.51,72.51,0,0,1,56.13,26.61L228.84,81.2A102.55,102.55,0,0,0,59.21,88.4L44.88,84.16l14,58.16,43.36-41.22L89.51,97.34A72.58,72.58,0,0,1,146.49,69.73Z" style="fill:#f80"/><path d="M172.29,210.16a71.92,71.92,0,0,1-11.24,3.28l-4.93,31a102.17,102.17,0,0,0,31.3-8.08Z" style="fill:#f80"/></g></g></svg>