<svg xmlns="http://www.w3.org/2000/svg" xmlns:xlink="http://www.w3.org/1999/xlink" viewBox="0 0 285 285"><defs><linearGradient id="linear-gradient" x1="109.22" y1="381.28" x2="175.3" y2="266.82" gradientTransform="translate(105.61 -231.66) rotate(15.12)" gradientUnits="userSpaceOnUse"><stop offset="0.12" stop-color="#4d4d4d"/><stop offset="0.47" stop-color="#515151"/><stop offset="0.83" stop-color="#5d5d5d"/><stop offset="1" stop-color="#666"/></linearGradient></defs><title>selectinfl</title><g id="Layer_2" data-name="Layer 2"><g id="Layer_1-2" data-name="Layer 1"><rect width="285" height="285" style="fill:none"/><circle cx="35.97" cy="145.72" r="24" style="fill:#4800ff"/><path d="M61.66,154.21,42.21,173.67c-1.18,1.17-1.47,2.72-.63,3.31l81.85,57.55c1.68,1.17,5.09-2.18,4-3.91L77,154.3C74.48,150.34,67.05,148.83,61.66,154.21Z" style="fill:#4800ff"/><circle cx="127.08" cy="52.06" r="24" style="fill:#4800ff"/><circle cx="123.79" cy="47.7" r="24" style="fill:#66126b"/><path d="M116.59,72.76,105,63.3c-1.18-1.18-15.41-2.84-16-2L36.28,134.53c-1.18,1.67,2.18,5.08,3.91,4l79.08-50.77C123.23,85.18,122,78.14,116.59,72.76Z" style="fill:#4800ff"/><path d="M114.78,72.63,99.7,57.55C95.22,53.07,89.36,52,87.2,55.26L31.09,140.09c-.85,1.28,1.7,3.81,3,2.93l83.1-58C120.32,82.86,119.21,77.06,114.78,72.63Z" style="fill:#66126b"/><circle cx="123.79" cy="47.7" r="10" style="fill:#09000a"/><path d="M58.54,151,43.45,166.11c-4.48,4.48-5.55,10.34-2.28,12.5L126,234.72c1.28.84,3.8-1.7,2.93-3L71,148.66C68.77,145.49,63,146.6,58.54,151Z" style="fill:#66126b"/><circle cx="130.02" cy="235.3" r="24" style="fill:#4800ff"/><circle cx="126.02" cy="230.3" r="24" style="fill:#66126b"/><circle cx="126.02" cy="230.3" r="10" style="fill:#09000a"/><circle cx="33.61" cy="142.02" r="24" style="fill:#66126b"/><circle cx="33.61" cy="142.02" r="10" style="fill:#09000a"/><polyline points="57.12 94.09 90.08 143.28 146.74 195.88 203.83 169.53 245.3 156.86 215.08 92 178.59 44.85 112.58 71.03" style="fill:url(#linear-gradient)"/><polyline points="112.33 71.39 56.87 94.45 90.52 143.83" style="fill:none;stroke:#000;stroke-linecap:round;stroke-linejoin:round;stroke-width:4px"/><line x1="112.33" y1="71.39" x2="90.52" y2="143.83" style="fill:none;stroke:#000;stroke-linecap:round;stroke-linejoin:round;stroke-width:4px"/><line x1="112.33" y1="71.39" x2="152.9" y2="106.22" style="fill:none;stroke:#000;stroke-linecap:round;stroke-linejoin:round;stroke-width:4px"/><polyline points="112.33 71.39 178.14 45.91 215.33 93.25" style="fill:none;stroke:#000;stroke-linecap:round;stroke-linejoin:round;stroke-width:4px"/><line x1="112.33" y1="71.39" x2="215.33" y2="93.25" style="fill:none;stroke:#000;stroke-linecap:round;stroke-linejoin:round;stroke-width:4px"/><line x1="152.9" y1="106.22" x2="215.33" y2="93.25" style="fill:none;stroke:#000;stroke-linecap:round;stroke-linejoin:round;stroke-width:4px"/><polyline points="203.58 169.89 245.04 157.22 215.33 93.25" style="fill:none;stroke:#000;stroke-linecap:round;stroke-linejoin:round;stroke-width:4px"/><line x1="215.33" y1="93.25" x2="203.58" y2="169.89" style="fill:none;stroke:#000;stroke-linecap:round;stroke-linejoin:round;stroke-width:4px"/><line x1="152.9" y1="106.22" x2="90.52" y2="143.83" style="fill:none;stroke:#000;stroke-linecap:round;stroke-linejoin:round;stroke-width:4px"/><line x1="152.9" y1="106.22" x2="203.58" y2="169.89" style="fill:none;stroke:#000;stroke-linecap:round;stroke-linejoin:round;stroke-width:4px"/><polyline points="90.52 143.83 146.48 196.24 203.58 169.89" style="fill:none;stroke:#000;stroke-linecap:round;stroke-linejoin:round;stroke-width:4px"/><line x1="90.52" y1="143.83" x2="203.58" y2="169.89" style="fill:none;stroke:#000;stroke-linecap:round;stroke-linejoin:round;stroke-width:4px"/><polygon points="209.28 233.63 181.16 259.7 181.16 162.9 247.69 233.55 209.28 233.63" style="fill:#980503"/><rect x="87.84" y="139.78" width="8.09" height="8.09" transform="translate(-74.79 107.09) rotate(-45)" style="fill:#ff0"/><rect x="148.85" y="102.18" width="8.09" height="8.09" transform="translate(-30.33 139.23) rotate(-45)" style="fill:#ff0"/><rect x="143.01" y="191.83" width="8.09" height="8.09" transform="translate(-95.44 161.35) rotate(-45)" style="fill:#ff0"/><rect x="199.53" y="165.99" width="8.09" height="8.09" transform="translate(-60.6 193.75) rotate(-45)" style="fill:#ff0"/></g></g></svg>