<svg xmlns="http://www.w3.org/2000/svg" xmlns:xlink="http://www.w3.org/1999/xlink" viewBox="0 0 285 285"><defs><radialGradient id="radial-gradient" cx="829.1" cy="1059.86" r="19.35" gradientTransform="translate(384.7 -1248.34) rotate(45)" gradientUnits="userSpaceOnUse"><stop offset="0.77" stop-color="#662d91"/><stop offset="0.8" stop-color="#702c91"/><stop offset="0.87" stop-color="#832990"/><stop offset="0.93" stop-color="#8f288f"/><stop offset="1" stop-color="#93278f"/></radialGradient><linearGradient id="linear-gradient" x1="812.48" y1="1122.73" x2="846.67" y2="1122.73" gradientTransform="translate(384.7 -1248.34) rotate(45)" gradientUnits="userSpaceOnUse"><stop offset="0.66" stop-color="#662d91"/><stop offset="0.71" stop-color="#782b90"/><stop offset="0.79" stop-color="#872990"/><stop offset="0.87" stop-color="#90278f"/><stop offset="1" stop-color="#93278f"/></linearGradient><radialGradient id="radial-gradient-2" cx="829.1" cy="1059.86" r="8.06" gradientTransform="translate(384.7 -1248.34) rotate(45)" gradientUnits="userSpaceOnUse"><stop offset="0" stop-color="#93278f"/><stop offset="0.38" stop-color="#91278f"/><stop offset="0.51" stop-color="#8a288f"/><stop offset="0.61" stop-color="#7f2a90"/><stop offset="0.69" stop-color="#6e2c91"/><stop offset="0.71" stop-color="#662d91"/></radialGradient><linearGradient id="linear-gradient-2" x1="410.34" y1="-973.65" x2="444.52" y2="-973.65" gradientTransform="translate(579.86 1198.22) rotate(-45)" xlink:href="#linear-gradient"/><radialGradient id="radial-gradient-3" cx="223.33" cy="234.55" r="19.35" gradientTransform="matrix(1, 0, 0, 1, 0, 0)" xlink:href="#radial-gradient"/><radialGradient id="radial-gradient-4" cx="223.33" cy="234.55" r="8.06" gradientTransform="matrix(1, 0, 0, 1, 0, 0)" xlink:href="#radial-gradient-2"/><radialGradient id="radial-gradient-5" cx="426.96" cy="-1036.53" r="19.35" gradientTransform="translate(579.86 1198.22) rotate(-45)" xlink:href="#radial-gradient"/><radialGradient id="radial-gradient-6" cx="426.96" cy="-1036.53" r="8.06" gradientTransform="translate(579.86 1198.22) rotate(-45)" xlink:href="#radial-gradient-2"/><linearGradient id="linear-gradient-3" x1="219.27" y1="431.33" x2="272.32" y2="339.46" gradientTransform="translate(-43.2 -345.99) rotate(15.12)" gradientUnits="userSpaceOnUse"><stop offset="0.12" stop-color="#4d4d4d"/><stop offset="0.47" stop-color="#515151"/><stop offset="0.83" stop-color="#5d5d5d"/><stop offset="1" stop-color="#666"/></linearGradient></defs><title>selectJnts</title><g id="Layer_2" data-name="Layer 2"><g id="Layer_1-2" data-name="Layer 1"><rect width="285" height="285" style="fill:none"/><circle cx="150.74" cy="166.37" r="19.35" style="fill:#4800ff"/><path d="M171.45,173.22,155.77,188.9c-1,.95-1.19,2.19-.51,2.67l66,46.39c1.34.95,4.09-1.76,3.2-3.15l-40.62-61.52C181.78,170.09,175.79,168.88,171.45,173.22Z" style="fill:#4800ff"/><circle cx="224.19" cy="90.87" r="19.35" style="fill:#4800ff"/><circle cx="221.53" cy="87.36" r="19.35" style="fill:url(#radial-gradient)"/><path d="M215.73,107.56l-9.33-7.63c-1-1-12.42-2.29-12.9-1.61l-42.51,59c-1,1.35,1.76,4.1,3.15,3.2l63.75-40.93C221.08,117.57,220.07,111.89,215.73,107.56Z" style="fill:#4800ff"/><path d="M214.27,107.45,202.11,95.29c-3.61-3.61-8.33-4.47-10.07-1.84l-45.23,68.38c-.69,1,1.37,3.07,2.38,2.36l67-46.71C218.73,115.7,217.84,111,214.27,107.45Z" style="fill:url(#linear-gradient)"/><circle cx="221.53" cy="87.36" r="8.06" style="fill:url(#radial-gradient-2)"/><path d="M168.93,170.65l-12.16,12.16c-3.61,3.61-4.47,8.33-1.84,10.07l68.38,45.23c1,.68,3.07-1.37,2.36-2.38l-46.71-67C177.18,166.19,172.5,167.08,168.93,170.65Z" style="fill:url(#linear-gradient-2)"/><circle cx="226.56" cy="238.58" r="19.35" style="fill:#4800ff"/><circle cx="223.33" cy="234.55" r="19.35" style="fill:url(#radial-gradient-3)"/><circle cx="223.33" cy="234.55" r="8.06" style="fill:url(#radial-gradient-4)"/><circle cx="148.83" cy="163.39" r="19.35" style="fill:url(#radial-gradient-5)"/><circle cx="148.83" cy="163.39" r="8.06" style="fill:url(#radial-gradient-6)"/><polyline points="12.25 70.77 38.71 110.25 84.18 152.47 130.01 131.32 163.3 121.15 139.04 69.09 109.75 31.24 56.77 52.25" style="fill:url(#linear-gradient-3)"/><polyline points="56.56 52.55 12.04 71.06 39.06 110.69" style="fill:none;stroke:#000;stroke-linecap:round;stroke-linejoin:round;stroke-width:4px"/><line x1="56.56" y1="52.55" x2="39.06" y2="110.69" style="fill:none;stroke:#000;stroke-linecap:round;stroke-linejoin:round;stroke-width:4px"/><line x1="56.56" y1="52.55" x2="89.13" y2="80.5" style="fill:none;stroke:#000;stroke-linecap:round;stroke-linejoin:round;stroke-width:4px"/><polyline points="56.56 52.55 109.39 32.09 139.24 70.09" style="fill:none;stroke:#000;stroke-linecap:round;stroke-linejoin:round;stroke-width:4px"/><line x1="56.56" y1="52.55" x2="139.24" y2="70.09" style="fill:none;stroke:#000;stroke-linecap:round;stroke-linejoin:round;stroke-width:4px"/><line x1="89.13" y1="80.5" x2="139.24" y2="70.09" style="fill:none;stroke:#000;stroke-linecap:round;stroke-linejoin:round;stroke-width:4px"/><polyline points="129.81 131.61 163.09 121.44 139.24 70.09" style="fill:none;stroke:#000;stroke-linecap:round;stroke-linejoin:round;stroke-width:4px"/><line x1="139.24" y1="70.09" x2="129.81" y2="131.61" style="fill:none;stroke:#000;stroke-linecap:round;stroke-linejoin:round;stroke-width:4px"/><line x1="89.13" y1="80.5" x2="39.06" y2="110.69" style="fill:none;stroke:#000;stroke-linecap:round;stroke-linejoin:round;stroke-width:4px"/><line x1="89.13" y1="80.5" x2="129.81" y2="131.61" style="fill:none;stroke:#000;stroke-linecap:round;stroke-linejoin:round;stroke-width:4px"/><polyline points="39.06 110.69 83.98 152.76 129.81 131.61" style="fill:none;stroke:#000;stroke-linecap:round;stroke-linejoin:round;stroke-width:4px"/><line x1="39.06" y1="110.69" x2="129.81" y2="131.61" style="fill:none;stroke:#000;stroke-linecap:round;stroke-linejoin:round;stroke-width:4px"/><polygon points="242.36 134.84 223.01 152.78 223.01 86.16 268.79 134.78 242.36 134.84" style="fill:#980503"/><polygon points="166.55 209.41 147.19 227.35 147.19 160.73 192.98 209.36 166.55 209.41" style="fill:#980503"/><path d="M169.52,83.48,175.35,78,183,110.63l-32.06-9.71,3-2.84a3.89,3.89,0,0,0-1.33-6.49c-16.22-6-34.22-4.12-41.7-2.93a3.88,3.88,0,0,1-4.4-2.93L106,83.48l-.45-1.9a3.87,3.87,0,0,1,3.12-4.72c9.77-1.64,35.18-4.32,56.38,7.19A3.87,3.87,0,0,0,169.52,83.48Z" style="fill:red"/></g></g></svg>