<svg xmlns="http://www.w3.org/2000/svg" xmlns:xlink="http://www.w3.org/1999/xlink" viewBox="0 0 285 285"><defs><linearGradient id="linear-gradient" x1="69.83" y1="211.74" x2="169.26" y2="39.53" gradientUnits="userSpaceOnUse"><stop offset="0.12" stop-color="#4d4d4d"/><stop offset="0.47" stop-color="#515151"/><stop offset="0.83" stop-color="#5d5d5d"/><stop offset="1" stop-color="#666"/></linearGradient><linearGradient id="linear-gradient-2" x1="451.46" y1="240.86" x2="486.02" y2="180.99" gradientTransform="translate(-174.71 -169.67) rotate(15.12)" xlink:href="#linear-gradient"/></defs><title>seperate</title><g id="Layer_2" data-name="Layer 2"><g id="Layer_1-2" data-name="Layer 1"><polygon points="195.21 206.16 122.85 242.35 51.92 170.37 10.02 103.76 81.03 71.23 162.97 35.89 210.1 100.91 130.97 118.73 195.21 206.16" style="fill:url(#linear-gradient)"/><rect width="285" height="285" style="fill:none"/><polyline points="221.86 204.24 267.6 190.26 234.26 118.73 165.68 134.41" style="fill:url(#linear-gradient-2)"/><line x1="165.68" y1="134.41" x2="234.54" y2="120.1" style="fill:none;stroke:#000;stroke-linecap:round;stroke-linejoin:round;stroke-width:4px"/><polyline points="221.58 204.64 267.32 190.66 234.54 120.1" style="fill:none;stroke:#000;stroke-linecap:round;stroke-linejoin:round;stroke-width:4px"/><line x1="234.54" y1="120.1" x2="221.58" y2="204.64" style="fill:none;stroke:#000;stroke-linecap:round;stroke-linejoin:round;stroke-width:4px"/><line x1="165.68" y1="134.41" x2="221.58" y2="204.64" style="fill:none;stroke:#000;stroke-linecap:round;stroke-linejoin:round;stroke-width:4px"/><polyline points="79.56 70.89 9.27 102.56 51.92 170.37" style="fill:none;stroke:#000;stroke-linecap:round;stroke-linejoin:round;stroke-width:4px"/><line x1="79.56" y1="70.89" x2="51.93" y2="170.37" style="fill:none;stroke:#000;stroke-linecap:round;stroke-linejoin:round;stroke-width:4px"/><line x1="79.56" y1="70.89" x2="130.98" y2="118.73" style="fill:none;stroke:#000;stroke-linecap:round;stroke-linejoin:round;stroke-width:4px"/><polyline points="79.56 70.89 162.97 35.89 210.1 100.91" style="fill:none;stroke:#000;stroke-linecap:round;stroke-linejoin:round;stroke-width:4px"/><polyline points="9.27 102.56 79.56 70.89 210.1 100.91" style="fill:none;stroke:#000;stroke-linecap:round;stroke-linejoin:round;stroke-width:4px"/><line x1="130.98" y1="118.73" x2="210.1" y2="100.91" style="fill:none;stroke:#000;stroke-linecap:round;stroke-linejoin:round;stroke-width:4px"/><line x1="130.98" y1="118.73" x2="51.93" y2="170.37" style="fill:none;stroke:#000;stroke-linecap:round;stroke-linejoin:round;stroke-width:4px"/><polyline points="210.1 100.91 130.97 118.73 195.21 206.16" style="fill:none;stroke:#000;stroke-linecap:round;stroke-linejoin:round;stroke-width:4px"/><polyline points="51.92 170.37 122.85 242.35 195.21 206.16" style="fill:none;stroke:#000;stroke-linecap:round;stroke-linejoin:round;stroke-width:4px"/><line x1="51.93" y1="170.37" x2="195.21" y2="206.16" style="fill:none;stroke:#000;stroke-linecap:round;stroke-linejoin:round;stroke-width:4px"/><path d="M187.27,107.8l6.4-6.91,11.68,37.73-38.52-8.75,3.33-3.59a4.59,4.59,0,0,0-2.1-7.52c-19.58-5.71-40.6-2-49.3,0a4.58,4.58,0,0,1-5.42-3.08l-.81-2.6-.69-2.2a4.58,4.58,0,0,1,3.28-5.82c11.35-2.74,41-8,66.9,3.76A4.58,4.58,0,0,0,187.27,107.8Z" style="fill:red"/></g></g></svg>