<svg xmlns="http://www.w3.org/2000/svg" xmlns:xlink="http://www.w3.org/1999/xlink" viewBox="0 0 285 285"><defs><linearGradient id="linear-gradient" x1="89.22" y1="62.5" x2="111" y2="24.77" gradientUnits="userSpaceOnUse"><stop offset="0.12" stop-color="#4d4d4d"/><stop offset="0.47" stop-color="#515151"/><stop offset="0.83" stop-color="#5d5d5d"/><stop offset="1" stop-color="#666"/></linearGradient><linearGradient id="linear-gradient-2" x1="36.18" y1="153.02" x2="57.29" y2="116.45" xlink:href="#linear-gradient"/><linearGradient id="linear-gradient-3" x1="140.67" y1="153.02" x2="161.79" y2="116.45" xlink:href="#linear-gradient"/><linearGradient id="linear-gradient-4" x1="62.93" y1="178.37" x2="137.44" y2="49.32" xlink:href="#linear-gradient"/><linearGradient id="linear-gradient-5" x1="75.09" y1="167.7" x2="124.89" y2="81.46" xlink:href="#linear-gradient"/><linearGradient id="linear-gradient-6" x1="174.25" y1="147.96" x2="196.03" y2="110.24" gradientUnits="userSpaceOnUse"><stop offset="0.12" stop-color="#d9e021"/><stop offset="0.28" stop-color="#d5dc23"/><stop offset="0.44" stop-color="#cad02a"/><stop offset="0.6" stop-color="#b7bc36"/><stop offset="0.76" stop-color="#9c9f46"/><stop offset="0.92" stop-color="#7a7b5a"/><stop offset="1" stop-color="#666"/></linearGradient><linearGradient id="linear-gradient-7" x1="172.94" y1="151.15" x2="197.68" y2="108.3" gradientUnits="userSpaceOnUse"><stop offset="0.12" stop-color="#fcee21"/><stop offset="0.26" stop-color="#f8ea23"/><stop offset="0.41" stop-color="#ecdf28"/><stop offset="0.55" stop-color="#d8cd32"/><stop offset="0.7" stop-color="#bbb33f"/><stop offset="0.84" stop-color="#969250"/><stop offset="0.99" stop-color="#6a6a64"/><stop offset="1" stop-color="#666"/></linearGradient><linearGradient id="linear-gradient-8" x1="121.21" y1="238.49" x2="142.33" y2="201.92" gradientUnits="userSpaceOnUse"><stop offset="0.13" stop-color="#f15a24"/><stop offset="0.27" stop-color="#ed5a26"/><stop offset="0.42" stop-color="#e15b2c"/><stop offset="0.57" stop-color="#cd5d35"/><stop offset="0.72" stop-color="#b06043"/><stop offset="0.87" stop-color="#8c6354"/><stop offset="1" stop-color="#666"/></linearGradient><linearGradient id="linear-gradient-9" x1="119.96" y1="240.66" x2="143.58" y2="199.76" gradientUnits="userSpaceOnUse"><stop offset="0.12" stop-color="#f7931e"/><stop offset="0.27" stop-color="#f39220"/><stop offset="0.41" stop-color="#e78e26"/><stop offset="0.56" stop-color="#d38830"/><stop offset="0.71" stop-color="#b67f3e"/><stop offset="0.85" stop-color="#927450"/><stop offset="1" stop-color="#666"/></linearGradient><linearGradient id="linear-gradient-10" x1="225.71" y1="238.49" x2="246.82" y2="201.92" xlink:href="#linear-gradient-8"/><linearGradient id="linear-gradient-11" x1="224.46" y1="240.66" x2="248.07" y2="199.76" xlink:href="#linear-gradient-9"/><linearGradient id="linear-gradient-12" x1="147.97" y1="263.84" x2="222.48" y2="134.79" xlink:href="#linear-gradient"/><linearGradient id="linear-gradient-13" x1="160.13" y1="253.17" x2="209.92" y2="166.93" gradientUnits="userSpaceOnUse"><stop offset="0.12" stop-color="aqua"/><stop offset="0.26" stop-color="#03fbfb"/><stop offset="0.41" stop-color="#0befef"/><stop offset="0.55" stop-color="#18dbdb"/><stop offset="0.69" stop-color="#2bbebe"/><stop offset="0.84" stop-color="#499"/><stop offset="0.98" stop-color="#616d6d"/><stop offset="1" stop-color="#666"/></linearGradient><linearGradient id="linear-gradient-14" x1="158.88" y1="255.34" x2="211.17" y2="164.76" gradientUnits="userSpaceOnUse"><stop offset="0.12" stop-color="#1b1464"/><stop offset="0.32" stop-color="#1f1864"/><stop offset="0.51" stop-color="#2a2464"/><stop offset="0.71" stop-color="#3c3865"/><stop offset="0.9" stop-color="#565566"/><stop offset="1" stop-color="#666"/></linearGradient></defs><title>shellUnify</title><g id="Layer_2" data-name="Layer 2"><g id="Layer_1-2" data-name="Layer 1"><rect width="285" height="285" style="fill:none"/><path d="M97.71,33.17H99.3a22.75,22.75,0,0,1,21.76,16.15h9.71A22.73,22.73,0,0,0,108,26.58H89.14A22.74,22.74,0,0,0,66.4,49.32h9.54A22.76,22.76,0,0,1,97.71,33.17Z" style="stroke:#000;stroke-miterlimit:10;stroke-width:5px;fill:url(#linear-gradient)"/><rect x="35.81" y="112.05" width="21.86" height="45.38" rx="10.93" ry="10.93" style="stroke:#000;stroke-miterlimit:10;stroke-width:5px;fill:url(#linear-gradient-2)"/><rect x="140.3" y="112.05" width="21.86" height="45.38" rx="10.93" ry="10.93" style="stroke:#000;stroke-miterlimit:10;stroke-width:5px;fill:url(#linear-gradient-3)"/><path d="M137.77,175.09H61.4a15.47,15.47,0,0,1-15.46-16L49.22,64A15.48,15.48,0,0,1,64.68,49h68.08a15.47,15.47,0,0,1,15.45,14.66l5,95.14A15.47,15.47,0,0,1,137.77,175.09Z" style="stroke:#000;stroke-miterlimit:10;stroke-width:5px;fill:url(#linear-gradient-4)"/><path d="M125.1,165.51h-51a10.33,10.33,0,0,1-10.33-10.69l2.19-63.58a10.34,10.34,0,0,1,10.33-10h45.5a10.34,10.34,0,0,1,10.32,9.8l3.35,63.58A10.34,10.34,0,0,1,125.1,165.51Z" style="stroke:#000;stroke-miterlimit:10;stroke-width:5px;fill:url(#linear-gradient-5)"/><rect x="76.16" y="137.37" width="44.68" height="5.09" rx="2.54" ry="2.54"/><rect x="111.47" y="139.91" width="4.28" height="11.33" rx="2.14" ry="2.14"/><path d="M182.74,118.64h1.59a22.73,22.73,0,0,1,21.76,16.15h9.72a22.74,22.74,0,0,0-22.74-22.74h-18.9a22.74,22.74,0,0,0-22.74,22.74H161A22.72,22.72,0,0,1,182.74,118.64Z" style="stroke-miterlimit:10;stroke-width:5px;fill:url(#linear-gradient-6);stroke:url(#linear-gradient-7)"/><rect x="120.84" y="197.52" width="21.86" height="45.38" rx="10.93" ry="10.93" style="stroke-miterlimit:10;stroke-width:5px;fill:url(#linear-gradient-8);stroke:url(#linear-gradient-9)"/><rect x="225.33" y="197.52" width="21.86" height="45.38" rx="10.93" ry="10.93" style="stroke-miterlimit:10;stroke-width:5px;fill:url(#linear-gradient-10);stroke:url(#linear-gradient-11)"/><path d="M222.8,260.56H146.44a15.48,15.48,0,0,1-15.47-16l3.28-95.13a15.48,15.48,0,0,1,15.46-14.94H217.8a15.48,15.48,0,0,1,15.45,14.66l5,95.13A15.47,15.47,0,0,1,222.8,260.56Z" style="stroke:#000;stroke-miterlimit:10;stroke-width:5px;fill:url(#linear-gradient-12)"/><path d="M210.13,251h-51a10.34,10.34,0,0,1-10.33-10.7L151,176.7a10.34,10.34,0,0,1,10.33-10h45.5a10.33,10.33,0,0,1,10.32,9.8l3.35,63.58A10.34,10.34,0,0,1,210.13,251Z" style="stroke-miterlimit:10;stroke-width:5px;fill:url(#linear-gradient-13);stroke:url(#linear-gradient-14)"/><rect x="161.2" y="222.83" width="44.68" height="5.09" rx="2.54" ry="2.54"/><rect x="196.5" y="225.38" width="4.28" height="11.33" rx="2.14" ry="2.14"/><path d="M185.94,120.27l7.82-1.69L183.5,150.47,161,125.64l4.06-.87a3.9,3.9,0,0,0,2.21-6.25C156.45,105,140,97.38,133,94.56a3.89,3.89,0,0,1-2.26-4.79l.7-2.19.59-1.87a3.88,3.88,0,0,1,5.11-2.44c9.22,3.62,32.38,14.4,44.63,35.17A3.89,3.89,0,0,0,185.94,120.27Z" style="fill:red"/></g></g></svg>