<svg xmlns="http://www.w3.org/2000/svg" viewBox="0 0 285 285"><title>skinToSkin</title><g id="Layer_2" data-name="Layer 2"><g id="Layer_1-2" data-name="Layer 1"><rect width="285" height="285" style="fill:none"/><circle cx="177.34" cy="150.48" r="17.44" style="fill:#4800ff"/><path d="M196,156.65l-14.13,14.13c-.86.86-1.07,2-.46,2.41L240.89,215c1.22.86,3.7-1.58,2.89-2.84l-36.61-55.45C205.32,153.83,199.92,152.74,196,156.65Z" style="fill:#4800ff"/><circle cx="243.54" cy="82.43" r="17.44" style="fill:#4800ff"/><circle cx="241.15" cy="79.26" r="17.44" style="fill:#66126b"/><path d="M235.92,97.47l-8.41-6.88c-.85-.85-11.19-2.06-11.62-1.45l-38.32,53.21c-.86,1.21,1.58,3.69,2.84,2.89l57.46-36.9C240.75,106.49,239.83,101.38,235.92,97.47Z" style="fill:#4800ff"/><path d="M234.6,97.37l-10.95-11c-3.26-3.26-7.52-4-9.09-1.67L173.8,146.39c-.62.93,1.23,2.76,2.15,2.13l60.38-42.11C238.63,104.81,237.83,100.6,234.6,97.37Z" style="fill:#66126b"/><circle cx="241.15" cy="79.26" r="7.27" style="fill:#09000a"/><path d="M193.74,154.34l-11,10.95c-3.25,3.26-4,7.52-1.66,9.08l61.64,40.77c.93.62,2.76-1.23,2.12-2.15l-42.1-60.38C201.17,150.31,197,151.11,193.74,154.34Z" style="fill:#66126b"/><circle cx="245.68" cy="215.56" r="17.44" style="fill:#4800ff"/><circle cx="242.77" cy="211.93" r="17.44" style="fill:#66126b"/><circle cx="242.77" cy="211.93" r="7.27" style="fill:#09000a"/><circle cx="175.63" cy="147.79" r="17.44" style="fill:#66126b"/><circle cx="175.63" cy="147.79" r="7.27" style="fill:#09000a"/><path d="M211.76,145.71l52.47-42.91h0c12.79-12.9,13-34,.11-46.83a33.09,33.09,0,0,0-46.75,0l1,1-1.06-1-65.39,69h0a32.8,32.8,0,0,0-9.37,27.65,33.25,33.25,0,0,0,9.44,19.1h0l67.57,64.12h0a33,33,0,1,0,46.52-46.95Zm61.53,66.77a30,30,0,0,1-8.83,21.32,30.36,30.36,0,0,1-42.68,0h0l-.11-.1-4.36-5.09,4.36,5.09-67.44-64a30.16,30.16,0,0,1-.1-42.52h0L219.64,58a30.15,30.15,0,0,1,42.68,42.61l-55.38,45.31,57.6,45.33A30,30,0,0,1,273.29,212.48Z" style="fill:blue"/><circle cx="40.74" cy="153.22" r="17.44" style="fill:#4800ff"/><path d="M59.41,159.39,45.27,173.52c-.85.86-1.07,2-.46,2.41l59.47,41.82c1.22.85,3.7-1.59,2.89-2.85L70.56,159.45C68.71,156.57,63.31,155.48,59.41,159.39Z" style="fill:#4800ff"/><circle cx="106.94" cy="85.17" r="17.44" style="fill:#4800ff"/><circle cx="104.54" cy="82" r="17.44" style="fill:#66126b"/><path d="M99.32,100.21l-8.41-6.87c-.86-.86-11.2-2.07-11.63-1.46L41,145.09c-.85,1.22,1.59,3.69,2.84,2.89l57.46-36.9C104.14,109.24,103.22,104.12,99.32,100.21Z" style="fill:#4800ff"/><path d="M98,100.12l-11-11c-3.26-3.26-7.51-4-9.08-1.66L37.19,149.13c-.61.93,1.24,2.77,2.15,2.13l60.38-42.1C102,107.55,101.22,103.34,98,100.12Z" style="fill:#66126b"/><circle cx="104.54" cy="82" r="7.27" style="fill:#09000a"/><path d="M57.13,157.08l-11,11c-3.25,3.25-4,7.51-1.66,9.08l61.64,40.76c.93.62,2.76-1.23,2.13-2.14L66.17,155.36C64.57,153.05,60.35,153.86,57.13,157.08Z" style="fill:#66126b"/><circle cx="109.07" cy="218.31" r="17.44" style="fill:#4800ff"/><circle cx="106.16" cy="214.67" r="17.44" style="fill:#66126b"/><circle cx="106.16" cy="214.67" r="7.27" style="fill:#09000a"/><circle cx="39.02" cy="150.53" r="17.44" style="fill:#66126b"/><circle cx="39.02" cy="150.53" r="7.27" style="fill:#09000a"/><path d="M75.15,148.45l52.47-42.91h0c12.79-12.9,13-34,.11-46.83A33.09,33.09,0,0,0,81,58.7l1,1-1.06-1-65.39,69h0a32.85,32.85,0,0,0-9.37,27.66,33.25,33.25,0,0,0,9.44,19.09h0l67.57,64.12h0a33.07,33.07,0,0,0,46.71,0,33.3,33.3,0,0,0-.2-46.92Zm61.53,66.77a30,30,0,0,1-8.83,21.33,30.36,30.36,0,0,1-42.68,0h0l-.11-.1-4.36-5.09,4.36,5.09-67.44-64a30.15,30.15,0,0,1-.1-42.51h0L83,60.75a30.15,30.15,0,0,1,42.68,42.6L70.33,148.66,127.93,194A30,30,0,0,1,136.68,215.22Z" style="fill:blue"/><polygon points="179.74 148.66 127.99 112.29 127.99 132.94 84.6 132.94 84.6 164.37 127.99 164.37 127.99 185.02 179.74 148.66" style="fill:#ff1912"/></g></g></svg>