<svg xmlns="http://www.w3.org/2000/svg" viewBox="0 0 285 285"><title>smooth</title><g id="Layer_2" data-name="Layer 2"><g id="Layer_1-2" data-name="Layer 1"><path d="M104.8,134.55l-22.56,3.61,36.24-24.33c2-1.31.68-2.83-3.18-3.77a39,39,0,0,0-13.9-.38l-9.79,1.57L103,106.67c3.18-1.27,2.75-3-1-4.14a36.48,36.48,0,0,0-12.42-.92l4.13-4.25c1.11-1.14-.07-2.35-3-3.18l16.77-16c1.37-1.31-.26-2.71-4.11-3.55A33.66,33.66,0,0,0,97.8,74l11.72-16.75c.9-1.28-1-2.59-4.81-3.34a34.75,34.75,0,0,0-5.74-.6l1-2.38H75.82l-3.11,7.4c-.52,1.25,1.54,2.47,5.33,3.16a32.54,32.54,0,0,0,3.76.45l-11.87,17c-.9,1.28,1,2.59,4.81,3.34.94.19,2,.33,3,.44L63,96.79c-1.25,1.2,0,2.48,3.22,3.33L59,107.54c-1.24,1.28.38,2.64,4.12,3.46L41.6,119.62c-3.19,1.28-2.75,3,1,4.15a37.6,37.6,0,0,0,14.81.62l25.39-4.06L46.61,144.65c-2,1.32-.68,2.83,3.18,3.77a39,39,0,0,0,13.9.38L83,145.71,41.17,169.65c-2.3,1.31-1.23,2.88,2.62,3.88A38.76,38.76,0,0,0,58,174l4.73-.76-4.81,13.23c-.45,1.24,1.64,2.44,5.42,3.12a37.14,37.14,0,0,0,6.74.53l-3.15,4.45c-.91,1.28,1,2.58,4.79,3.34a39,39,0,0,0,9.72.53L68.65,211.2c-1.3,1.3.37,2.69,4.21,3.52a38.94,38.94,0,0,0,9.66.63l-18,11.1c-2.14,1.31-1,2.86,2.89,3.83a27.11,27.11,0,0,0,3.34.59l-2,1.93c-1.37,1.3.26,2.7,4.11,3.54a36,36,0,0,0,7.4.71,38.55,38.55,0,0,0,6-.45l25.15-4c5.74-.92,7.7-3,4.39-4.54S105.65,226,100,226.72l.11-.1c1.34-1.28-.22-2.66-4-3.5l23-14.16c2.14-1.32,1-2.86-2.89-3.83a38.56,38.56,0,0,0-14-.41l-2.73.43,12.57-12.59c1.29-1.3-.37-2.69-4.22-3.52a39.94,39.94,0,0,0-12.41-.38l2.78-3.92c.9-1.28-1-2.59-4.8-3.35a39.72,39.72,0,0,0-9.46-.55l4.89-13.42c.45-1.24-1.64-2.44-5.42-3.12a36.52,36.52,0,0,0-5.43-.52l43.53-24.91c2.3-1.31,1.23-2.89-2.63-3.88A38.7,38.7,0,0,0,104.8,134.55Z" style="fill:#4800ff"/><path d="M98.91,131.59,81,134.46c-1.26.2-2.06-1-1.1-1.63l32.71-22c2-1.32.68-2.83-3.18-3.77a39,39,0,0,0-13.9-.38l-1.08.17c-1.42.23-2.14-1.24-.85-1.76l3.54-1.42c3.19-1.28,2.75-3-1.05-4.14a33.54,33.54,0,0,0-9.75-1.06c-1,0-1.69-.86-1.07-1.49l2.54-2.62c.91-1,.27-1.93-1.63-2.72-.68-.28-.87-1-.39-1.41l15.78-15c1.37-1.3-.26-2.7-4.11-3.54a29.8,29.8,0,0,0-3.68-.54c-.88-.08-1.38-.79-1-1.38l10.84-15.5c.89-1.28-1-2.58-4.81-3.34a32.24,32.24,0,0,0-4.18-.52c-.8-.06-1.32-.65-1.08-1.23h0c.26-.61-.35-1.23-1.2-1.23H70.85a1.29,1.29,0,0,0-1.2.66l-2.83,6.74c-.52,1.25,1.54,2.48,5.33,3.17.63.11,1.29.21,2,.29.86.1,1.35.79.94,1.37L64,76c-.89,1.28,1,2.58,4.82,3.34l1,.17c.92.15,1.33,1,.75,1.51L57.06,93.84c-1.06,1-.32,2.07,1.85,2.89a.84.84,0,0,1,.43,1.4l-6.27,6.46c-.93,1-.25,2,1.72,2.75.89.36.93,1.3,0,1.66L35.7,116.67c-3.18,1.28-2.75,3,1.06,4.14s10,1.4,14.81.63l20.76-3.32c1.26-.21,2.06,1,1.1,1.63L40.72,141.7c-2,1.31-.68,2.83,3.18,3.77a39,39,0,0,0,13.9.38l13.81-2.21c1.31-.21,2.09,1.06,1,1.67L35.27,166.69C33,168,34,169.58,37.9,170.57a38.49,38.49,0,0,0,14.16.45l2.72-.44c.92-.14,1.72.49,1.48,1.18L52,183.48c-.45,1.24,1.65,2.45,5.43,3.13a36,36,0,0,0,4.73.49c.92,0,1.49.78,1,1.39L61,191.58c-.91,1.28,1,2.59,4.79,3.35a37,37,0,0,0,7.12.62c1,0,1.63.89,1,1.51L62.75,208.25c-1.3,1.3.37,2.69,4.22,3.51a34.4,34.4,0,0,0,6.13.68c1.15,0,1.62,1.13.73,1.67l-15.25,9.38c-2.14,1.32-1,2.86,2.89,3.83.44.11.91.21,1.4.31.88.16,1.24,1,.67,1.49l-.75.72c-1.36,1.3.27,2.71,4.12,3.54a36,36,0,0,0,7.4.71,38.35,38.35,0,0,0,6-.44l25.16-4c5.74-.92,7.7-3,4.39-4.54S99.76,223,94.14,223.77l.1-.1c1.09-1,.28-2.14-2-3a.84.84,0,0,1-.23-1.58L113.33,206c2.14-1.32,1-2.87-2.89-3.84a39,39,0,0,0-14-.41l-2.73.44,12.56-12.6c1.3-1.3-.37-2.68-4.22-3.51a38.69,38.69,0,0,0-10-.61c-1,.06-1.71-.72-1.23-1.38l1.64-2.32c.9-1.28-1-2.58-4.8-3.34a37.46,37.46,0,0,0-7.77-.61c-.84,0-1.46-.59-1.23-1.2L83,164.47c.45-1.24-1.65-2.45-5.42-3.13-.71-.12-1.46-.23-2.23-.31-1.12-.12-1.5-1.17-.61-1.69l40.94-23.42c2.29-1.31,1.23-2.89-2.63-3.88A38.49,38.49,0,0,0,98.91,131.59Z" style="fill:#66126b"/><path d="M202.68,229h0c-5.45-1.25-7.77-4.2-5.19-6.68,19-18.21,25.37-35.5,18.93-51.45-4.36-10.82-13.34-18.17-22.84-26-9.9-8.1-20.13-16.48-25.42-28.88-7.73-18.14-1.44-37.64,18.72-58,2.63-2.67,9.64-3.85,15.51-2.57h0c5.5,1.2,8,4.13,5.48,6.63-18.29,18.49-24.09,36-17.23,52.05,4.61,10.82,13.55,18.14,23,25.9,10,8.15,20.25,16.59,25.28,29,7.29,18.05.35,37.38-20.63,57.52C215.55,229.22,208.49,230.34,202.68,229Z" style="fill:#4800ff"/><path d="M197,226.08h0c-5.45-1.24-7.77-4.2-5.19-6.68,19-18.21,25.37-35.5,18.93-51.45-4.36-10.82-13.34-18.17-22.84-25.95-9.9-8.11-20.13-16.49-25.42-28.88-7.74-18.14-1.44-37.64,18.71-58,2.64-2.67,9.65-3.85,15.52-2.57h0c5.5,1.19,8,4.13,5.48,6.63-18.29,18.48-24.09,36-17.23,52.05,4.61,10.82,13.55,18.14,23,25.89,10,8.16,20.25,16.59,25.28,29,7.29,18.05.35,37.38-20.63,57.51C209.85,226.3,202.79,227.41,197,226.08Z" style="fill:#66126b"/><rect width="285" height="285" style="fill:none"/><path d="M181.16,114.46l7.06-11,25.13,48.68-54.73-2.58,3.67-5.71a6.37,6.37,0,0,0-4.7-9.76c-28.13-3-55.92,7.17-67.3,12.06a6.35,6.35,0,0,1-8.15-2.9l-1.74-3.34-1.48-2.84A6.34,6.34,0,0,1,82,128.33c14.84-6.51,54.05-20.92,92.27-11.16A6.34,6.34,0,0,0,181.16,114.46Z" style="fill:red"/></g></g></svg>