<svg xmlns="http://www.w3.org/2000/svg" xmlns:xlink="http://www.w3.org/1999/xlink" viewBox="0 0 285 285"><defs><linearGradient id="linear-gradient" x1="114.13" y1="589.92" x2="187.02" y2="463.67" gradientTransform="translate(114.24 -432.8) rotate(15.12)" gradientUnits="userSpaceOnUse"><stop offset="0.12" stop-color="#4d4d4d"/><stop offset="0.47" stop-color="#515151"/><stop offset="0.83" stop-color="#5d5d5d"/><stop offset="1" stop-color="#666"/></linearGradient></defs><title>toJoints</title><g id="Layer_2" data-name="Layer 2"><g id="Layer_1-2" data-name="Layer 1"><rect width="285" height="285" style="fill:none"/><circle cx="232.85" cy="218.52" r="28.3" style="fill:#4800ff"/><circle cx="228.13" cy="212.62" r="28.3" style="fill:#66126b"/><circle cx="228.13" cy="212.62" r="11.79" style="fill:#09000a"/><polyline points="10.46 88.36 46.82 142.61 109.31 200.63 172.29 171.57 218.03 157.59 184.69 86.06 144.44 34.05 71.64 62.92" style="fill:url(#linear-gradient)"/><polyline points="71.36 63.33 10.18 88.76 47.31 143.22" style="fill:none;stroke:#000;stroke-linecap:round;stroke-linejoin:round;stroke-width:4px"/><line x1="71.36" y1="63.33" x2="47.31" y2="143.22" style="fill:none;stroke:#000;stroke-linecap:round;stroke-linejoin:round;stroke-width:4px"/><line x1="71.36" y1="63.33" x2="116.11" y2="101.74" style="fill:none;stroke:#000;stroke-linecap:round;stroke-linejoin:round;stroke-width:4px"/><polyline points="71.36 63.33 143.95 35.21 184.97 87.43" style="fill:none;stroke:#000;stroke-linecap:round;stroke-linejoin:round;stroke-width:4px"/><line x1="71.36" y1="63.33" x2="184.97" y2="87.43" style="fill:none;stroke:#000;stroke-linecap:round;stroke-linejoin:round;stroke-width:4px"/><line x1="116.11" y1="101.74" x2="184.97" y2="87.43" style="fill:none;stroke:#000;stroke-linecap:round;stroke-linejoin:round;stroke-width:4px"/><polyline points="172.01 171.97 217.75 158 184.97 87.43" style="fill:none;stroke:#000;stroke-linecap:round;stroke-linejoin:round;stroke-width:4px"/><line x1="184.97" y1="87.43" x2="172.01" y2="171.97" style="fill:none;stroke:#000;stroke-linecap:round;stroke-linejoin:round;stroke-width:4px"/><line x1="116.11" y1="101.74" x2="47.31" y2="143.22" style="fill:none;stroke:#000;stroke-linecap:round;stroke-linejoin:round;stroke-width:4px"/><line x1="116.11" y1="101.74" x2="172.01" y2="171.97" style="fill:none;stroke:#000;stroke-linecap:round;stroke-linejoin:round;stroke-width:4px"/><polyline points="47.31 143.22 109.03 201.03 172.01 171.97" style="fill:none;stroke:#000;stroke-linecap:round;stroke-linejoin:round;stroke-width:4px"/><line x1="47.31" y1="143.22" x2="172.01" y2="171.97" style="fill:none;stroke:#000;stroke-linecap:round;stroke-linejoin:round;stroke-width:4px"/><rect x="111.34" y="98.5" width="9.54" height="9.54" transform="translate(-39.02 112.35) rotate(-45)" style="fill:#ff0"/><rect x="42.95" y="140.95" width="9.54" height="9.54" transform="translate(-89.06 76.42) rotate(-45)" style="fill:#ff0"/><rect x="70.51" y="58.56" width="9.54" height="9.54" transform="translate(-22.73 71.78) rotate(-45)" style="fill:#ff0"/><rect x="167.24" y="167.36" width="9.54" height="9.54" transform="translate(-71.33 172.04) rotate(-45)" style="fill:#ff0"/><rect x="180.2" y="82.28" width="9.54" height="9.54" transform="translate(-7.38 156.29) rotate(-45)" style="fill:#ff0"/><path d="M164.49,204.79l-2.41,9.11,38.13-10.34-28-27.85-1.25,4.73a4.59,4.59,0,0,1-7.48,2.25c-15.3-13.48-23.41-33.22-26.35-41.66a4.57,4.57,0,0,0-5.5-2.92l-2.63.7-2.23.6a4.57,4.57,0,0,0-3.16,5.88c3.76,11.06,15.19,38.93,39,54.5A4.58,4.58,0,0,1,164.49,204.79Z" style="fill:red"/></g></g></svg>