<svg xmlns="http://www.w3.org/2000/svg" xmlns:xlink="http://www.w3.org/1999/xlink" viewBox="0 0 285 285"><defs><linearGradient id="linear-gradient" x1="-172.04" y1="2.4" x2="-110.13" y2="-104.83" gradientTransform="translate(224.01 165.67) rotate(15.12)" gradientUnits="userSpaceOnUse"><stop offset="0.12" stop-color="#4d4d4d"/><stop offset="0.47" stop-color="#515151"/><stop offset="0.83" stop-color="#5d5d5d"/><stop offset="1" stop-color="#666"/></linearGradient><linearGradient id="linear-gradient-2" x1="-50.03" y1="88.99" x2="11.88" y2="-18.24" xlink:href="#linear-gradient"/></defs><title>transUV</title><g id="Layer_2" data-name="Layer 2"><g id="Layer_1-2" data-name="Layer 1"><rect width="285" height="285" style="fill:none"/><path d="M28.13,72.23" style="stroke:#000;stroke-linecap:round;stroke-linejoin:round;stroke-width:4px"/><polyline points="6.24 56.78 37.12 102.86 90.19 152.14 143.69 127.46 182.53 115.59 154.22 54.83 120.03 10.65 58.2 35.18" style="fill:url(#linear-gradient)"/><polyline points="57.96 35.52 6 57.13 37.53 103.38" style="fill:none;stroke:#000;stroke-linecap:round;stroke-linejoin:round;stroke-width:4px"/><line x1="57.96" y1="35.52" x2="37.53" y2="103.38" style="fill:none;stroke:#000;stroke-linecap:round;stroke-linejoin:round;stroke-width:4px"/><line x1="57.96" y1="35.52" x2="95.97" y2="68.15" style="fill:none;stroke:#000;stroke-linecap:round;stroke-linejoin:round;stroke-width:4px"/><polyline points="57.96 35.52 119.62 11.64 154.46 56" style="fill:none;stroke:#000;stroke-linecap:round;stroke-linejoin:round;stroke-width:4px"/><line x1="57.96" y1="35.52" x2="154.46" y2="56" style="fill:none;stroke:#000;stroke-linecap:round;stroke-linejoin:round;stroke-width:4px"/><line x1="95.97" y1="68.15" x2="154.46" y2="56" style="fill:none;stroke:#000;stroke-linecap:round;stroke-linejoin:round;stroke-width:4px"/><polyline points="143.45 127.8 182.29 115.93 154.46 56" style="fill:none;stroke:#000;stroke-linecap:round;stroke-linejoin:round;stroke-width:4px"/><line x1="154.46" y1="56" x2="143.45" y2="127.8" style="fill:none;stroke:#000;stroke-linecap:round;stroke-linejoin:round;stroke-width:4px"/><line x1="95.97" y1="68.15" x2="37.53" y2="103.38" style="fill:none;stroke:#000;stroke-linecap:round;stroke-linejoin:round;stroke-width:4px"/><line x1="95.97" y1="68.15" x2="143.45" y2="127.8" style="fill:none;stroke:#000;stroke-linecap:round;stroke-linejoin:round;stroke-width:4px"/><polyline points="37.53 103.38 89.96 152.49 143.45 127.8" style="fill:none;stroke:#000;stroke-linecap:round;stroke-linejoin:round;stroke-width:4px"/><line x1="37.53" y1="103.38" x2="143.45" y2="127.8" style="fill:none;stroke:#000;stroke-linecap:round;stroke-linejoin:round;stroke-width:4px"/><path d="M123.34,187.64" style="stroke:#000;stroke-linecap:round;stroke-linejoin:round;stroke-width:4px"/><polyline points="101.45 172.19 132.33 218.27 185.4 267.55 238.9 242.87 277.74 231 249.43 170.24 215.24 126.06 153.41 150.59" style="fill:url(#linear-gradient-2)"/><polyline points="153.17 150.93 101.21 172.53 132.74 218.79" style="fill:none;stroke:#000;stroke-linecap:round;stroke-linejoin:round;stroke-width:4px"/><line x1="153.17" y1="150.93" x2="132.74" y2="218.79" style="fill:none;stroke:#000;stroke-linecap:round;stroke-linejoin:round;stroke-width:4px"/><line x1="153.17" y1="150.93" x2="191.18" y2="183.56" style="fill:none;stroke:#000;stroke-linecap:round;stroke-linejoin:round;stroke-width:4px"/><polyline points="153.17 150.93 214.83 127.05 249.67 171.41" style="fill:none;stroke:#000;stroke-linecap:round;stroke-linejoin:round;stroke-width:4px"/><line x1="153.17" y1="150.93" x2="249.67" y2="171.41" style="fill:none;stroke:#000;stroke-linecap:round;stroke-linejoin:round;stroke-width:4px"/><line x1="191.18" y1="183.56" x2="249.67" y2="171.41" style="fill:none;stroke:#000;stroke-linecap:round;stroke-linejoin:round;stroke-width:4px"/><polyline points="238.66 243.21 277.5 231.34 249.67 171.41" style="fill:none;stroke:#000;stroke-linecap:round;stroke-linejoin:round;stroke-width:4px"/><line x1="249.67" y1="171.41" x2="238.66" y2="243.21" style="fill:none;stroke:#000;stroke-linecap:round;stroke-linejoin:round;stroke-width:4px"/><line x1="191.18" y1="183.56" x2="132.74" y2="218.79" style="fill:none;stroke:#000;stroke-linecap:round;stroke-linejoin:round;stroke-width:4px"/><line x1="191.18" y1="183.56" x2="238.66" y2="243.21" style="fill:none;stroke:#000;stroke-linecap:round;stroke-linejoin:round;stroke-width:4px"/><polyline points="132.74 218.79 185.17 267.89 238.66 243.21" style="fill:none;stroke:#000;stroke-linecap:round;stroke-linejoin:round;stroke-width:4px"/><line x1="132.74" y1="218.79" x2="238.66" y2="243.21" style="fill:none;stroke:#000;stroke-linecap:round;stroke-linejoin:round;stroke-width:4px"/><path d="M185.7,147.83,183,114.44l-5.88,4.05a4.21,4.21,0,0,1-5.48-.6A114.34,114.34,0,0,0,86.86,81.27a4.22,4.22,0,0,0-4.1,4.65l.37,3.57a4.21,4.21,0,0,0,4.22,3.79,101.91,101.91,0,0,1,25.33,3.13,100.86,100.86,0,0,1,48.06,27.41,4.21,4.21,0,0,1-.64,6.41l-4.65,3.21Z" style="fill:red"/><circle cx="167.87" cy="203.18" r="11.38" transform="translate(-94.5 178.21) rotate(-45)" style="fill:#4800ff"/><path d="M180,207.2l-9.22,9.22c-.56.56-.7,1.29-.3,1.57l38.8,27.28c.79.56,2.41-1,1.88-1.85l-23.88-36.17C186.12,205.36,182.59,204.65,180,207.2Z" style="fill:#4800ff"/><circle cx="211.05" cy="158.79" r="11.38" transform="translate(-50.46 195.74) rotate(-45)" style="fill:#4800ff"/><circle cx="209.49" cy="156.72" r="11.38" transform="translate(-49.46 194.03) rotate(-45)" style="fill:#66126b"/><path d="M206.08,168.6l-5.49-4.48c-.56-.56-7.3-1.35-7.58-.95l-25,34.71c-.56.79,1,2.41,1.85,1.88l37.48-24.07C209.23,174.48,208.63,171.15,206.08,168.6Z" style="fill:#4800ff"/><path d="M205.22,168.53l-7.15-7.15c-2.12-2.12-4.9-2.63-5.92-1.08l-26.59,40.21c-.4.61.81,1.8,1.4,1.39l39.39-27.47C207.84,173.38,207.32,170.64,205.22,168.53Z" style="fill:#66126b"/><circle cx="209.49" cy="156.72" r="4.74" transform="translate(-49.46 194.03) rotate(-45)" style="fill:#09000a"/><path d="M178.56,205.69l-7.15,7.15c-2.12,2.12-2.63,4.9-1.08,5.92l40.21,26.59c.61.4,1.8-.81,1.39-1.4l-27.47-39.39C183.41,203.07,180.66,203.59,178.56,205.69Z" style="fill:#66126b"/><circle cx="212.44" cy="245.63" r="11.38" style="fill:#4800ff"/><circle cx="210.55" cy="243.26" r="11.38" style="fill:#66126b"/><circle cx="210.55" cy="243.26" r="4.74" style="fill:#09000a"/><circle cx="166.75" cy="201.42" r="11.38" transform="translate(-93.59 176.9) rotate(-45)" style="fill:#66126b"/><circle cx="166.75" cy="201.42" r="4.74" transform="translate(-93.59 176.9) rotate(-45)" style="fill:#09000a"/><path d="M59.49,49.86V76.58q0,13.31,11.6,13.31t11.6-13.31V49.86a3.24,3.24,0,0,1,1.21-2.62,5.28,5.28,0,0,1,3.49-1.14,5,5,0,0,1,3.72,1.34,3.28,3.28,0,0,1,1,2.41v28q0,7.85-3.22,12.24a19.44,19.44,0,0,1-3.59,3.59A22.64,22.64,0,0,1,71.06,98.2q-9.42,0-15.59-5.77a15.7,15.7,0,0,1-4.66-7.78,28.32,28.32,0,0,1-.74-6.84v-28a3.32,3.32,0,0,1,2-3.15,6.12,6.12,0,0,1,2.72-.6A5.6,5.6,0,0,1,58,47,3.21,3.21,0,0,1,59.49,49.86Z" style="fill:#158e00"/><path d="M122.09,85,135,49.19a4.2,4.2,0,0,1,4.32-3,6.08,6.08,0,0,1,2.21.4,4.24,4.24,0,0,1,3.05,4.16,4,4,0,0,1-.23,1.37l-15.72,40.7q-1.88,4.9-6.54,4.89t-6.5-4.89L99.86,52.14a3.65,3.65,0,0,1-.27-1.37,4.25,4.25,0,0,1,2.65-4,5.93,5.93,0,0,1,2.68-.64,4.16,4.16,0,0,1,4.26,3Z" style="fill:#158e00"/></g></g></svg>