<svg xmlns="http://www.w3.org/2000/svg" viewBox="0 0 285 285"><title>unify</title><g id="Layer_2" data-name="Layer 2"><g id="Layer_1-2" data-name="Layer 1"><rect width="285" height="285" style="fill:none"/><path d="M66,74.63,55.63,64.28c-.63-.62-1.46-.78-1.77-.33L23.28,107.66c-.62.9,1.17,2.71,2.09,2.12l42.1-27.17C69.58,81.24,68.9,77.49,66,74.63Z" style="fill:#4800ff"/><circle cx="74.27" cy="65.38" r="12.8" style="fill:#4800ff"/><circle cx="72.14" cy="62.71" r="12.8" style="fill:#66126b"/><path d="M78.87,77.13H64.2c-.89,0-1.58.47-1.48,1l9.16,52.56c.19,1.07,2.74,1.09,3,0L85.52,81.77C86.06,79.31,82.93,77.13,78.87,77.13Z" style="fill:#4800ff"/><circle cx="72.14" cy="62.71" r="5.33" style="fill:#09000a"/><path d="M78.14,75.51H66.77c-3.38,0-6,1.8-5.58,3.85L72,132.49c.16.8,2.08.79,2.22,0l9.48-53.17C84.08,77.28,81.48,75.51,78.14,75.51Z" style="fill:#66126b"/><path d="M66.65,73l-8.06-8c-2.39-2.38-5.52-2.95-6.67-1.21L22.12,109c-.45.68.91,2,1.58,1.55l44.23-31C69.62,78.41,69,75.32,66.65,73Z" style="fill:#66126b"/><path d="M81,145.17l9.85-10.87c.6-.65,1.41-.85,1.75-.42L125.39,176c.67.86-1,2.76-2,2.22L80,153.21C77.79,152,78.28,148.18,81,145.17Z" style="fill:#4800ff"/><circle cx="72.59" cy="135.47" r="12.8" style="fill:#4800ff"/><circle cx="73.13" cy="132.1" r="12.8" style="fill:#66126b"/><circle cx="73.13" cy="132.1" r="5.33" style="fill:#09000a"/><path d="M79.22,144.6l7.64-8.42c2.27-2.51,5.36-3.23,6.6-1.55l32.1,43.7c.49.66-.8,2.07-1.5,1.64L78.29,151.29C76.54,150.2,77,147.08,79.22,144.6Z" style="fill:#66126b"/><path d="M67,146.77,57.12,135.9c-.6-.66-1.41-.85-1.75-.42l-32.8,42.08c-.67.86,1,2.76,2,2.22l43.45-25C70.17,153.56,69.69,149.78,67,146.77Z" style="fill:#4800ff"/><path d="M67.68,145.14,60,136.71c-2.27-2.5-5.36-3.23-6.59-1.55l-32.11,43.7c-.48.66.81,2.07,1.5,1.64l45.77-28.67C70.36,150.73,69.92,147.61,67.68,145.14Z" style="fill:#66126b"/><circle cx="23.49" cy="110.96" r="12.8" style="fill:#4800ff"/><circle cx="21.36" cy="108.3" r="12.8" style="fill:#66126b"/><circle cx="21.36" cy="108.3" r="5.33" style="fill:#09000a"/><path d="M81.27,75.78l-1,1.49L78.86,79l0,0H79l.07.05h0l0,0h0l0,0h0l0,0h0l9.44,6.61L91,82.59l-9.71-6.81Zm19.54,13.7-2.3,3.27,9.83,6.89,2.29-3.28-9.82-6.88Zm12.9,19.68-3.88,1a13.19,13.19,0,0,0,.4,1.26h0v0h0v.05h0v0h0v0h0v0h0v0h0v0h0l0,0h0l0,0h0v0h0v0h0v0h0v0h0v0h0v0h0v0h0v0h.34v0h0v0h.07v0h0v0h0v0h0v0h0v0h0v0h0v0h0v0h0v0h0v0h0v0h0l0,0h0l0,0h0l0,0h0l0,0h0l0,0h0l0,0h0l0,0h0l0,0h0l0,0h0l0,0h0l0,0h0l0,0h0l0,0h0l0,0h0l0,0h0l0,0h0l0,0h0l0,0h0l0,0h0l0,0h0l0,0h0l0,0h0l0,0h0l0,0h0l0,0h0l0,0h0l0,0h0v0h0l0,0h0l0,0h0l0,0h0l0,0h0l0,0h0l0,0h0l0,0h0l0,0h0l0,0h0l0,0h0l0,0h0l0,0h0v0h0l0,0h0l0,0h0l0,0h0l0,0h0l0,0H113v0h0v0h0v0h.06l0,0h0l0,0H115l0,0h.12l0,0h.3l0,0h0l0,0h1.55l0,0h.11l0,0h0l0,0h0l0,0h0l.09,0,1.49-3.71a8.8,8.8,0,0,1-5.25-6ZM131,107.64a8.82,8.82,0,0,1-4.13,6.8l2.12,3.39a12.78,12.78,0,0,0,2.63-2.17h0l0,0h0l0,0h0l0,0h0v0h0l0,0h.38l0,0h0l0,0h0l0,0h0l0,0h0l.06-.08h0a1.13,1.13,0,0,0,.1-.13h0a12.68,12.68,0,0,0,2.51-6.68l-4-.3Zm-8.77-13.47h-2.42l-.47.1.9,3.89a8.87,8.87,0,0,1,7.72,1.9l2.61-3a12.57,12.57,0,0,0-2.12-1.48h0l-.06,0h0l-.05,0h0l0,0h0l0,0h0l0,0h0l0,0h0l0,0h-.62l0,0h-.38l0,0h-.05l0,0h-.05l0,0h-.28l0,0h0l0,0h0l0,0h0l-.05,0h0l-.06,0h0l-.06,0h-.12l0,0h-.39l-.05,0h-3.09ZM104.9,78.28l-3.34,2.2,6.59,10,3.34-2.2-1.94-3h0l0-.06h0v0l-4.6-7Zm-12-16.09h-.19l-.37,0h-.06l-.1,0h-.08l-.08,0h-.63l0,0h-.13l-.05,0H91l-.07,0h-.12l-.06,0h-.11l-.08,0h-.09l-.11,0H90.3l-.11.06h0l-.15.09h0l-.18.11h0l-.37.25h0l-.35.26h0l-.13.11h-.08l-.09.08h-.09l-.07.06H88.5l0,0h-.16l-4.83,4.81,2.82,2.84,4.83-4.81a4.4,4.4,0,0,1,1.16-.85L95,70.45l3.34-2.2-3.2-4.87h0L95,63.26h0l0,0h0v0h0l-2.11,1.39h0L95,63.2a2.38,2.38,0,0,0-2.11-1Z"/><circle cx="24.22" cy="181.21" r="12.8" style="fill:#4800ff"/><circle cx="22.09" cy="178.54" r="12.8" style="fill:#66126b"/><circle cx="22.09" cy="178.54" r="5.33" style="fill:#09000a"/><circle cx="126.61" cy="181.21" r="12.8" style="fill:#4800ff"/><circle cx="124.48" cy="178.54" r="12.8" style="fill:#66126b"/><circle cx="124.48" cy="178.54" r="5.33" style="fill:#09000a"/><path d="M198.64,125.88l-10.4-10.35c-.63-.62-1.45-.78-1.77-.33L155.9,158.91c-.63.9,1.17,2.71,2.09,2.12l42.09-27.18C202.19,132.49,201.51,128.74,198.64,125.88Z" style="fill:#4800ff"/><path d="M214.56,124.28,225,113.93c.63-.62,1.45-.78,1.76-.33l30.58,43.71c.63.9-1.17,2.71-2.09,2.12l-42.1-27.17C211,130.89,211.68,127.14,214.56,124.28Z" style="fill:#4800ff"/><circle cx="206.88" cy="116.63" r="12.8" style="fill:#4800ff"/><circle cx="204.75" cy="113.96" r="12.8" style="fill:#66126b"/><path d="M211.49,128.38H196.82c-.89,0-1.58.47-1.49,1L204.49,182c.19,1.07,2.74,1.09,3,0L218.14,133C218.67,130.56,215.54,128.38,211.49,128.38Z" style="fill:#4800ff"/><circle cx="204.75" cy="113.96" r="5.33" style="fill:#09000a"/><path d="M212.87,123.68l8.06-8c2.39-2.38,5.52-2.94,6.66-1.2l29.81,45.3c.45.69-.91,2-1.58,1.56l-44.23-31C209.9,129.12,210.5,126,212.87,123.68Z" style="fill:#66126b"/><path d="M210.75,126.76H199.38c-3.38,0-6,1.8-5.57,3.85l10.83,53.13c.16.8,2.07.79,2.21,0l9.49-53.18C216.7,128.53,214.1,126.76,210.75,126.76Z" style="fill:#66126b"/><path d="M199.27,124.21l-8.07-8c-2.39-2.39-5.51-3-6.66-1.21l-29.81,45.3c-.45.69.91,2,1.58,1.56l44.23-31C202.23,129.66,201.63,126.57,199.27,124.21Z" style="fill:#66126b"/><path d="M213.62,196.42l9.85-10.87c.59-.66,1.41-.85,1.74-.42L258,227.21c.67.86-1,2.76-2,2.22l-43.44-25C210.41,203.21,210.89,199.43,213.62,196.42Z" style="fill:#4800ff"/><circle cx="205.2" cy="186.72" r="12.8" style="fill:#4800ff"/><circle cx="205.75" cy="183.35" r="12.8" style="fill:#66126b"/><circle cx="205.75" cy="183.35" r="5.33" style="fill:#09000a"/><path d="M211.84,195.85l7.64-8.42c2.26-2.51,5.35-3.23,6.59-1.55l32.11,43.7c.48.66-.81,2.07-1.5,1.64L210.9,202.54C209.16,201.45,209.59,198.33,211.84,195.85Z" style="fill:#66126b"/><circle cx="156.1" cy="162.21" r="12.8" style="fill:#4800ff"/><circle cx="153.97" cy="159.55" r="12.8" style="fill:#66126b"/><circle cx="153.97" cy="159.55" r="5.33" style="fill:#09000a"/><circle cx="256.98" cy="160.88" r="12.8" style="fill:#4800ff"/><circle cx="254.84" cy="158.21" r="12.8" style="fill:#66126b"/><circle cx="254.84" cy="158.21" r="5.33" style="fill:#09000a"/><path d="M188,185.5a2.36,2.36,0,0,0-2,.91h0l0,0h0l0,0h0l-5.71,7.77,3.22,2.37,5.06-6.9a4.76,4.76,0,0,1,1.11.91l5.39,6,3-2.69L192.66,188h-.06v0h0a7.71,7.71,0,0,0-3.15-2.12l-.83,2.52-.54-.39V185.5Zm-14.85,18.43L171,206.88h0l0,0h0v0h0v0h0l0,.05h0v0h0v0h0v0h0v0h0l-.06.08h0l-.06.08h0l-4.6,6.27,3.22,2.37,7.11-9.67-3.23-2.37ZM154.7,217h-2.15l-.11,0h0a12.73,12.73,0,0,0-6.23,3l2.66,3A8.78,8.78,0,0,1,154.7,221a8.88,8.88,0,0,1,1.85.2l.83-3.92h0a11.79,11.79,0,0,0-1.58-.23H154.7Zm-8.76,13.63-4,.37a12.59,12.59,0,0,0,2.28,6.16h0l.06.09h0l0,0h0l0,0h0l.06.09h0l0,0h0l0,0h0l0,0h0l0,0h0l0,0h0l0,0h0l0,0h0l0,0h0l0,0h0l0,0h0l0,0h0l0,0h0l0,0h0l0,0h0l0,0h0l0,0h0v0h0l0,0h.05v0h0v0h0l0,0h0l0,0h0v0h.1l0,0h0l0,0h.1v0h0v0h0v0h0v0h0l0,0h.51l0,0h.33v0h.25l0,0h.2l0,0h.19l0,0h0l0,0h0l0,0h0l0,0h0l0,0h0l.09.05h0l.06,0h0l0,0h0l.43.27,2.06-3.43a8.84,8.84,0,0,1-4.25-6.72Zm17.32,1.22a8.84,8.84,0,0,1-5.15,6.06l1.56,3.69a13.38,13.38,0,0,0,2.11-1.14h0l0,0h0l0,0h.06l0,0H162l0,0h0l0,0h0l0,0h.16v0h.42l0,0h.11l0,0h0l0,0h0l0,0h0l0,0h0l0,0h0l0,0h0l0,0h0a12.83,12.83,0,0,0,3.61-5.27h0v0h0v0h0v0h0v0h0v0h.07v0h0v0h0v0h0v0h0l0,0h0l.18-.68-3.89-.93ZM177.85,213l-10.17,6.37,2.13,3.39,5.79-3.63h.1l4.28-2.67L177.85,213Zm20.34-12.74L188,206.63l2.13,3.39,2.69-1.69h0l.14-.09h0l7.3-4.57-2.13-3.39Z"/><circle cx="259.23" cy="232.45" r="12.8" style="fill:#4800ff"/><circle cx="257.09" cy="229.79" r="12.8" style="fill:#66126b"/><circle cx="257.09" cy="229.79" r="5.33" style="fill:#09000a"/><path d="M154.77,77.14l2-7.73-32.33,8.76,23.76,23.62,1.06-4a3.89,3.89,0,0,1,6.34-1.91c13,11.44,19.86,28.18,22.35,35.33a3.89,3.89,0,0,0,4.67,2.49l2.23-.6,1.89-.51a3.87,3.87,0,0,0,2.68-5c-3.19-9.39-12.88-33-33.07-46.23A3.87,3.87,0,0,1,154.77,77.14Z" style="fill:red"/><path d="M125.48,213.16l-2,7.73,32.34-8.77L132,188.5l-1.06,4a3.9,3.9,0,0,1-6.35,1.91c-13-11.43-19.85-28.18-22.34-35.33a3.88,3.88,0,0,0-4.67-2.48l-2.23.59-1.89.51a3.88,3.88,0,0,0-2.68,5c3.19,9.38,12.88,33,33.06,46.22A3.88,3.88,0,0,1,125.48,213.16Z" style="fill:red"/></g></g></svg>