<svg xmlns="http://www.w3.org/2000/svg" xmlns:xlink="http://www.w3.org/1999/xlink" viewBox="0 0 285 285"><defs><linearGradient id="linear-gradient" x1="-100.52" y1="-143.98" x2="-38.61" y2="-251.21" gradientTransform="translate(116.79 288.33) rotate(15.12)" gradientUnits="userSpaceOnUse"><stop offset="0.12" stop-color="#4d4d4d"/><stop offset="0.47" stop-color="#515151"/><stop offset="0.83" stop-color="#5d5d5d"/><stop offset="1" stop-color="#666"/></linearGradient><linearGradient id="linear-gradient-2" x1="21.5" y1="-57.39" x2="83.41" y2="-164.62" xlink:href="#linear-gradient"/></defs><title>vert2vert</title><g id="Layer_2" data-name="Layer 2"><g id="Layer_1-2" data-name="Layer 1"><rect width="285" height="285" style="fill:none"/><polyline points="6.24 56.78 37.12 102.86 90.19 152.14 143.69 127.46 182.53 115.59 154.22 54.83 120.03 10.65 58.2 35.18" style="fill:url(#linear-gradient)"/><polyline points="57.96 35.52 6 57.13 37.53 103.38" style="fill:none;stroke:#000;stroke-linecap:round;stroke-linejoin:round;stroke-width:4px"/><line x1="57.96" y1="35.52" x2="37.53" y2="103.38" style="fill:none;stroke:#000;stroke-linecap:round;stroke-linejoin:round;stroke-width:4px"/><line x1="57.96" y1="35.52" x2="95.97" y2="68.15" style="fill:none;stroke:#000;stroke-linecap:round;stroke-linejoin:round;stroke-width:4px"/><polyline points="57.96 35.52 119.62 11.64 154.46 56" style="fill:none;stroke:#000;stroke-linecap:round;stroke-linejoin:round;stroke-width:4px"/><line x1="57.96" y1="35.52" x2="154.46" y2="56" style="fill:none;stroke:#000;stroke-linecap:round;stroke-linejoin:round;stroke-width:4px"/><line x1="95.97" y1="68.15" x2="154.46" y2="56" style="fill:none;stroke:#000;stroke-linecap:round;stroke-linejoin:round;stroke-width:4px"/><polyline points="143.45 127.8 182.29 115.93 154.46 56" style="fill:none;stroke:#000;stroke-linecap:round;stroke-linejoin:round;stroke-width:4px"/><line x1="154.46" y1="56" x2="143.45" y2="127.8" style="fill:none;stroke:#000;stroke-linecap:round;stroke-linejoin:round;stroke-width:4px"/><line x1="95.97" y1="68.15" x2="37.53" y2="103.38" style="fill:none;stroke:#000;stroke-linecap:round;stroke-linejoin:round;stroke-width:4px"/><line x1="95.97" y1="68.15" x2="143.45" y2="127.8" style="fill:none;stroke:#000;stroke-linecap:round;stroke-linejoin:round;stroke-width:4px"/><polyline points="37.53 103.38 89.96 152.49 143.45 127.8" style="fill:none;stroke:#000;stroke-linecap:round;stroke-linejoin:round;stroke-width:4px"/><line x1="37.53" y1="103.38" x2="143.45" y2="127.8" style="fill:none;stroke:#000;stroke-linecap:round;stroke-linejoin:round;stroke-width:4px"/><rect x="91.92" y="63.77" width="8.09" height="8.09" transform="translate(-19.85 87.72) rotate(-45)" style="fill:#ff0"/><polyline points="101.45 172.19 132.33 218.27 185.4 267.55 238.9 242.87 277.74 231 249.43 170.24 215.24 126.06 153.41 150.59" style="fill:url(#linear-gradient-2)"/><polyline points="153.17 150.93 101.21 172.53 132.74 218.79" style="fill:none;stroke:#000;stroke-linecap:round;stroke-linejoin:round;stroke-width:4px"/><line x1="153.17" y1="150.93" x2="132.74" y2="218.79" style="fill:none;stroke:#000;stroke-linecap:round;stroke-linejoin:round;stroke-width:4px"/><line x1="153.17" y1="150.93" x2="191.18" y2="183.56" style="fill:none;stroke:#000;stroke-linecap:round;stroke-linejoin:round;stroke-width:4px"/><polyline points="153.17 150.93 214.83 127.05 249.67 171.41" style="fill:none;stroke:#000;stroke-linecap:round;stroke-linejoin:round;stroke-width:4px"/><line x1="153.17" y1="150.93" x2="249.67" y2="171.41" style="fill:none;stroke:#000;stroke-linecap:round;stroke-linejoin:round;stroke-width:4px"/><line x1="191.18" y1="183.56" x2="249.67" y2="171.41" style="fill:none;stroke:#000;stroke-linecap:round;stroke-linejoin:round;stroke-width:4px"/><polyline points="238.66 243.21 277.5 231.34 249.67 171.41" style="fill:none;stroke:#000;stroke-linecap:round;stroke-linejoin:round;stroke-width:4px"/><line x1="249.67" y1="171.41" x2="238.66" y2="243.21" style="fill:none;stroke:#000;stroke-linecap:round;stroke-linejoin:round;stroke-width:4px"/><line x1="191.18" y1="183.56" x2="132.74" y2="218.79" style="fill:none;stroke:#000;stroke-linecap:round;stroke-linejoin:round;stroke-width:4px"/><line x1="191.18" y1="183.56" x2="238.66" y2="243.21" style="fill:none;stroke:#000;stroke-linecap:round;stroke-linejoin:round;stroke-width:4px"/><polyline points="132.74 218.79 185.17 267.89 238.66 243.21" style="fill:none;stroke:#000;stroke-linecap:round;stroke-linejoin:round;stroke-width:4px"/><line x1="132.74" y1="218.79" x2="238.66" y2="243.21" style="fill:none;stroke:#000;stroke-linecap:round;stroke-linejoin:round;stroke-width:4px"/><rect x="187.13" y="180.82" width="8.09" height="8.09" transform="translate(-74.72 189.33) rotate(-45)" style="fill:#ff0"/><path d="M210.68,166.2l9.74-32-6.95,1.62a4.22,4.22,0,0,1-4.88-2.57,114.35,114.35,0,0,0-65.52-65.12,4.22,4.22,0,0,0-5.52,2.83l-1,3.46a4.21,4.21,0,0,0,2.54,5.07,102.25,102.25,0,0,1,22.43,12.19,100.9,100.9,0,0,1,34.69,43.1,4.22,4.22,0,0,1-3,5.73l-5.5,1.28Z" style="fill:red"/><path d="M94.93,90.53l-9.74,32.06,7-1.62A4.19,4.19,0,0,1,97,123.53a114.35,114.35,0,0,0,65.52,65.12,4.22,4.22,0,0,0,5.52-2.83l1-3.46a4.2,4.2,0,0,0-2.54-5.07,102.23,102.23,0,0,1-22.42-12.19,100.79,100.79,0,0,1-34.7-43.1,4.22,4.22,0,0,1,2.95-5.73l5.5-1.28Z" style="fill:red"/></g></g></svg>