<svg xmlns="http://www.w3.org/2000/svg" xmlns:xlink="http://www.w3.org/1999/xlink" viewBox="0 0 285 285"><defs><linearGradient id="linear-gradient" x1="-58" y1="-144.37" x2="38.7" y2="-311.87" gradientTransform="translate(103.1 373.04) rotate(15.12)" gradientUnits="userSpaceOnUse"><stop offset="0.12" stop-color="#4d4d4d"/><stop offset="0.47" stop-color="#515151"/><stop offset="0.83" stop-color="#5d5d5d"/><stop offset="1" stop-color="#666"/></linearGradient></defs><title>vertOver</title><g id="Layer_2" data-name="Layer 2"><g id="Layer_1-2" data-name="Layer 1"><rect width="285" height="285" style="fill:none"/><polyline points="5 114.92 53.23 186.89 136.14 263.87 219.69 225.31 280.38 206.77 236.15 111.86 182.75 42.85 86.16 81.17" style="fill:url(#linear-gradient)"/><polyline points="85.79 81.7 4.63 115.45 53.88 187.7" style="fill:none;stroke:#000;stroke-linecap:round;stroke-linejoin:round;stroke-width:4px"/><line x1="85.79" y1="81.7" x2="53.88" y2="187.7" style="fill:none;stroke:#000;stroke-linecap:round;stroke-linejoin:round;stroke-width:4px"/><line x1="85.79" y1="81.7" x2="145.16" y2="132.67" style="fill:none;stroke:#000;stroke-linecap:round;stroke-linejoin:round;stroke-width:4px"/><polyline points="85.79 81.7 182.1 44.41 236.52 113.69" style="fill:none;stroke:#000;stroke-linecap:round;stroke-linejoin:round;stroke-width:4px"/><line x1="85.79" y1="81.7" x2="236.52" y2="113.69" style="fill:none;stroke:#000;stroke-linecap:round;stroke-linejoin:round;stroke-width:4px"/><line x1="145.16" y1="132.67" x2="236.52" y2="113.69" style="fill:none;stroke:#000;stroke-linecap:round;stroke-linejoin:round;stroke-width:4px"/><polyline points="219.32 225.84 280 207.3 236.52 113.69" style="fill:none;stroke:#000;stroke-linecap:round;stroke-linejoin:round;stroke-width:4px"/><line x1="236.52" y1="113.69" x2="219.32" y2="225.84" style="fill:none;stroke:#000;stroke-linecap:round;stroke-linejoin:round;stroke-width:4px"/><line x1="145.16" y1="132.67" x2="53.88" y2="187.7" style="fill:none;stroke:#000;stroke-linecap:round;stroke-linejoin:round;stroke-width:4px"/><line x1="145.16" y1="132.67" x2="219.32" y2="225.84" style="fill:none;stroke:#000;stroke-linecap:round;stroke-linejoin:round;stroke-width:4px"/><polyline points="53.88 187.7 135.77 264.4 219.32 225.84" style="fill:none;stroke:#000;stroke-linecap:round;stroke-linejoin:round;stroke-width:4px"/><line x1="53.88" y1="187.7" x2="219.32" y2="225.84" style="fill:none;stroke:#000;stroke-linecap:round;stroke-linejoin:round;stroke-width:4px"/><rect x="132.1" y="259.82" width="8.09" height="8.09" transform="translate(-146.71 173.55) rotate(-45)" style="fill:#ff0"/><rect x="274.33" y="202.73" width="8.09" height="8.09" transform="translate(-64.68 257.4) rotate(-45)" style="fill:#ff0"/><rect x="178.2" y="40.36" width="8.09" height="8.09" transform="translate(21.98 141.87) rotate(-45)" style="fill:#ff0"/><rect x="2.84" y="112.36" width="8.09" height="8.09" transform="translate(-80.29 38.97) rotate(-45)" style="fill:#ff0"/><rect x="83.95" y="76.36" width="8.09" height="8.09" transform="translate(-31.08 85.77) rotate(-45)" style="fill:#ff0"/><polygon points="37.27 197.02 55 169.76 71.56 197.02 37.27 197.02" style="fill:#fff"/><polyline points="161.33 146.3 128.04 146.3 144.77 119.04" style="fill:#fff"/><polyline points="253.17 123.18 219.88 123.18 236.61 95.92" style="fill:#fff"/><polyline points="234.12 234.03 200.83 234.03 217.57 206.77" style="fill:#fff"/><path d="M74.75,195.22,57.24,167.07a3,3,0,0,0-5.12,0l-16.9,28.15a3,3,0,0,0,2.57,4.54H72.21A3,3,0,0,0,74.75,195.22ZM55,197a2.71,2.71,0,1,1,2.71-2.71A2.71,2.71,0,0,1,55,197Zm0-6.64c-1.49,0-2.71-11.67-2.71-13.17a2.71,2.71,0,0,1,5.42,0C57.71,178.71,56.49,190.38,55,190.38Z" style="fill:#ff4900"/><path d="M164.25,143.79l-17.51-28.15a3,3,0,0,0-5.12,0l-16.9,28.16a3,3,0,0,0,2.57,4.54h34.42A3,3,0,0,0,164.25,143.79Zm-19.75,1.8a2.71,2.71,0,1,1,2.71-2.7A2.71,2.71,0,0,1,144.5,145.59Zm0-6.64c-1.49,0-2.71-11.67-2.71-13.16a2.71,2.71,0,0,1,5.42,0C147.21,127.28,146,139,144.5,139Z" style="fill:#ff4900"/><path d="M256.27,120.21,238.76,92.05a3,3,0,0,0-5.12,0l-16.9,28.15a3,3,0,0,0,2.57,4.54h34.42A3,3,0,0,0,256.27,120.21ZM236.52,122a2.71,2.71,0,1,1,2.71-2.71A2.7,2.7,0,0,1,236.52,122Zm0-6.64c-1.49,0-2.7-11.68-2.7-13.17a2.71,2.71,0,1,1,5.41,0C239.23,103.69,238,115.37,236.52,115.37Z" style="fill:#ff4900"/><path d="M237.23,231.83l-17.52-28.15a3,3,0,0,0-5.11,0l-16.9,28.15a3,3,0,0,0,2.57,4.55h34.42A3,3,0,0,0,237.23,231.83Zm-19.75,1.8a2.71,2.71,0,1,1,2.7-2.7A2.7,2.7,0,0,1,217.48,233.63Zm0-6.64c-1.5,0-2.71-11.67-2.71-13.17a2.71,2.71,0,0,1,5.41,0C220.18,215.32,219,227,217.48,227Z" style="fill:#ff4900"/></g></g></svg>